%TF.GenerationSoftware,KiCad,Pcbnew,10.0.1*%
%TF.CreationDate,2026-04-23T20:56:12-04:00*%
%TF.ProjectId,dac,6461632e-6b69-4636-9164-5f7063625858,rev?*%
%TF.SameCoordinates,Original*%
%TF.FileFunction,Soldermask,Bot*%
%TF.FilePolarity,Negative*%
%FSLAX46Y46*%
G04 Gerber Fmt 4.6, Leading zero omitted, Abs format (unit mm)*
G04 Created by KiCad (PCBNEW 10.0.1) date 2026-04-23 20:56:12*
%MOMM*%
%LPD*%
G01*
G04 APERTURE LIST*
G04 Aperture macros list*
%AMRoundRect*
0 Rectangle with rounded corners*
0 $1 Rounding radius*
0 $2 $3 $4 $5 $6 $7 $8 $9 X,Y pos of 4 corners*
0 Add a 4 corners polygon primitive as box body*
4,1,4,$2,$3,$4,$5,$6,$7,$8,$9,$2,$3,0*
0 Add four circle primitives for the rounded corners*
1,1,$1+$1,$2,$3*
1,1,$1+$1,$4,$5*
1,1,$1+$1,$6,$7*
1,1,$1+$1,$8,$9*
0 Add four rect primitives between the rounded corners*
20,1,$1+$1,$2,$3,$4,$5,0*
20,1,$1+$1,$4,$5,$6,$7,0*
20,1,$1+$1,$6,$7,$8,$9,0*
20,1,$1+$1,$8,$9,$2,$3,0*%
G04 Aperture macros list end*
%ADD10C,3.200000*%
%ADD11C,1.600000*%
%ADD12C,2.000000*%
%ADD13RoundRect,0.250000X0.550000X0.550000X-0.550000X0.550000X-0.550000X-0.550000X0.550000X-0.550000X0*%
%ADD14RoundRect,0.250000X-0.550000X-0.550000X0.550000X-0.550000X0.550000X0.550000X-0.550000X0.550000X0*%
%ADD15R,1.905000X2.000000*%
%ADD16O,1.905000X2.000000*%
%ADD17RoundRect,0.250000X-0.350000X-0.625000X0.350000X-0.625000X0.350000X0.625000X-0.350000X0.625000X0*%
%ADD18O,1.200000X1.750000*%
%ADD19RoundRect,0.249999X-0.850001X0.850001X-0.850001X-0.850001X0.850001X-0.850001X0.850001X0.850001X0*%
%ADD20C,2.200000*%
%ADD21C,1.524000*%
%ADD22R,1.700000X1.700000*%
%ADD23C,1.700000*%
%ADD24RoundRect,0.249999X0.850001X0.850001X-0.850001X0.850001X-0.850001X-0.850001X0.850001X-0.850001X0*%
%ADD25RoundRect,0.250000X-0.625000X0.350000X-0.625000X-0.350000X0.625000X-0.350000X0.625000X0.350000X0*%
%ADD26O,1.750000X1.200000*%
%ADD27C,2.540000*%
G04 APERTURE END LIST*
D10*
%TO.C,H4*%
X64770000Y-135890000D03*
%TD*%
%TO.C,H3*%
X148590000Y-135890000D03*
%TD*%
%TO.C,H2*%
X148590000Y-62230000D03*
%TD*%
%TO.C,H1*%
X64770000Y-62230000D03*
%TD*%
D11*
%TO.C,C16*%
X110450000Y-137160000D03*
X105450000Y-137160000D03*
%TD*%
D12*
%TO.C,R11*%
X135890000Y-123210000D03*
X143510000Y-123210000D03*
%TD*%
D11*
%TO.C,C2*%
X105410000Y-71080000D03*
X105410000Y-66080000D03*
%TD*%
D13*
%TO.C,C15*%
X119242651Y-90170000D03*
D11*
X114242651Y-90170000D03*
%TD*%
D12*
%TO.C,R8*%
X135890000Y-119400000D03*
X143510000Y-119400000D03*
%TD*%
D14*
%TO.C,U2*%
X123190000Y-68580000D03*
D11*
X123190000Y-71120000D03*
X123190000Y-73660000D03*
X123190000Y-76200000D03*
X130810000Y-76200000D03*
X130810000Y-73660000D03*
X130810000Y-71120000D03*
X130810000Y-68580000D03*
%TD*%
D12*
%TO.C,R15*%
X72009000Y-66294000D03*
X79629000Y-66294000D03*
%TD*%
%TO.C,R2*%
X110485000Y-80010000D03*
X118105000Y-80010000D03*
%TD*%
D15*
%TO.C,U4*%
X125730000Y-101600000D03*
D16*
X128270000Y-101600000D03*
X130810000Y-101600000D03*
%TD*%
D17*
%TO.C,J4*%
X72930000Y-81280000D03*
D18*
X74930000Y-81280000D03*
X76930000Y-81280000D03*
X78930000Y-81280000D03*
%TD*%
D12*
%TO.C,R6*%
X110485000Y-72390000D03*
X118105000Y-72390000D03*
%TD*%
D14*
%TO.C,SW1*%
X69850000Y-118110000D03*
D11*
X69850000Y-120650000D03*
X69850000Y-123190000D03*
X69850000Y-125730000D03*
X69850000Y-128270000D03*
X69850000Y-130810000D03*
X69850000Y-133350000D03*
X69850000Y-135890000D03*
X77470000Y-135890000D03*
X77470000Y-133350000D03*
X77470000Y-130810000D03*
X77470000Y-128270000D03*
X77470000Y-125730000D03*
X77470000Y-123190000D03*
X77470000Y-120650000D03*
X77470000Y-118110000D03*
%TD*%
%TO.C,C14*%
X142200000Y-127020000D03*
X137200000Y-127020000D03*
%TD*%
%TO.C,C3*%
X137195000Y-81280000D03*
X142195000Y-81280000D03*
%TD*%
%TO.C,C11*%
X124500000Y-114320000D03*
X129500000Y-114320000D03*
%TD*%
%TO.C,C6*%
X105410000Y-121900000D03*
X105410000Y-116900000D03*
%TD*%
%TO.C,C1*%
X116795000Y-63500000D03*
X111795000Y-63500000D03*
%TD*%
D12*
%TO.C,R12*%
X110490000Y-123210000D03*
X118110000Y-123210000D03*
%TD*%
D11*
%TO.C,C7*%
X105450000Y-127060000D03*
X105450000Y-132060000D03*
%TD*%
D12*
%TO.C,R1*%
X110485000Y-68580000D03*
X118105000Y-68580000D03*
%TD*%
D11*
%TO.C,C4*%
X142195000Y-76200000D03*
X137195000Y-76200000D03*
%TD*%
D12*
%TO.C,R7*%
X110490000Y-126993000D03*
X118110000Y-126993000D03*
%TD*%
D14*
%TO.C,U3*%
X123195000Y-119400000D03*
D11*
X123195000Y-121940000D03*
X123195000Y-124480000D03*
X123195000Y-127020000D03*
X130815000Y-127020000D03*
X130815000Y-124480000D03*
X130815000Y-121940000D03*
X130815000Y-119400000D03*
%TD*%
D19*
%TO.C,D1*%
X105410000Y-96520000D03*
D20*
X105410000Y-106680000D03*
%TD*%
D12*
%TO.C,R13*%
X110490000Y-130830000D03*
X118110000Y-130830000D03*
%TD*%
D19*
%TO.C,D4*%
X137160000Y-95250000D03*
D20*
X137160000Y-105410000D03*
%TD*%
D12*
%TO.C,R3*%
X135885000Y-68580000D03*
X143505000Y-68580000D03*
%TD*%
D19*
%TO.C,D2*%
X110490000Y-96520000D03*
D20*
X110490000Y-106680000D03*
%TD*%
D11*
%TO.C,C10*%
X129495000Y-81280000D03*
X124495000Y-81280000D03*
%TD*%
D21*
%TO.C,U1*%
X85393000Y-68619000D03*
X85393000Y-71159000D03*
X85393000Y-73699000D03*
X85393000Y-76239000D03*
X85393000Y-78779000D03*
X85393000Y-81319000D03*
X85393000Y-83859000D03*
X85393000Y-86399000D03*
X85393000Y-88939000D03*
X85393000Y-106719000D03*
X85393000Y-109259000D03*
X85393000Y-111799000D03*
X85393000Y-114339000D03*
X85393000Y-116879000D03*
X85393000Y-119419000D03*
X85393000Y-121959000D03*
X85393000Y-124499000D03*
X85393000Y-127039000D03*
X100633000Y-127039000D03*
X100633000Y-124499000D03*
X100633000Y-121959000D03*
X100633000Y-119419000D03*
X100633000Y-116879000D03*
X100633000Y-114339000D03*
X100633000Y-111799000D03*
X100633000Y-109259000D03*
X100633000Y-106719000D03*
X100633000Y-88939000D03*
X100633000Y-86399000D03*
X100633000Y-83859000D03*
X100633000Y-81319000D03*
X100633000Y-78779000D03*
X100633000Y-76239000D03*
X100633000Y-73699000D03*
X100633000Y-71159000D03*
X100633000Y-68619000D03*
%TD*%
D12*
%TO.C,R5*%
X110485000Y-76200000D03*
X118105000Y-76200000D03*
%TD*%
D22*
%TO.C,J3*%
X77470000Y-91440000D03*
D23*
X77470000Y-93980000D03*
X77470000Y-96520000D03*
X77470000Y-99060000D03*
X77470000Y-101600000D03*
X77470000Y-104140000D03*
X77470000Y-106680000D03*
X77470000Y-109220000D03*
%TD*%
D12*
%TO.C,R17*%
X71882000Y-74930000D03*
X79502000Y-74930000D03*
%TD*%
D11*
%TO.C,C9*%
X124495000Y-63500000D03*
X129495000Y-63500000D03*
%TD*%
D12*
%TO.C,R10*%
X115570000Y-97790000D03*
X115570000Y-105410000D03*
%TD*%
%TO.C,R16*%
X71882000Y-70612000D03*
X79502000Y-70612000D03*
%TD*%
%TO.C,R14*%
X110490000Y-119400000D03*
X118110000Y-119400000D03*
%TD*%
D11*
%TO.C,C5*%
X105410000Y-76160000D03*
X105410000Y-81160000D03*
%TD*%
D12*
%TO.C,R9*%
X119380000Y-105410000D03*
X119380000Y-97790000D03*
%TD*%
D24*
%TO.C,D3*%
X133350000Y-107950000D03*
D20*
X123190000Y-107950000D03*
%TD*%
D12*
%TO.C,R4*%
X135885000Y-72390000D03*
X143505000Y-72390000D03*
%TD*%
D11*
%TO.C,C13*%
X116800000Y-114320000D03*
X111800000Y-114320000D03*
%TD*%
%TO.C,C8*%
X137200000Y-132100000D03*
X142200000Y-132100000D03*
%TD*%
%TO.C,C12*%
X129500000Y-132100000D03*
X124500000Y-132100000D03*
%TD*%
D25*
%TO.C,J2*%
X144780000Y-98520000D03*
D26*
X144780000Y-100520000D03*
X144780000Y-102520000D03*
%TD*%
D27*
%TO.C,J1*%
X141020000Y-88950000D03*
X148640000Y-86410000D03*
X148640000Y-91490000D03*
%TD*%
M02*
