%TF.GenerationSoftware,KiCad,Pcbnew,10.0.1*%
%TF.CreationDate,2026-08-20T22:07:40-04:00*%
%TF.ProjectId,clock,636c6f63-6b2e-46b6-9963-61645f706362,rev?*%
%TF.SameCoordinates,Original*%
%TF.FileFunction,Copper,L2,Bot*%
%TF.FilePolarity,Positive*%
%FSLAX46Y46*%
G04 Gerber Fmt 4.6, Leading zero omitted, Abs format (unit mm)*
G04 Created by KiCad (PCBNEW 10.0.1) date 2026-08-20 22:07:40*
%MOMM*%
%LPD*%
G01*
G04 APERTURE LIST*
%TA.AperFunction,ComponentPad*%
%ADD10R,1.700000X1.700000*%
%TD*%
%TA.AperFunction,ComponentPad*%
%ADD11C,1.700000*%
%TD*%
%TA.AperFunction,ViaPad*%
%ADD12C,0.600000*%
%TD*%
G04 APERTURE END LIST*
D10*
%TO.P,J1,1,Pin_1_1*%
%TO.N,Net-(D2-A)*%
X138430000Y-76835000D03*
D11*
%TO.P,J1,7,Pin_7_7*%
%TO.N,Net-(J1-Pin_7)*%
X140970000Y-76835000D03*
%TO.P,J1,2,Pin_2_2*%
%TO.N,Net-(D1-A)*%
X138430000Y-79375000D03*
%TO.P,J1,8,Pin_8_8*%
%TO.N,Net-(J1-Pin_7)*%
X140970000Y-79375000D03*
%TO.P,J1,3,Pin_3_3*%
%TO.N,Net-(J1-Pin_3)*%
X138430000Y-81915000D03*
%TO.P,J1,9,Pin_9_9*%
%TO.N,unconnected-(J1-Pin_9-Pad9)*%
X140970000Y-81915000D03*
%TO.P,J1,4,Pin_4_4*%
%TO.N,Net-(J1-Pin_4)*%
X138430000Y-84455000D03*
%TO.P,J1,10,Pin_10_10*%
%TO.N,unconnected-(J1-Pin_10-Pad10)*%
X140970000Y-84455000D03*
%TO.P,J1,5,Pin_5_5*%
%TO.N,GND*%
X138430000Y-86995000D03*
%TO.P,J1,11,Pin_11_11*%
X140970000Y-86995000D03*
%TO.P,J1,6,Pin_6_6*%
%TO.N,Net-(J1-Pin_12)*%
X138430000Y-89535000D03*
%TO.P,J1,12,Pin_12_12*%
X140970000Y-89535000D03*
%TD*%
D12*
%TO.N,GND*%
X132588000Y-88646000D03*
X136906000Y-88392000D03*
X139700000Y-85852000D03*
X139700000Y-88138000D03*
X122682000Y-77470000D03*
X121666000Y-78486000D03*
X120396000Y-87884000D03*
X122936000Y-87884000D03*
X129286000Y-78994000D03*
X132588000Y-79502000D03*
X124460000Y-79248000D03*
X126492000Y-81280000D03*
X122428000Y-81280000D03*
X122428000Y-91440000D03*
X126492000Y-91440000D03*
X124460000Y-89408000D03*
X120650000Y-84455000D03*
X120650000Y-91440000D03*
X121666000Y-89154000D03*
X126492000Y-88900000D03*
X126492000Y-78740000D03*
X128270000Y-84455000D03*
X124460000Y-84455000D03*
X128270000Y-83185000D03*
X124460000Y-83185000D03*
X131445000Y-86360000D03*
X131445000Y-83185000D03*
X134620000Y-77470000D03*
X134620000Y-80010000D03*
X134620000Y-83185000D03*
X134620000Y-86360000D03*
X134620000Y-89535000D03*
X131445000Y-92075000D03*
X134620000Y-92075000D03*
X141605000Y-92075000D03*
X137795000Y-92075000D03*
X141605000Y-74295000D03*
X137795000Y-74295000D03*
X120650000Y-74295000D03*
%TD*%
%TA.AperFunction,Conductor*%
%TO.N,GND*%
G36*
X140504075Y-87187993D02*
G01*
X140569901Y-87302007D01*
X140662993Y-87395099D01*
X140777007Y-87460925D01*
X140840590Y-87477962D01*
X140208282Y-88110269D01*
X140208282Y-88110270D01*
X140262452Y-88149626D01*
X140262451Y-88149626D01*
X140271495Y-88154234D01*
X140322292Y-88202208D01*
X140339087Y-88270029D01*
X140316550Y-88336164D01*
X140271499Y-88375202D01*
X140262182Y-88379949D01*
X140090213Y-88504890D01*
X139939890Y-88655213D01*
X139814949Y-88827182D01*
X139810484Y-88835946D01*
X139762509Y-88886742D01*
X139694688Y-88903536D01*
X139628553Y-88880998D01*
X139589516Y-88835946D01*
X139585050Y-88827182D01*
X139460109Y-88655213D01*
X139309786Y-88504890D01*
X139137817Y-88379949D01*
X139128504Y-88375204D01*
X139077707Y-88327230D01*
X139060912Y-88259409D01*
X139083449Y-88193274D01*
X139128507Y-88154232D01*
X139137555Y-88149622D01*
X139191716Y-88110270D01*
X139191717Y-88110270D01*
X138559408Y-87477962D01*
X138622993Y-87460925D01*
X138737007Y-87395099D01*
X138830099Y-87302007D01*
X138895925Y-87187993D01*
X138912962Y-87124408D01*
X139545270Y-87756717D01*
X139545270Y-87756716D01*
X139584622Y-87702554D01*
X139589514Y-87692954D01*
X139637488Y-87642157D01*
X139705308Y-87625361D01*
X139771444Y-87647897D01*
X139810486Y-87692954D01*
X139815375Y-87702550D01*
X139854728Y-87756716D01*
X140487037Y-87124408D01*
X140504075Y-87187993D01*
G37*
%TD.AperFunction*%
%TA.AperFunction,Conductor*%
G36*
X139771444Y-85108999D02*
G01*
X139810486Y-85154056D01*
X139814951Y-85162820D01*
X139939890Y-85334786D01*
X140090213Y-85485109D01*
X140262179Y-85610048D01*
X140262181Y-85610049D01*
X140262184Y-85610051D01*
X140271493Y-85614794D01*
X140322290Y-85662766D01*
X140339087Y-85730587D01*
X140316552Y-85796722D01*
X140271505Y-85835760D01*
X140262446Y-85840376D01*
X140262440Y-85840380D01*
X140208282Y-85879727D01*
X140208282Y-85879728D01*
X140840591Y-86512037D01*
X140777007Y-86529075D01*
X140662993Y-86594901D01*
X140569901Y-86687993D01*
X140504075Y-86802007D01*
X140487037Y-86865591D01*
X139854728Y-86233282D01*
X139854727Y-86233282D01*
X139815380Y-86287440D01*
X139810483Y-86297051D01*
X139762506Y-86347845D01*
X139694684Y-86364638D01*
X139628550Y-86342098D01*
X139589516Y-86297048D01*
X139584626Y-86287452D01*
X139545270Y-86233282D01*
X139545269Y-86233282D01*
X138912962Y-86865590D01*
X138895925Y-86802007D01*
X138830099Y-86687993D01*
X138737007Y-86594901D01*
X138622993Y-86529075D01*
X138559409Y-86512037D01*
X139191716Y-85879728D01*
X139137547Y-85840373D01*
X139137547Y-85840372D01*
X139128500Y-85835763D01*
X139077706Y-85787788D01*
X139060912Y-85719966D01*
X139083451Y-85653832D01*
X139128508Y-85614793D01*
X139137816Y-85610051D01*
X139217007Y-85552515D01*
X139309786Y-85485109D01*
X139309788Y-85485106D01*
X139309792Y-85485104D01*
X139460104Y-85334792D01*
X139460106Y-85334788D01*
X139460109Y-85334786D01*
X139585048Y-85162820D01*
X139585047Y-85162820D01*
X139585051Y-85162816D01*
X139589514Y-85154054D01*
X139637488Y-85103259D01*
X139705308Y-85086463D01*
X139771444Y-85108999D01*
G37*
%TD.AperFunction*%
%TA.AperFunction,Conductor*%
G36*
X142516922Y-73526280D02*
G01*
X142533878Y-73528190D01*
X142607268Y-73536458D01*
X142634333Y-73542636D01*
X142713539Y-73570351D01*
X142738549Y-73582395D01*
X142809606Y-73627043D01*
X142831313Y-73644355D01*
X142890644Y-73703686D01*
X142907957Y-73725395D01*
X142952602Y-73796447D01*
X142964649Y-73821464D01*
X142992362Y-73900662D01*
X142998541Y-73927734D01*
X143008720Y-74018076D01*
X143009500Y-74031959D01*
X143009500Y-92973040D01*
X143008720Y-92986922D01*
X143008720Y-92986923D01*
X142998541Y-93077265D01*
X142992362Y-93104337D01*
X142964649Y-93183535D01*
X142952602Y-93208552D01*
X142907957Y-93279604D01*
X142890644Y-93301313D01*
X142831313Y-93360644D01*
X142809604Y-93377957D01*
X142738552Y-93422602D01*
X142713535Y-93434649D01*
X142634337Y-93462362D01*
X142607265Y-93468541D01*
X142516923Y-93478720D01*
X142503040Y-93479500D01*
X120386960Y-93479500D01*
X120373077Y-93478720D01*
X120282734Y-93468541D01*
X120255662Y-93462362D01*
X120176464Y-93434649D01*
X120151447Y-93422602D01*
X120080395Y-93377957D01*
X120058686Y-93360644D01*
X119999355Y-93301313D01*
X119982042Y-93279604D01*
X119937397Y-93208552D01*
X119925351Y-93183539D01*
X119897636Y-93104333D01*
X119891458Y-93077268D01*
X119881280Y-92986922D01*
X119880500Y-92973040D01*
X119880500Y-75937135D01*
X137079500Y-75937135D01*
X137079500Y-77732870D01*
X137079501Y-77732876D01*
X137085908Y-77792483D01*
X137136202Y-77927328D01*
X137136206Y-77927335D01*
X137222452Y-78042544D01*
X137222455Y-78042547D01*
X137337664Y-78128793D01*
X137337671Y-78128797D01*
X137469082Y-78177810D01*
X137525016Y-78219681D01*
X137549433Y-78285145D01*
X137534582Y-78353418D01*
X137513431Y-78381673D01*
X137399889Y-78495215D01*
X137274951Y-78667179D01*
X137178444Y-78856585D01*
X137112753Y-79058760D01*
X137079500Y-79268713D01*
X137079500Y-79481286D01*
X137112753Y-79691239D01*
X137178444Y-79893414D01*
X137274951Y-80082820D01*
X137399890Y-80254786D01*
X137550213Y-80405109D01*
X137722182Y-80530050D01*
X137730946Y-80534516D01*
X137781742Y-80582491D01*
X137798536Y-80650312D01*
X137775998Y-80716447D01*
X137730946Y-80755484D01*
X137722182Y-80759949D01*
X137550213Y-80884890D01*
X137399890Y-81035213D01*
X137274951Y-81207179D01*
X137178444Y-81396585D01*
X137112753Y-81598760D01*
X137079500Y-81808713D01*
X137079500Y-82021286D01*
X137112753Y-82231239D01*
X137178444Y-82433414D01*
X137274951Y-82622820D01*
X137399890Y-82794786D01*
X137550213Y-82945109D01*
X137722182Y-83070050D01*
X137730946Y-83074516D01*
X137781742Y-83122491D01*
X137798536Y-83190312D01*
X137775998Y-83256447D01*
X137730946Y-83295484D01*
X137722182Y-83299949D01*
X137550213Y-83424890D01*
X137399890Y-83575213D01*
X137274951Y-83747179D01*
X137178444Y-83936585D01*
X137112753Y-84138760D01*
X137079500Y-84348713D01*
X137079500Y-84561286D01*
X137112753Y-84771239D01*
X137178444Y-84973414D01*
X137274951Y-85162820D01*
X137399890Y-85334786D01*
X137550213Y-85485109D01*
X137722179Y-85610048D01*
X137722181Y-85610049D01*
X137722184Y-85610051D01*
X137731493Y-85614794D01*
X137782290Y-85662766D01*
X137799087Y-85730587D01*
X137776552Y-85796722D01*
X137731505Y-85835760D01*
X137722446Y-85840376D01*
X137722440Y-85840380D01*
X137668282Y-85879727D01*
X137668282Y-85879728D01*
X138300591Y-86512037D01*
X138237007Y-86529075D01*
X138122993Y-86594901D01*
X138029901Y-86687993D01*
X137964075Y-86802007D01*
X137947037Y-86865591D01*
X137314728Y-86233282D01*
X137314727Y-86233282D01*
X137275380Y-86287439D01*
X137178904Y-86476782D01*
X137113242Y-86678869D01*
X137113242Y-86678872D01*
X137080000Y-86888753D01*
X137080000Y-87101246D01*
X137113242Y-87311127D01*
X137113242Y-87311130D01*
X137178904Y-87513217D01*
X137275375Y-87702550D01*
X137314728Y-87756716D01*
X137947037Y-87124408D01*
X137964075Y-87187993D01*
X138029901Y-87302007D01*
X138122993Y-87395099D01*
X138237007Y-87460925D01*
X138300590Y-87477962D01*
X137668282Y-88110269D01*
X137668282Y-88110270D01*
X137722452Y-88149626D01*
X137722451Y-88149626D01*
X137731495Y-88154234D01*
X137782292Y-88202208D01*
X137799087Y-88270029D01*
X137776550Y-88336164D01*
X137731499Y-88375202D01*
X137722182Y-88379949D01*
X137550213Y-88504890D01*
X137399890Y-88655213D01*
X137274951Y-88827179D01*
X137178444Y-89016585D01*
X137112753Y-89218760D01*
X137079500Y-89428713D01*
X137079500Y-89641286D01*
X137112753Y-89851239D01*
X137178444Y-90053414D01*
X137274951Y-90242820D01*
X137399890Y-90414786D01*
X137550213Y-90565109D01*
X137722179Y-90690048D01*
X137722181Y-90690049D01*
X137722184Y-90690051D01*
X137911588Y-90786557D01*
X138113757Y-90852246D01*
X138323713Y-90885500D01*
X138323714Y-90885500D01*
X138536286Y-90885500D01*
X138536287Y-90885500D01*
X138746243Y-90852246D01*
X138948412Y-90786557D01*
X139137816Y-90690051D01*
X139159789Y-90674086D01*
X139309786Y-90565109D01*
X139309788Y-90565106D01*
X139309792Y-90565104D01*
X139460104Y-90414792D01*
X139460106Y-90414788D01*
X139460109Y-90414786D01*
X139585048Y-90242820D01*
X139585047Y-90242820D01*
X139585051Y-90242816D01*
X139589514Y-90234054D01*
X139637488Y-90183259D01*
X139705308Y-90166463D01*
X139771444Y-90188999D01*
X139810486Y-90234056D01*
X139814951Y-90242820D01*
X139939890Y-90414786D01*
X140090213Y-90565109D01*
X140262179Y-90690048D01*
X140262181Y-90690049D01*
X140262184Y-90690051D01*
X140451588Y-90786557D01*
X140653757Y-90852246D01*
X140863713Y-90885500D01*
X140863714Y-90885500D01*
X141076286Y-90885500D01*
X141076287Y-90885500D01*
X141286243Y-90852246D01*
X141488412Y-90786557D01*
X141677816Y-90690051D01*
X141699789Y-90674086D01*
X141849786Y-90565109D01*
X141849788Y-90565106D01*
X141849792Y-90565104D01*
X142000104Y-90414792D01*
X142000106Y-90414788D01*
X142000109Y-90414786D01*
X142125048Y-90242820D01*
X142125047Y-90242820D01*
X142125051Y-90242816D01*
X142221557Y-90053412D01*
X142287246Y-89851243D01*
X142320500Y-89641287D01*
X142320500Y-89428713D01*
X142287246Y-89218757D01*
X142221557Y-89016588D01*
X142125051Y-88827184D01*
X142125049Y-88827181D01*
X142125048Y-88827179D01*
X142000109Y-88655213D01*
X141849786Y-88504890D01*
X141677817Y-88379949D01*
X141668504Y-88375204D01*
X141617707Y-88327230D01*
X141600912Y-88259409D01*
X141623449Y-88193274D01*
X141668507Y-88154232D01*
X141677555Y-88149622D01*
X141731716Y-88110270D01*
X141731717Y-88110270D01*
X141099408Y-87477962D01*
X141162993Y-87460925D01*
X141277007Y-87395099D01*
X141370099Y-87302007D01*
X141435925Y-87187993D01*
X141452962Y-87124408D01*
X142085270Y-87756717D01*
X142085270Y-87756716D01*
X142124622Y-87702554D01*
X142221095Y-87513217D01*
X142286757Y-87311130D01*
X142286757Y-87311127D01*
X142320000Y-87101246D01*
X142320000Y-86888753D01*
X142286757Y-86678872D01*
X142286757Y-86678869D01*
X142221095Y-86476782D01*
X142124624Y-86287449D01*
X142085270Y-86233282D01*
X142085269Y-86233282D01*
X141452962Y-86865590D01*
X141435925Y-86802007D01*
X141370099Y-86687993D01*
X141277007Y-86594901D01*
X141162993Y-86529075D01*
X141099409Y-86512037D01*
X141731716Y-85879728D01*
X141677547Y-85840373D01*
X141677547Y-85840372D01*
X141668500Y-85835763D01*
X141617706Y-85787788D01*
X141600912Y-85719966D01*
X141623451Y-85653832D01*
X141668508Y-85614793D01*
X141677816Y-85610051D01*
X141757007Y-85552515D01*
X141849786Y-85485109D01*
X141849788Y-85485106D01*
X141849792Y-85485104D01*
X142000104Y-85334792D01*
X142000106Y-85334788D01*
X142000109Y-85334786D01*
X142125048Y-85162820D01*
X142125047Y-85162820D01*
X142125051Y-85162816D01*
X142221557Y-84973412D01*
X142287246Y-84771243D01*
X142320500Y-84561287D01*
X142320500Y-84348713D01*
X142287246Y-84138757D01*
X142221557Y-83936588D01*
X142125051Y-83747184D01*
X142125049Y-83747181D01*
X142125048Y-83747179D01*
X142000109Y-83575213D01*
X141849786Y-83424890D01*
X141677820Y-83299951D01*
X141677115Y-83299591D01*
X141669054Y-83295485D01*
X141618259Y-83247512D01*
X141601463Y-83179692D01*
X141623999Y-83113556D01*
X141669054Y-83074515D01*
X141677816Y-83070051D01*
X141699789Y-83054086D01*
X141849786Y-82945109D01*
X141849788Y-82945106D01*
X141849792Y-82945104D01*
X142000104Y-82794792D01*
X142000106Y-82794788D01*
X142000109Y-82794786D01*
X142125048Y-82622820D01*
X142125047Y-82622820D01*
X142125051Y-82622816D01*
X142221557Y-82433412D01*
X142287246Y-82231243D01*
X142320500Y-82021287D01*
X142320500Y-81808713D01*
X142287246Y-81598757D01*
X142221557Y-81396588D01*
X142125051Y-81207184D01*
X142125049Y-81207181D01*
X142125048Y-81207179D01*
X142000109Y-81035213D01*
X141849786Y-80884890D01*
X141677820Y-80759951D01*
X141677115Y-80759591D01*
X141669054Y-80755485D01*
X141618259Y-80707512D01*
X141601463Y-80639692D01*
X141623999Y-80573556D01*
X141669054Y-80534515D01*
X141677816Y-80530051D01*
X141699789Y-80514086D01*
X141849786Y-80405109D01*
X141849788Y-80405106D01*
X141849792Y-80405104D01*
X142000104Y-80254792D01*
X142000106Y-80254788D01*
X142000109Y-80254786D01*
X142125048Y-80082820D01*
X142125047Y-80082820D01*
X142125051Y-80082816D01*
X142221557Y-79893412D01*
X142287246Y-79691243D01*
X142320500Y-79481287D01*
X142320500Y-79268713D01*
X142287246Y-79058757D01*
X142221557Y-78856588D01*
X142125051Y-78667184D01*
X142125049Y-78667181D01*
X142125048Y-78667179D01*
X142000109Y-78495213D01*
X141849786Y-78344890D01*
X141677820Y-78219951D01*
X141677115Y-78219591D01*
X141669054Y-78215485D01*
X141618259Y-78167512D01*
X141601463Y-78099692D01*
X141623999Y-78033556D01*
X141669054Y-77994515D01*
X141677816Y-77990051D01*
X141764138Y-77927335D01*
X141849786Y-77865109D01*
X141849788Y-77865106D01*
X141849792Y-77865104D01*
X142000104Y-77714792D01*
X142000106Y-77714788D01*
X142000109Y-77714786D01*
X142125048Y-77542820D01*
X142125047Y-77542820D01*
X142125051Y-77542816D01*
X142221557Y-77353412D01*
X142287246Y-77151243D01*
X142320500Y-76941287D01*
X142320500Y-76728713D01*
X142287246Y-76518757D01*
X142221557Y-76316588D01*
X142125051Y-76127184D01*
X142125049Y-76127181D01*
X142125048Y-76127179D01*
X142000109Y-75955213D01*
X141849786Y-75804890D01*
X141677820Y-75679951D01*
X141488414Y-75583444D01*
X141488413Y-75583443D01*
X141488412Y-75583443D01*
X141286243Y-75517754D01*
X141286241Y-75517753D01*
X141286240Y-75517753D01*
X141124957Y-75492208D01*
X141076287Y-75484500D01*
X140863713Y-75484500D01*
X140815042Y-75492208D01*
X140653760Y-75517753D01*
X140451585Y-75583444D01*
X140262179Y-75679951D01*
X140090215Y-75804889D01*
X139976673Y-75918431D01*
X139915350Y-75951915D01*
X139845658Y-75946931D01*
X139789725Y-75905059D01*
X139772810Y-75874082D01*
X139723797Y-75742671D01*
X139723793Y-75742664D01*
X139637547Y-75627455D01*
X139637544Y-75627452D01*
X139522335Y-75541206D01*
X139522328Y-75541202D01*
X139387482Y-75490908D01*
X139387483Y-75490908D01*
X139327883Y-75484501D01*
X139327881Y-75484500D01*
X139327873Y-75484500D01*
X139327864Y-75484500D01*
X137532129Y-75484500D01*
X137532123Y-75484501D01*
X137472516Y-75490908D01*
X137337671Y-75541202D01*
X137337664Y-75541206D01*
X137222455Y-75627452D01*
X137222452Y-75627455D01*
X137136206Y-75742664D01*
X137136202Y-75742671D01*
X137085908Y-75877517D01*
X137079501Y-75937116D01*
X137079500Y-75937135D01*
X119880500Y-75937135D01*
X119880500Y-74031959D01*
X119881280Y-74018077D01*
X119881320Y-74017717D01*
X119891459Y-73927727D01*
X119897635Y-73900668D01*
X119925353Y-73821457D01*
X119937393Y-73796453D01*
X119982046Y-73725389D01*
X119999351Y-73703690D01*
X120058690Y-73644351D01*
X120080389Y-73627046D01*
X120151453Y-73582393D01*
X120176457Y-73570353D01*
X120255668Y-73542635D01*
X120282729Y-73536459D01*
X120358753Y-73527893D01*
X120373078Y-73526280D01*
X120386960Y-73525500D01*
X120445892Y-73525500D01*
X142444108Y-73525500D01*
X142503040Y-73525500D01*
X142516922Y-73526280D01*
G37*
%TD.AperFunction*%
%TD*%
M02*
