M48
; DRILL file KiCad 10.0.1 date 2026-08-20T22:07:43
; FORMAT={-:-/ absolute / metric / decimal}
; #@! TF.CreationDate,2026-08-20T22:07:43-04:00
; #@! TF.GenerationSoftware,Kicad,Pcbnew,10.0.1
; #@! TF.FileFunction,Plated,1,2,PTH
FMAT,2
METRIC
; #@! TA.AperFunction,Plated,PTH,ViaDrill
T1C0.300
; #@! TA.AperFunction,Plated,PTH,ComponentDrill
T2C1.000
%
G90
G05
T1
X120.396Y-87.884
X120.65Y-74.295
X120.65Y-84.455
X120.65Y-91.44
X121.666Y-78.486
X121.666Y-89.154
X122.428Y-81.28
X122.428Y-91.44
X122.682Y-77.47
X122.936Y-87.884
X124.46Y-79.248
X124.46Y-83.185
X124.46Y-84.455
X124.46Y-89.408
X126.492Y-78.74
X126.492Y-81.28
X126.492Y-88.9
X126.492Y-91.44
X128.27Y-83.185
X128.27Y-84.455
X129.286Y-78.994
X131.445Y-83.185
X131.445Y-86.36
X131.445Y-92.075
X132.588Y-79.502
X132.588Y-88.646
X134.62Y-77.47
X134.62Y-80.01
X134.62Y-83.185
X134.62Y-86.36
X134.62Y-89.535
X134.62Y-92.075
X136.906Y-88.392
X137.795Y-74.295
X137.795Y-92.075
X139.7Y-85.852
X139.7Y-88.138
X141.605Y-74.295
X141.605Y-92.075
T2
X138.43Y-76.835
X138.43Y-79.375
X138.43Y-81.915
X138.43Y-84.455
X138.43Y-86.995
X138.43Y-89.535
X140.97Y-76.835
X140.97Y-79.375
X140.97Y-81.915
X140.97Y-84.455
X140.97Y-86.995
X140.97Y-89.535
M30
