%TF.GenerationSoftware,KiCad,Pcbnew,10.0.1*%
%TF.CreationDate,2026-08-20T22:07:40-04:00*%
%TF.ProjectId,clock,636c6f63-6b2e-46b6-9963-61645f706362,rev?*%
%TF.SameCoordinates,Original*%
%TF.FileFunction,Copper,L1,Top*%
%TF.FilePolarity,Positive*%
%FSLAX46Y46*%
G04 Gerber Fmt 4.6, Leading zero omitted, Abs format (unit mm)*
G04 Created by KiCad (PCBNEW 10.0.1) date 2026-08-20 22:07:40*
%MOMM*%
%LPD*%
G01*
G04 APERTURE LIST*
G04 Aperture macros list*
%AMRoundRect*
0 Rectangle with rounded corners*
0 $1 Rounding radius*
0 $2 $3 $4 $5 $6 $7 $8 $9 X,Y pos of 4 corners*
0 Add a 4 corners polygon primitive as box body*
4,1,4,$2,$3,$4,$5,$6,$7,$8,$9,$2,$3,0*
0 Add four circle primitives for the rounded corners*
1,1,$1+$1,$2,$3*
1,1,$1+$1,$4,$5*
1,1,$1+$1,$6,$7*
1,1,$1+$1,$8,$9*
0 Add four rect primitives between the rounded corners*
20,1,$1+$1,$2,$3,$4,$5,0*
20,1,$1+$1,$4,$5,$6,$7,0*
20,1,$1+$1,$6,$7,$8,$9,0*
20,1,$1+$1,$8,$9,$2,$3,0*%
G04 Aperture macros list end*
%TA.AperFunction,SMDPad,CuDef*%
%ADD10R,2.000000X1.800000*%
%TD*%
%TA.AperFunction,SMDPad,CuDef*%
%ADD11RoundRect,0.237500X-0.237500X0.300000X-0.237500X-0.300000X0.237500X-0.300000X0.237500X0.300000X0*%
%TD*%
%TA.AperFunction,SMDPad,CuDef*%
%ADD12RoundRect,0.218750X0.256250X-0.218750X0.256250X0.218750X-0.256250X0.218750X-0.256250X-0.218750X0*%
%TD*%
%TA.AperFunction,ComponentPad*%
%ADD13R,1.700000X1.700000*%
%TD*%
%TA.AperFunction,ComponentPad*%
%ADD14C,1.700000*%
%TD*%
%TA.AperFunction,ViaPad*%
%ADD15C,0.600000*%
%TD*%
%TA.AperFunction,Conductor*%
%ADD16C,0.200000*%
%TD*%
G04 APERTURE END LIST*
D10*
%TO.P,Y1,1,OE_1*%
%TO.N,Net-(D1-A)*%
X124505000Y-76200000D03*
%TO.P,Y1,2,GND_2*%
%TO.N,GND*%
X124505000Y-81280000D03*
%TO.P,Y1,3,OUT_3*%
%TO.N,Net-(J1-Pin_3)*%
X128905000Y-81280000D03*
%TO.P,Y1,4,VDD_4*%
%TO.N,Net-(J1-Pin_12)*%
X128905000Y-76200000D03*
%TD*%
D11*
%TO.P,C2,2*%
%TO.N,GND*%
X131150000Y-89762500D03*
%TO.P,C2,1*%
%TO.N,Net-(J1-Pin_12)*%
X131150000Y-88037500D03*
%TD*%
D12*
%TO.P,D1,2,A_2*%
%TO.N,Net-(D1-A)*%
X121625000Y-75895000D03*
%TO.P,D1,1,K_1*%
%TO.N,GND*%
X121625000Y-77470000D03*
%TD*%
%TO.P,D2,2,A_2*%
%TO.N,Net-(D2-A)*%
X121625000Y-86207500D03*
%TO.P,D2,1,K_1*%
%TO.N,GND*%
X121625000Y-87782500D03*
%TD*%
D11*
%TO.P,C1,2*%
%TO.N,GND*%
X131150000Y-79602500D03*
%TO.P,C1,1*%
%TO.N,Net-(J1-Pin_12)*%
X131150000Y-77877500D03*
%TD*%
D10*
%TO.P,Y2,1,OE_1*%
%TO.N,Net-(D2-A)*%
X124505000Y-86360000D03*
%TO.P,Y2,2,GND_2*%
%TO.N,GND*%
X124505000Y-91440000D03*
%TO.P,Y2,3,OUT_3*%
%TO.N,Net-(J1-Pin_4)*%
X128905000Y-91440000D03*
%TO.P,Y2,4,VDD_4*%
%TO.N,Net-(J1-Pin_12)*%
X128905000Y-86360000D03*
%TD*%
D13*
%TO.P,J1,1,Pin_1_1*%
%TO.N,Net-(D2-A)*%
X138430000Y-76835000D03*
D14*
%TO.P,J1,7,Pin_7_7*%
%TO.N,Net-(J1-Pin_7)*%
X140970000Y-76835000D03*
%TO.P,J1,2,Pin_2_2*%
%TO.N,Net-(D1-A)*%
X138430000Y-79375000D03*
%TO.P,J1,8,Pin_8_8*%
%TO.N,Net-(J1-Pin_7)*%
X140970000Y-79375000D03*
%TO.P,J1,3,Pin_3_3*%
%TO.N,Net-(J1-Pin_3)*%
X138430000Y-81915000D03*
%TO.P,J1,9,Pin_9_9*%
%TO.N,unconnected-(J1-Pin_9-Pad9)*%
X140970000Y-81915000D03*
%TO.P,J1,4,Pin_4_4*%
%TO.N,Net-(J1-Pin_4)*%
X138430000Y-84455000D03*
%TO.P,J1,10,Pin_10_10*%
%TO.N,unconnected-(J1-Pin_10-Pad10)*%
X140970000Y-84455000D03*
%TO.P,J1,5,Pin_5_5*%
%TO.N,GND*%
X138430000Y-86995000D03*
%TO.P,J1,11,Pin_11_11*%
X140970000Y-86995000D03*
%TO.P,J1,6,Pin_6_6*%
%TO.N,Net-(J1-Pin_12)*%
X138430000Y-89535000D03*
%TO.P,J1,12,Pin_12_12*%
X140970000Y-89535000D03*
%TD*%
D15*
%TO.N,GND*%
X132588000Y-88646000D03*
X136906000Y-88392000D03*
X139700000Y-85852000D03*
X139700000Y-88138000D03*
X122682000Y-77470000D03*
X121666000Y-78486000D03*
X120396000Y-87884000D03*
X122936000Y-87884000D03*
X129286000Y-78994000D03*
X132588000Y-79502000D03*
X124460000Y-79248000D03*
X126492000Y-81280000D03*
X122428000Y-81280000D03*
X122428000Y-91440000D03*
X126492000Y-91440000D03*
X124460000Y-89408000D03*
X120650000Y-84455000D03*
X120650000Y-91440000D03*
X121666000Y-89154000D03*
X126492000Y-88900000D03*
X126492000Y-78740000D03*
X128270000Y-84455000D03*
X124460000Y-84455000D03*
X128270000Y-83185000D03*
X124460000Y-83185000D03*
X131445000Y-86360000D03*
X131445000Y-83185000D03*
X134620000Y-77470000D03*
X134620000Y-80010000D03*
X134620000Y-83185000D03*
X134620000Y-86360000D03*
X134620000Y-89535000D03*
X131445000Y-92075000D03*
X134620000Y-92075000D03*
X141605000Y-92075000D03*
X137795000Y-92075000D03*
X141605000Y-74295000D03*
X137795000Y-74295000D03*
X120650000Y-74295000D03*
%TD*%
%TO.N,GND*%
D16*
X131471500Y-89762500D02*
X132588000Y-88646000D01*
X131150000Y-89762500D02*
X131471500Y-89762500D01*
%TO.N,Net-(J1-Pin_12)*%
X138430000Y-89535000D02*
X140970000Y-89535000D01*
X142120000Y-83820000D02*
X141605000Y-83305000D01*
X140970000Y-89535000D02*
X142120000Y-88385000D01*
X142120000Y-88385000D02*
X142120000Y-83820000D01*
X135882500Y-83305000D02*
X141605000Y-83305000D01*
X131150000Y-88037500D02*
X135882500Y-83305000D01*
%TO.N,Net-(D2-A)*%
X136195000Y-74600000D02*
X138430000Y-76835000D01*
X120850000Y-75455314D02*
X121705314Y-74600000D01*
X120850000Y-82705000D02*
X120850000Y-75455314D01*
X121705314Y-74600000D02*
X136195000Y-74600000D01*
X124505000Y-86360000D02*
X120850000Y-82705000D01*
%TO.N,Net-(J1-Pin_3)*%
X130175000Y-81915000D02*
X138430000Y-81915000D01*
X129540000Y-81280000D02*
X130175000Y-81915000D01*
X128905000Y-81280000D02*
X129540000Y-81280000D01*
%TO.N,Net-(J1-Pin_7)*%
X140970000Y-76835000D02*
X140970000Y-79375000D01*
%TO.N,Net-(D1-A)*%
X125705000Y-75000000D02*
X134055000Y-75000000D01*
X124505000Y-76200000D02*
X125705000Y-75000000D01*
X134055000Y-75000000D02*
X138430000Y-79375000D01*
%TO.N,Net-(J1-Pin_4)*%
X131445000Y-91440000D02*
X138430000Y-84455000D01*
X128905000Y-91440000D02*
X131445000Y-91440000D01*
%TO.N,Net-(D2-A)*%
X121625000Y-86207500D02*
X124352500Y-86207500D01*
X124352500Y-86207500D02*
X124505000Y-86360000D01*
%TO.N,Net-(J1-Pin_12)*%
X128905000Y-76200000D02*
X130582500Y-77877500D01*
X130582500Y-88037500D02*
X131150000Y-88037500D01*
X130582500Y-77877500D02*
X131150000Y-77877500D01*
X128905000Y-86360000D02*
X130582500Y-88037500D01*
%TO.N,GND*%
X124505000Y-91440000D02*
X124482500Y-91417500D01*
%TO.N,Net-(D1-A)*%
X121625000Y-75895000D02*
X124200000Y-75895000D01*
X124200000Y-75895000D02*
X124505000Y-76200000D01*
%TO.N,Net-(J1-Pin_12)*%
X127605000Y-77500000D02*
X127605000Y-85060000D01*
X128905000Y-76200000D02*
X127605000Y-77500000D01*
X127605000Y-85060000D02*
X128905000Y-86360000D01*
%TD*%
%TA.AperFunction,Conductor*%
%TO.N,GND*%
G36*
X137084912Y-83925185D02*
G01*
X137130667Y-83977989D01*
X137140611Y-84047147D01*
X137135804Y-84067818D01*
X137112753Y-84138760D01*
X137079500Y-84348713D01*
X137079500Y-84561286D01*
X137112754Y-84771244D01*
X137112754Y-84771247D01*
X137126491Y-84813523D01*
X137128486Y-84883364D01*
X137096241Y-84939522D01*
X132336680Y-89699084D01*
X132275357Y-89732569D01*
X132205665Y-89727585D01*
X132149732Y-89685713D01*
X132125315Y-89620249D01*
X132124999Y-89611403D01*
X132124999Y-89413360D01*
X132124998Y-89413345D01*
X132114680Y-89312347D01*
X132060453Y-89148699D01*
X132060448Y-89148688D01*
X131969947Y-89001965D01*
X131969944Y-89001961D01*
X131956017Y-88988034D01*
X131922532Y-88926711D01*
X131927516Y-88857019D01*
X131956017Y-88812672D01*
X131970340Y-88798350D01*
X132060908Y-88651516D01*
X132115174Y-88487753D01*
X132125500Y-88386677D01*
X132125499Y-87962595D01*
X132145183Y-87895557D01*
X132161813Y-87874920D01*
X136094917Y-83941819D01*
X136156240Y-83908334D01*
X136182598Y-83905500D01*
X137017873Y-83905500D01*
X137084912Y-83925185D01*
G37*
%TD.AperFunction*%
%TA.AperFunction,Conductor*%
G36*
X140504075Y-87187993D02*
G01*
X140569901Y-87302007D01*
X140662993Y-87395099D01*
X140777007Y-87460925D01*
X140840589Y-87477962D01*
X140208282Y-88110269D01*
X140208282Y-88110270D01*
X140262452Y-88149626D01*
X140262451Y-88149626D01*
X140271495Y-88154234D01*
X140322292Y-88202208D01*
X140339087Y-88270029D01*
X140316550Y-88336164D01*
X140271499Y-88375202D01*
X140262182Y-88379949D01*
X140090213Y-88504890D01*
X139939890Y-88655213D01*
X139814949Y-88827182D01*
X139810484Y-88835946D01*
X139762509Y-88886742D01*
X139694688Y-88903536D01*
X139628553Y-88880998D01*
X139589516Y-88835946D01*
X139585050Y-88827182D01*
X139460109Y-88655213D01*
X139309786Y-88504890D01*
X139137817Y-88379949D01*
X139128504Y-88375204D01*
X139077707Y-88327230D01*
X139060912Y-88259409D01*
X139083449Y-88193274D01*
X139128507Y-88154232D01*
X139137555Y-88149622D01*
X139191716Y-88110270D01*
X139191717Y-88110270D01*
X138559408Y-87477962D01*
X138622993Y-87460925D01*
X138737007Y-87395099D01*
X138830099Y-87302007D01*
X138895925Y-87187993D01*
X138912962Y-87124408D01*
X139545270Y-87756717D01*
X139545270Y-87756716D01*
X139584622Y-87702554D01*
X139589514Y-87692954D01*
X139637488Y-87642157D01*
X139705308Y-87625361D01*
X139771444Y-87647897D01*
X139810486Y-87692954D01*
X139815375Y-87702550D01*
X139854728Y-87756716D01*
X140487037Y-87124408D01*
X140504075Y-87187993D01*
G37*
%TD.AperFunction*%
%TA.AperFunction,Conductor*%
G36*
X135653219Y-82535185D02*
G01*
X135698974Y-82587989D01*
X135708918Y-82657147D01*
X135679893Y-82720703D01*
X135648179Y-82746887D01*
X135513790Y-82824475D01*
X135513782Y-82824481D01*
X131375082Y-86963181D01*
X131313759Y-86996666D01*
X131287401Y-86999500D01*
X130863330Y-86999500D01*
X130863312Y-86999501D01*
X130762247Y-87009825D01*
X130598484Y-87064092D01*
X130598474Y-87064097D01*
X130595242Y-87066091D01*
X130592716Y-87066781D01*
X130591936Y-87067146D01*
X130591873Y-87067012D01*
X130566709Y-87073897D01*
X130538994Y-87084235D01*
X130533386Y-87083015D01*
X130527849Y-87084530D01*
X130499620Y-87075669D01*
X130470721Y-87069383D01*
X130464316Y-87064588D01*
X130461186Y-87063606D01*
X130442467Y-87048232D01*
X130441818Y-87047583D01*
X130408333Y-86986260D01*
X130405499Y-86959902D01*
X130405499Y-85412129D01*
X130405498Y-85412123D01*
X130399091Y-85352516D01*
X130348797Y-85217671D01*
X130348793Y-85217664D01*
X130262547Y-85102455D01*
X130262544Y-85102452D01*
X130147335Y-85016206D01*
X130147328Y-85016202D01*
X130012482Y-84965908D01*
X130012483Y-84965908D01*
X129952883Y-84959501D01*
X129952881Y-84959500D01*
X129952873Y-84959500D01*
X129952865Y-84959500D01*
X128405098Y-84959500D01*
X128375657Y-84950855D01*
X128345671Y-84944332D01*
X128340655Y-84940577D01*
X128338059Y-84939815D01*
X128317417Y-84923181D01*
X128241819Y-84847583D01*
X128208334Y-84786260D01*
X128205500Y-84759902D01*
X128205500Y-82804499D01*
X128225185Y-82737460D01*
X128277989Y-82691705D01*
X128329500Y-82680499D01*
X129952871Y-82680499D01*
X129952872Y-82680499D01*
X130012483Y-82674091D01*
X130147331Y-82623796D01*
X130195163Y-82587989D01*
X130258956Y-82540234D01*
X130324420Y-82515816D01*
X130333267Y-82515500D01*
X135586180Y-82515500D01*
X135653219Y-82535185D01*
G37*
%TD.AperFunction*%
%TA.AperFunction,Conductor*%
G36*
X139771444Y-85108999D02*
G01*
X139810486Y-85154056D01*
X139814951Y-85162820D01*
X139939890Y-85334786D01*
X140090213Y-85485109D01*
X140262179Y-85610048D01*
X140262181Y-85610049D01*
X140262184Y-85610051D01*
X140271493Y-85614794D01*
X140322290Y-85662766D01*
X140339087Y-85730587D01*
X140316552Y-85796722D01*
X140271505Y-85835760D01*
X140262446Y-85840376D01*
X140262440Y-85840380D01*
X140208282Y-85879727D01*
X140208282Y-85879728D01*
X140840591Y-86512037D01*
X140777007Y-86529075D01*
X140662993Y-86594901D01*
X140569901Y-86687993D01*
X140504075Y-86802007D01*
X140487037Y-86865591D01*
X139854728Y-86233282D01*
X139854727Y-86233282D01*
X139815380Y-86287440D01*
X139810483Y-86297051D01*
X139762506Y-86347845D01*
X139694684Y-86364638D01*
X139628550Y-86342098D01*
X139589516Y-86297048D01*
X139584626Y-86287452D01*
X139545270Y-86233282D01*
X139545269Y-86233282D01*
X138912962Y-86865590D01*
X138895925Y-86802007D01*
X138830099Y-86687993D01*
X138737007Y-86594901D01*
X138622993Y-86529075D01*
X138559408Y-86512037D01*
X139191716Y-85879728D01*
X139137547Y-85840373D01*
X139137547Y-85840372D01*
X139128500Y-85835763D01*
X139077706Y-85787788D01*
X139060912Y-85719966D01*
X139083451Y-85653832D01*
X139128508Y-85614793D01*
X139137816Y-85610051D01*
X139234773Y-85539608D01*
X139309786Y-85485109D01*
X139309788Y-85485106D01*
X139309792Y-85485104D01*
X139460104Y-85334792D01*
X139460106Y-85334788D01*
X139460109Y-85334786D01*
X139585048Y-85162820D01*
X139585047Y-85162820D01*
X139585051Y-85162816D01*
X139589514Y-85154054D01*
X139637488Y-85103259D01*
X139705308Y-85086463D01*
X139771444Y-85108999D01*
G37*
%TD.AperFunction*%
%TA.AperFunction,Conductor*%
G36*
X133821942Y-75620185D02*
G01*
X133842584Y-75636819D01*
X137096241Y-78890476D01*
X137129726Y-78951799D01*
X137126492Y-79016473D01*
X137112753Y-79058757D01*
X137081934Y-79253345D01*
X137079500Y-79268713D01*
X137079500Y-79481287D01*
X137112754Y-79691243D01*
X137174085Y-79880000D01*
X137178444Y-79893414D01*
X137274951Y-80082820D01*
X137399890Y-80254786D01*
X137550213Y-80405109D01*
X137722182Y-80530050D01*
X137730946Y-80534516D01*
X137781742Y-80582491D01*
X137798536Y-80650312D01*
X137775998Y-80716447D01*
X137730946Y-80755484D01*
X137722182Y-80759949D01*
X137550213Y-80884890D01*
X137399890Y-81035213D01*
X137274948Y-81207184D01*
X137274947Y-81207185D01*
X137254765Y-81246795D01*
X137206791Y-81297591D01*
X137144281Y-81314500D01*
X130529499Y-81314500D01*
X130462460Y-81294815D01*
X130416705Y-81242011D01*
X130405499Y-81190500D01*
X130405499Y-80678461D01*
X130425184Y-80611422D01*
X130477988Y-80565667D01*
X130547146Y-80555723D01*
X130594603Y-80572927D01*
X130598694Y-80575450D01*
X130598699Y-80575453D01*
X130762347Y-80629680D01*
X130863352Y-80639999D01*
X130900000Y-80639999D01*
X131400000Y-80639999D01*
X131436640Y-80639999D01*
X131436654Y-80639998D01*
X131537652Y-80629680D01*
X131701300Y-80575453D01*
X131701311Y-80575448D01*
X131848034Y-80484947D01*
X131848038Y-80484944D01*
X131969944Y-80363038D01*
X131969947Y-80363034D01*
X132060448Y-80216311D01*
X132060453Y-80216300D01*
X132114680Y-80052652D01*
X132124999Y-79951654D01*
X132125000Y-79951641D01*
X132125000Y-79852500D01*
X131400000Y-79852500D01*
X131400000Y-80639999D01*
X130900000Y-80639999D01*
X130900000Y-79852500D01*
X130175000Y-79852500D01*
X130162867Y-79864633D01*
X130101544Y-79898117D01*
X130031857Y-79893134D01*
X130012484Y-79885909D01*
X130012483Y-79885908D01*
X129952883Y-79879501D01*
X129952881Y-79879500D01*
X129952873Y-79879500D01*
X129952865Y-79879500D01*
X128329500Y-79879500D01*
X128262461Y-79859815D01*
X128216706Y-79807011D01*
X128205500Y-79755500D01*
X128205500Y-77800097D01*
X128214144Y-77770656D01*
X128220668Y-77740670D01*
X128224422Y-77735654D01*
X128225185Y-77733058D01*
X128241819Y-77712416D01*
X128317417Y-77636818D01*
X128378740Y-77603333D01*
X128405098Y-77600499D01*
X129404902Y-77600499D01*
X129471941Y-77620184D01*
X129492583Y-77636818D01*
X130097639Y-78241874D01*
X130097649Y-78241885D01*
X130101979Y-78246215D01*
X130101980Y-78246216D01*
X130164694Y-78308930D01*
X130194718Y-78357606D01*
X130239090Y-78491512D01*
X130239092Y-78491516D01*
X130329659Y-78638349D01*
X130329661Y-78638351D01*
X130343982Y-78652672D01*
X130377467Y-78713995D01*
X130372483Y-78783687D01*
X130343985Y-78828032D01*
X130330052Y-78841965D01*
X130239551Y-78988688D01*
X130239546Y-78988699D01*
X130185319Y-79152347D01*
X130175000Y-79253345D01*
X130175000Y-79352500D01*
X132124999Y-79352500D01*
X132124999Y-79253360D01*
X132124998Y-79253345D01*
X132114680Y-79152347D01*
X132060453Y-78988699D01*
X132060448Y-78988688D01*
X131969947Y-78841965D01*
X131969944Y-78841961D01*
X131956017Y-78828034D01*
X131922532Y-78766711D01*
X131927516Y-78697019D01*
X131956017Y-78652672D01*
X131970340Y-78638350D01*
X132060908Y-78491516D01*
X132115174Y-78327753D01*
X132125500Y-78226677D01*
X132125499Y-77528324D01*
X132115174Y-77427247D01*
X132060908Y-77263484D01*
X131970340Y-77116650D01*
X131848350Y-76994660D01*
X131732195Y-76923015D01*
X131701518Y-76904093D01*
X131701513Y-76904091D01*
X131700049Y-76903606D01*
X131537753Y-76849826D01*
X131537751Y-76849825D01*
X131436678Y-76839500D01*
X130863330Y-76839500D01*
X130863312Y-76839501D01*
X130762247Y-76849825D01*
X130598484Y-76904092D01*
X130598474Y-76904097D01*
X130595242Y-76906091D01*
X130592716Y-76906781D01*
X130591936Y-76907146D01*
X130591873Y-76907012D01*
X130566709Y-76913897D01*
X130538994Y-76924235D01*
X130533386Y-76923015D01*
X130527849Y-76924530D01*
X130499620Y-76915669D01*
X130470721Y-76909383D01*
X130464316Y-76904588D01*
X130461186Y-76903606D01*
X130442467Y-76888232D01*
X130441818Y-76887583D01*
X130408333Y-76826260D01*
X130405499Y-76799902D01*
X130405499Y-75724500D01*
X130425184Y-75657461D01*
X130477988Y-75611706D01*
X130529499Y-75600500D01*
X133754903Y-75600500D01*
X133821942Y-75620185D01*
G37*
%TD.AperFunction*%
%TA.AperFunction,Conductor*%
G36*
X142516922Y-73526280D02*
G01*
X142533878Y-73528190D01*
X142607268Y-73536458D01*
X142634333Y-73542636D01*
X142713539Y-73570351D01*
X142738549Y-73582395D01*
X142809606Y-73627043D01*
X142831313Y-73644355D01*
X142890644Y-73703686D01*
X142907957Y-73725395D01*
X142952602Y-73796447D01*
X142964649Y-73821464D01*
X142992362Y-73900662D01*
X142998541Y-73927734D01*
X143008720Y-74018076D01*
X143009500Y-74031959D01*
X143009500Y-92973040D01*
X143008720Y-92986923D01*
X142998541Y-93077265D01*
X142992362Y-93104337D01*
X142964649Y-93183535D01*
X142952602Y-93208552D01*
X142907957Y-93279604D01*
X142890644Y-93301313D01*
X142831313Y-93360644D01*
X142809604Y-93377957D01*
X142738552Y-93422602D01*
X142713535Y-93434649D01*
X142634337Y-93462362D01*
X142607265Y-93468541D01*
X142516923Y-93478720D01*
X142503040Y-93479500D01*
X120386960Y-93479500D01*
X120373077Y-93478720D01*
X120282734Y-93468541D01*
X120255662Y-93462362D01*
X120176464Y-93434649D01*
X120151447Y-93422602D01*
X120080395Y-93377957D01*
X120058686Y-93360644D01*
X119999355Y-93301313D01*
X119982042Y-93279604D01*
X119937397Y-93208552D01*
X119925351Y-93183539D01*
X119897636Y-93104333D01*
X119891458Y-93077268D01*
X119881280Y-92986922D01*
X119880500Y-92973040D01*
X119880500Y-92387844D01*
X123005000Y-92387844D01*
X123011401Y-92447372D01*
X123011403Y-92447379D01*
X123061645Y-92582086D01*
X123061649Y-92582093D01*
X123147809Y-92697187D01*
X123147812Y-92697190D01*
X123262906Y-92783350D01*
X123262913Y-92783354D01*
X123397620Y-92833596D01*
X123397627Y-92833598D01*
X123457155Y-92839999D01*
X123457172Y-92840000D01*
X124255000Y-92840000D01*
X124755000Y-92840000D01*
X125552828Y-92840000D01*
X125552844Y-92839999D01*
X125612372Y-92833598D01*
X125612379Y-92833596D01*
X125747086Y-92783354D01*
X125747093Y-92783350D01*
X125862187Y-92697190D01*
X125862190Y-92697187D01*
X125948350Y-92582093D01*
X125948354Y-92582086D01*
X125998596Y-92447379D01*
X125998598Y-92447372D01*
X126004999Y-92387844D01*
X126005000Y-92387827D01*
X126005000Y-91690000D01*
X124755000Y-91690000D01*
X124755000Y-92840000D01*
X124255000Y-92840000D01*
X124255000Y-91690000D01*
X123005000Y-91690000D01*
X123005000Y-92387844D01*
X119880500Y-92387844D01*
X119880500Y-90492155D01*
X123005000Y-90492155D01*
X123005000Y-91190000D01*
X124255000Y-91190000D01*
X124755000Y-91190000D01*
X126005000Y-91190000D01*
X126005000Y-90492172D01*
X126004999Y-90492155D01*
X125998598Y-90432627D01*
X125998596Y-90432620D01*
X125948354Y-90297913D01*
X125948350Y-90297906D01*
X125862190Y-90182812D01*
X125862187Y-90182809D01*
X125747093Y-90096649D01*
X125747086Y-90096645D01*
X125612379Y-90046403D01*
X125612372Y-90046401D01*
X125552844Y-90040000D01*
X124755000Y-90040000D01*
X124755000Y-91190000D01*
X124255000Y-91190000D01*
X124255000Y-90040000D01*
X123457155Y-90040000D01*
X123397627Y-90046401D01*
X123397620Y-90046403D01*
X123262913Y-90096645D01*
X123262906Y-90096649D01*
X123147812Y-90182809D01*
X123147809Y-90182812D01*
X123061649Y-90297906D01*
X123061645Y-90297913D01*
X123011403Y-90432620D01*
X123011401Y-90432627D01*
X123005000Y-90492155D01*
X119880500Y-90492155D01*
X119880500Y-88049152D01*
X120650001Y-88049152D01*
X120660056Y-88147583D01*
X120712906Y-88307072D01*
X120712908Y-88307077D01*
X120801114Y-88450080D01*
X120919919Y-88568885D01*
X121062922Y-88657091D01*
X121062927Y-88657093D01*
X121222416Y-88709942D01*
X121320855Y-88719999D01*
X121875000Y-88719999D01*
X121929136Y-88719999D01*
X121929152Y-88719998D01*
X122027583Y-88709943D01*
X122187072Y-88657093D01*
X122187077Y-88657091D01*
X122330080Y-88568885D01*
X122448885Y-88450080D01*
X122537091Y-88307077D01*
X122537093Y-88307072D01*
X122589942Y-88147583D01*
X122599999Y-88049150D01*
X122600000Y-88049137D01*
X122600000Y-88032500D01*
X121875000Y-88032500D01*
X121875000Y-88719999D01*
X121320855Y-88719999D01*
X121374999Y-88719998D01*
X121375000Y-88719998D01*
X121375000Y-88032500D01*
X120650001Y-88032500D01*
X120650001Y-88049152D01*
X119880500Y-88049152D01*
X119880500Y-82784054D01*
X120249498Y-82784054D01*
X120290423Y-82936785D01*
X120319358Y-82986900D01*
X120319359Y-82986904D01*
X120319360Y-82986904D01*
X120369479Y-83073714D01*
X120369481Y-83073717D01*
X120488349Y-83192585D01*
X120488355Y-83192590D01*
X122691083Y-85395319D01*
X122724568Y-85456642D01*
X122719584Y-85526334D01*
X122677712Y-85582267D01*
X122612248Y-85606684D01*
X122603402Y-85607000D01*
X122560055Y-85607000D01*
X122493016Y-85587315D01*
X122454517Y-85548097D01*
X122449283Y-85539612D01*
X122449280Y-85539608D01*
X122330391Y-85420719D01*
X122330387Y-85420716D01*
X122187295Y-85332455D01*
X122187289Y-85332452D01*
X122187287Y-85332451D01*
X122027685Y-85279564D01*
X122027683Y-85279563D01*
X121929181Y-85269500D01*
X121929174Y-85269500D01*
X121320826Y-85269500D01*
X121320818Y-85269500D01*
X121222316Y-85279563D01*
X121222315Y-85279564D01*
X121185441Y-85291783D01*
X121062715Y-85332450D01*
X121062704Y-85332455D01*
X120919612Y-85420716D01*
X120919608Y-85420719D01*
X120800719Y-85539608D01*
X120800716Y-85539612D01*
X120712455Y-85682704D01*
X120712450Y-85682715D01*
X120695116Y-85735026D01*
X120659564Y-85842315D01*
X120659564Y-85842316D01*
X120659563Y-85842316D01*
X120649500Y-85940818D01*
X120649500Y-86474181D01*
X120659563Y-86572683D01*
X120712450Y-86732284D01*
X120712455Y-86732295D01*
X120800716Y-86875387D01*
X120800719Y-86875392D01*
X120833000Y-86907673D01*
X120866485Y-86968997D01*
X120861499Y-87038688D01*
X120833000Y-87083033D01*
X120801114Y-87114919D01*
X120712908Y-87257922D01*
X120712906Y-87257927D01*
X120660057Y-87417416D01*
X120650000Y-87515849D01*
X120650000Y-87532500D01*
X122599999Y-87532500D01*
X122599999Y-87515864D01*
X122599998Y-87515847D01*
X122589943Y-87417416D01*
X122537093Y-87257927D01*
X122537091Y-87257922D01*
X122448885Y-87114919D01*
X122417000Y-87083034D01*
X122414680Y-87078786D01*
X122410620Y-87076152D01*
X122398095Y-87048412D01*
X122383515Y-87021711D01*
X122383860Y-87016885D01*
X122381868Y-87012473D01*
X122386328Y-86982369D01*
X122388499Y-86952019D01*
X122391594Y-86946826D01*
X122392109Y-86943357D01*
X122402817Y-86928005D01*
X122411318Y-86913748D01*
X122414052Y-86910619D01*
X122449281Y-86875391D01*
X122459919Y-86858143D01*
X122466692Y-86850395D01*
X122487832Y-86836936D01*
X122506465Y-86820178D01*
X122518429Y-86817459D01*
X122525632Y-86812874D01*
X122538366Y-86812928D01*
X122560055Y-86808000D01*
X122880501Y-86808000D01*
X122947540Y-86827685D01*
X122993295Y-86880489D01*
X123004501Y-86932000D01*
X123004501Y-87307876D01*
X123010908Y-87367483D01*
X123061202Y-87502328D01*
X123061206Y-87502335D01*
X123147452Y-87617544D01*
X123147455Y-87617547D01*
X123262664Y-87703793D01*
X123262671Y-87703797D01*
X123397517Y-87754091D01*
X123397516Y-87754091D01*
X123404444Y-87754835D01*
X123457127Y-87760500D01*
X125552872Y-87760499D01*
X125612483Y-87754091D01*
X125747331Y-87703796D01*
X125862546Y-87617546D01*
X125948796Y-87502331D01*
X125999091Y-87367483D01*
X126005500Y-87307873D01*
X126005499Y-85412128D01*
X125999091Y-85352517D01*
X125991608Y-85332455D01*
X125948797Y-85217671D01*
X125948793Y-85217664D01*
X125862547Y-85102455D01*
X125862544Y-85102452D01*
X125747335Y-85016206D01*
X125747328Y-85016202D01*
X125612482Y-84965908D01*
X125612483Y-84965908D01*
X125552883Y-84959501D01*
X125552881Y-84959500D01*
X125552873Y-84959500D01*
X125552865Y-84959500D01*
X124005098Y-84959500D01*
X123938059Y-84939815D01*
X123917417Y-84923181D01*
X121486819Y-82492583D01*
X121453334Y-82431260D01*
X121450500Y-82404902D01*
X121450500Y-82227844D01*
X123005000Y-82227844D01*
X123011401Y-82287372D01*
X123011403Y-82287379D01*
X123061645Y-82422086D01*
X123061649Y-82422093D01*
X123147809Y-82537187D01*
X123147812Y-82537190D01*
X123262906Y-82623350D01*
X123262913Y-82623354D01*
X123397620Y-82673596D01*
X123397627Y-82673598D01*
X123457155Y-82679999D01*
X123457172Y-82680000D01*
X124255000Y-82680000D01*
X124755000Y-82680000D01*
X125552828Y-82680000D01*
X125552844Y-82679999D01*
X125612372Y-82673598D01*
X125612379Y-82673596D01*
X125747086Y-82623354D01*
X125747093Y-82623350D01*
X125862187Y-82537190D01*
X125862190Y-82537187D01*
X125948350Y-82422093D01*
X125948354Y-82422086D01*
X125998596Y-82287379D01*
X125998598Y-82287372D01*
X126004999Y-82227844D01*
X126005000Y-82227827D01*
X126005000Y-81530000D01*
X124755000Y-81530000D01*
X124755000Y-82680000D01*
X124255000Y-82680000D01*
X124255000Y-81530000D01*
X123005000Y-81530000D01*
X123005000Y-82227844D01*
X121450500Y-82227844D01*
X121450500Y-80332155D01*
X123005000Y-80332155D01*
X123005000Y-81030000D01*
X124255000Y-81030000D01*
X124755000Y-81030000D01*
X126005000Y-81030000D01*
X126005000Y-80332172D01*
X126004999Y-80332155D01*
X125998598Y-80272627D01*
X125998596Y-80272620D01*
X125948354Y-80137913D01*
X125948350Y-80137906D01*
X125862190Y-80022812D01*
X125862187Y-80022809D01*
X125747093Y-79936649D01*
X125747086Y-79936645D01*
X125612379Y-79886403D01*
X125612372Y-79886401D01*
X125552844Y-79880000D01*
X124755000Y-79880000D01*
X124755000Y-81030000D01*
X124255000Y-81030000D01*
X124255000Y-79880000D01*
X123457155Y-79880000D01*
X123397627Y-79886401D01*
X123397620Y-79886403D01*
X123262913Y-79936645D01*
X123262906Y-79936649D01*
X123147812Y-80022809D01*
X123147809Y-80022812D01*
X123061649Y-80137906D01*
X123061645Y-80137913D01*
X123011403Y-80272620D01*
X123011401Y-80272627D01*
X123005000Y-80332155D01*
X121450500Y-80332155D01*
X121450500Y-78407499D01*
X121875000Y-78407499D01*
X121929136Y-78407499D01*
X121929152Y-78407498D01*
X122027583Y-78397443D01*
X122187072Y-78344593D01*
X122187077Y-78344591D01*
X122330080Y-78256385D01*
X122448885Y-78137580D01*
X122537091Y-77994577D01*
X122537093Y-77994572D01*
X122589942Y-77835083D01*
X122599999Y-77736650D01*
X122600000Y-77736637D01*
X122600000Y-77720000D01*
X121875000Y-77720000D01*
X121875000Y-78407499D01*
X121450500Y-78407499D01*
X121450500Y-77594000D01*
X121470185Y-77526961D01*
X121522989Y-77481206D01*
X121574500Y-77470000D01*
X121625000Y-77470000D01*
X121625000Y-77344000D01*
X121644685Y-77276961D01*
X121697489Y-77231206D01*
X121749000Y-77220000D01*
X122599999Y-77220000D01*
X122599999Y-77203364D01*
X122599998Y-77203347D01*
X122589943Y-77104916D01*
X122537093Y-76945427D01*
X122537091Y-76945422D01*
X122448885Y-76802419D01*
X122417000Y-76770534D01*
X122414680Y-76766286D01*
X122410620Y-76763652D01*
X122398095Y-76735912D01*
X122383515Y-76709211D01*
X122383860Y-76704385D01*
X122381868Y-76699973D01*
X122386328Y-76669869D01*
X122388499Y-76639519D01*
X122391594Y-76634326D01*
X122392109Y-76630857D01*
X122402817Y-76615505D01*
X122411318Y-76601248D01*
X122414052Y-76598119D01*
X122449281Y-76562891D01*
X122459919Y-76545643D01*
X122466692Y-76537895D01*
X122487832Y-76524436D01*
X122506465Y-76507678D01*
X122518429Y-76504959D01*
X122525632Y-76500374D01*
X122538366Y-76500428D01*
X122560055Y-76495500D01*
X122880501Y-76495500D01*
X122947540Y-76515185D01*
X122993295Y-76567989D01*
X123004501Y-76619500D01*
X123004501Y-77147876D01*
X123010908Y-77207483D01*
X123061202Y-77342328D01*
X123061206Y-77342335D01*
X123147452Y-77457544D01*
X123147455Y-77457547D01*
X123262664Y-77543793D01*
X123262671Y-77543797D01*
X123397517Y-77594091D01*
X123397516Y-77594091D01*
X123404444Y-77594835D01*
X123457127Y-77600500D01*
X125552872Y-77600499D01*
X125612483Y-77594091D01*
X125747331Y-77543796D01*
X125862546Y-77457546D01*
X125948796Y-77342331D01*
X125999091Y-77207483D01*
X126005500Y-77147873D01*
X126005499Y-75724499D01*
X126025184Y-75657461D01*
X126077987Y-75611706D01*
X126129499Y-75600500D01*
X127280500Y-75600500D01*
X127347539Y-75620185D01*
X127393294Y-75672989D01*
X127404500Y-75724500D01*
X127404500Y-76799900D01*
X127395856Y-76829336D01*
X127389333Y-76859326D01*
X127385577Y-76864343D01*
X127384815Y-76866939D01*
X127368182Y-76887581D01*
X127236286Y-77019478D01*
X127236284Y-77019480D01*
X127236283Y-77019480D01*
X127236282Y-77019481D01*
X127124481Y-77131282D01*
X127124477Y-77131287D01*
X127082662Y-77203715D01*
X127082662Y-77203716D01*
X127045423Y-77268214D01*
X127045423Y-77268215D01*
X127004499Y-77420943D01*
X127004499Y-77420945D01*
X127004499Y-77589046D01*
X127004500Y-77589059D01*
X127004500Y-84973330D01*
X127004499Y-84973348D01*
X127004499Y-85139054D01*
X127004498Y-85139054D01*
X127039451Y-85269500D01*
X127045423Y-85291785D01*
X127068902Y-85332451D01*
X127114900Y-85412123D01*
X127124479Y-85428714D01*
X127124481Y-85428717D01*
X127243349Y-85547585D01*
X127243355Y-85547590D01*
X127368181Y-85672416D01*
X127401666Y-85733739D01*
X127404500Y-85760097D01*
X127404500Y-87307870D01*
X127404501Y-87307876D01*
X127410908Y-87367483D01*
X127461202Y-87502328D01*
X127461206Y-87502335D01*
X127547452Y-87617544D01*
X127547455Y-87617547D01*
X127662664Y-87703793D01*
X127662671Y-87703797D01*
X127797517Y-87754091D01*
X127797516Y-87754091D01*
X127804444Y-87754835D01*
X127857127Y-87760500D01*
X129404902Y-87760499D01*
X129471941Y-87780184D01*
X129492583Y-87796818D01*
X130101978Y-88406213D01*
X130101980Y-88406216D01*
X130164694Y-88468930D01*
X130194718Y-88517606D01*
X130239090Y-88651512D01*
X130239092Y-88651516D01*
X130329659Y-88798349D01*
X130329661Y-88798351D01*
X130343982Y-88812672D01*
X130377467Y-88873995D01*
X130372483Y-88943687D01*
X130343985Y-88988032D01*
X130330052Y-89001965D01*
X130239551Y-89148688D01*
X130239546Y-89148699D01*
X130185319Y-89312347D01*
X130175000Y-89413345D01*
X130175000Y-89512500D01*
X131026000Y-89512500D01*
X131093039Y-89532185D01*
X131138794Y-89584989D01*
X131150000Y-89636500D01*
X131150000Y-89888500D01*
X131130315Y-89955539D01*
X131077511Y-90001294D01*
X131026000Y-90012500D01*
X130175000Y-90012500D01*
X130162867Y-90024633D01*
X130101544Y-90058117D01*
X130031857Y-90053134D01*
X130012484Y-90045909D01*
X130012483Y-90045908D01*
X129952883Y-90039501D01*
X129952881Y-90039500D01*
X129952873Y-90039500D01*
X129952864Y-90039500D01*
X127857129Y-90039500D01*
X127857123Y-90039501D01*
X127797516Y-90045908D01*
X127662671Y-90096202D01*
X127662664Y-90096206D01*
X127547455Y-90182452D01*
X127547452Y-90182455D01*
X127461206Y-90297664D01*
X127461202Y-90297671D01*
X127410908Y-90432517D01*
X127404501Y-90492116D01*
X127404500Y-90492135D01*
X127404500Y-92387870D01*
X127404501Y-92387876D01*
X127410908Y-92447483D01*
X127461202Y-92582328D01*
X127461206Y-92582335D01*
X127547452Y-92697544D01*
X127547455Y-92697547D01*
X127662664Y-92783793D01*
X127662671Y-92783797D01*
X127797517Y-92834091D01*
X127797516Y-92834091D01*
X127804444Y-92834835D01*
X127857127Y-92840500D01*
X129952872Y-92840499D01*
X130012483Y-92834091D01*
X130147331Y-92783796D01*
X130262546Y-92697546D01*
X130348796Y-92582331D01*
X130399091Y-92447483D01*
X130405500Y-92387873D01*
X130405500Y-92164500D01*
X130425185Y-92097461D01*
X130477989Y-92051706D01*
X130529500Y-92040500D01*
X131358331Y-92040500D01*
X131358347Y-92040501D01*
X131365943Y-92040501D01*
X131524054Y-92040501D01*
X131524057Y-92040501D01*
X131676785Y-91999577D01*
X131726904Y-91970639D01*
X131813716Y-91920520D01*
X131925520Y-91808716D01*
X131925520Y-91808714D01*
X131935728Y-91798507D01*
X131935730Y-91798504D01*
X136868321Y-86865912D01*
X136929642Y-86832429D01*
X136999334Y-86837413D01*
X137055267Y-86879285D01*
X137079684Y-86944749D01*
X137080000Y-86953595D01*
X137080000Y-87101246D01*
X137113242Y-87311127D01*
X137113242Y-87311130D01*
X137178904Y-87513217D01*
X137275375Y-87702550D01*
X137314728Y-87756716D01*
X137947037Y-87124408D01*
X137964075Y-87187993D01*
X138029901Y-87302007D01*
X138122993Y-87395099D01*
X138237007Y-87460925D01*
X138300590Y-87477962D01*
X137668282Y-88110269D01*
X137668282Y-88110270D01*
X137722452Y-88149626D01*
X137722451Y-88149626D01*
X137731495Y-88154234D01*
X137782292Y-88202208D01*
X137799087Y-88270029D01*
X137776550Y-88336164D01*
X137731499Y-88375202D01*
X137722182Y-88379949D01*
X137550213Y-88504890D01*
X137399890Y-88655213D01*
X137274951Y-88827179D01*
X137178444Y-89016585D01*
X137112753Y-89218760D01*
X137081934Y-89413345D01*
X137079500Y-89428713D01*
X137079500Y-89641287D01*
X137112754Y-89851243D01*
X137174085Y-90040000D01*
X137178444Y-90053414D01*
X137274951Y-90242820D01*
X137399890Y-90414786D01*
X137550213Y-90565109D01*
X137722179Y-90690048D01*
X137722181Y-90690049D01*
X137722184Y-90690051D01*
X137911588Y-90786557D01*
X138113757Y-90852246D01*
X138323713Y-90885500D01*
X138323714Y-90885500D01*
X138536286Y-90885500D01*
X138536287Y-90885500D01*
X138746243Y-90852246D01*
X138948412Y-90786557D01*
X139137816Y-90690051D01*
X139159789Y-90674086D01*
X139309786Y-90565109D01*
X139309788Y-90565106D01*
X139309792Y-90565104D01*
X139460104Y-90414792D01*
X139460106Y-90414788D01*
X139460109Y-90414786D01*
X139585048Y-90242820D01*
X139585047Y-90242820D01*
X139585051Y-90242816D01*
X139589514Y-90234055D01*
X139637488Y-90183259D01*
X139705308Y-90166463D01*
X139771444Y-90188999D01*
X139810486Y-90234056D01*
X139814951Y-90242820D01*
X139939890Y-90414786D01*
X140090213Y-90565109D01*
X140262179Y-90690048D01*
X140262181Y-90690049D01*
X140262184Y-90690051D01*
X140451588Y-90786557D01*
X140653757Y-90852246D01*
X140863713Y-90885500D01*
X140863714Y-90885500D01*
X141076286Y-90885500D01*
X141076287Y-90885500D01*
X141286243Y-90852246D01*
X141488412Y-90786557D01*
X141677816Y-90690051D01*
X141699789Y-90674086D01*
X141849786Y-90565109D01*
X141849788Y-90565106D01*
X141849792Y-90565104D01*
X142000104Y-90414792D01*
X142000106Y-90414788D01*
X142000109Y-90414786D01*
X142125048Y-90242820D01*
X142125047Y-90242820D01*
X142125051Y-90242816D01*
X142221557Y-90053412D01*
X142287246Y-89851243D01*
X142320500Y-89641287D01*
X142320500Y-89428713D01*
X142287246Y-89218757D01*
X142273506Y-89176473D01*
X142271512Y-89106635D01*
X142303753Y-89050480D01*
X142600520Y-88753716D01*
X142679577Y-88616784D01*
X142720501Y-88464057D01*
X142720501Y-88305942D01*
X142720501Y-88298347D01*
X142720500Y-88298329D01*
X142720500Y-83909059D01*
X142720501Y-83909046D01*
X142720501Y-83740945D01*
X142720501Y-83740943D01*
X142679577Y-83588215D01*
X142624575Y-83492949D01*
X142600520Y-83451284D01*
X142488716Y-83339480D01*
X142488713Y-83339478D01*
X142092590Y-82943355D01*
X142092588Y-82943352D01*
X142051393Y-82902157D01*
X142017908Y-82840834D01*
X142022892Y-82771142D01*
X142038752Y-82741596D01*
X142125051Y-82622816D01*
X142221557Y-82433412D01*
X142287246Y-82231243D01*
X142320500Y-82021287D01*
X142320500Y-81808713D01*
X142287246Y-81598757D01*
X142221557Y-81396588D01*
X142125051Y-81207184D01*
X142125049Y-81207181D01*
X142125048Y-81207179D01*
X142000109Y-81035213D01*
X141849786Y-80884890D01*
X141677820Y-80759951D01*
X141677115Y-80759591D01*
X141669054Y-80755485D01*
X141618259Y-80707512D01*
X141601463Y-80639692D01*
X141623999Y-80573556D01*
X141669054Y-80534515D01*
X141677816Y-80530051D01*
X141739901Y-80484944D01*
X141849786Y-80405109D01*
X141849788Y-80405106D01*
X141849792Y-80405104D01*
X142000104Y-80254792D01*
X142000106Y-80254788D01*
X142000109Y-80254786D01*
X142125048Y-80082820D01*
X142125047Y-80082820D01*
X142125051Y-80082816D01*
X142221557Y-79893412D01*
X142287246Y-79691243D01*
X142320500Y-79481287D01*
X142320500Y-79268713D01*
X142287246Y-79058757D01*
X142221557Y-78856588D01*
X142125051Y-78667184D01*
X142125049Y-78667181D01*
X142125048Y-78667179D01*
X142000109Y-78495213D01*
X141849786Y-78344890D01*
X141677820Y-78219951D01*
X141677205Y-78219637D01*
X141669054Y-78215484D01*
X141618259Y-78167512D01*
X141601463Y-78099692D01*
X141623999Y-78033556D01*
X141669054Y-77994515D01*
X141677816Y-77990051D01*
X141764138Y-77927335D01*
X141849786Y-77865109D01*
X141849788Y-77865106D01*
X141849792Y-77865104D01*
X142000104Y-77714792D01*
X142000106Y-77714788D01*
X142000109Y-77714786D01*
X142125048Y-77542820D01*
X142125047Y-77542820D01*
X142125051Y-77542816D01*
X142221557Y-77353412D01*
X142287246Y-77151243D01*
X142320500Y-76941287D01*
X142320500Y-76728713D01*
X142287246Y-76518757D01*
X142221557Y-76316588D01*
X142125051Y-76127184D01*
X142125049Y-76127181D01*
X142125048Y-76127179D01*
X142000109Y-75955213D01*
X141849786Y-75804890D01*
X141677820Y-75679951D01*
X141488414Y-75583444D01*
X141488413Y-75583443D01*
X141488412Y-75583443D01*
X141286243Y-75517754D01*
X141286241Y-75517753D01*
X141286240Y-75517753D01*
X141124957Y-75492208D01*
X141076287Y-75484500D01*
X140863713Y-75484500D01*
X140815042Y-75492208D01*
X140653760Y-75517753D01*
X140451585Y-75583444D01*
X140262179Y-75679951D01*
X140090215Y-75804889D01*
X139976673Y-75918431D01*
X139915350Y-75951915D01*
X139845658Y-75946931D01*
X139789725Y-75905059D01*
X139772810Y-75874082D01*
X139723797Y-75742671D01*
X139723793Y-75742664D01*
X139637547Y-75627455D01*
X139637544Y-75627452D01*
X139522335Y-75541206D01*
X139522328Y-75541202D01*
X139387482Y-75490908D01*
X139387483Y-75490908D01*
X139327883Y-75484501D01*
X139327881Y-75484500D01*
X139327873Y-75484500D01*
X139327865Y-75484500D01*
X137980097Y-75484500D01*
X137913058Y-75464815D01*
X137892416Y-75448181D01*
X136682590Y-74238355D01*
X136682588Y-74238352D01*
X136563717Y-74119481D01*
X136563716Y-74119480D01*
X136476904Y-74069360D01*
X136476904Y-74069359D01*
X136476900Y-74069358D01*
X136426785Y-74040423D01*
X136274057Y-73999499D01*
X136115943Y-73999499D01*
X136108347Y-73999499D01*
X136108331Y-73999500D01*
X121791984Y-73999500D01*
X121791968Y-73999499D01*
X121784372Y-73999499D01*
X121626257Y-73999499D01*
X121556928Y-74018076D01*
X121473528Y-74040423D01*
X121473523Y-74040426D01*
X121336604Y-74119475D01*
X121336596Y-74119481D01*
X120369481Y-75086596D01*
X120369480Y-75086598D01*
X120327346Y-75159577D01*
X120290423Y-75223529D01*
X120249499Y-75376257D01*
X120249499Y-75376259D01*
X120249499Y-75544360D01*
X120249500Y-75544373D01*
X120249500Y-82618330D01*
X120249499Y-82618348D01*
X120249499Y-82784054D01*
X120249498Y-82784054D01*
X119880500Y-82784054D01*
X119880500Y-74031959D01*
X119881280Y-74018077D01*
X119883373Y-73999499D01*
X119891459Y-73927729D01*
X119897635Y-73900668D01*
X119925353Y-73821457D01*
X119937393Y-73796453D01*
X119982046Y-73725389D01*
X119999351Y-73703690D01*
X120058690Y-73644351D01*
X120080389Y-73627046D01*
X120151453Y-73582393D01*
X120176457Y-73570353D01*
X120255668Y-73542635D01*
X120282729Y-73536459D01*
X120358753Y-73527893D01*
X120373078Y-73526280D01*
X120386960Y-73525500D01*
X120445892Y-73525500D01*
X142444108Y-73525500D01*
X142503040Y-73525500D01*
X142516922Y-73526280D01*
G37*
%TD.AperFunction*%
%TD*%
M02*
