%TF.GenerationSoftware,KiCad,Pcbnew,10.0.1*%
%TF.CreationDate,2026-08-20T22:07:40-04:00*%
%TF.ProjectId,clock,636c6f63-6b2e-46b6-9963-61645f706362,rev?*%
%TF.SameCoordinates,Original*%
%TF.FileFunction,Legend,Top*%
%TF.FilePolarity,Positive*%
%FSLAX46Y46*%
G04 Gerber Fmt 4.6, Leading zero omitted, Abs format (unit mm)*
G04 Created by KiCad (PCBNEW 10.0.1) date 2026-08-20 22:07:40*
%MOMM*%
%LPD*%
G01*
G04 APERTURE LIST*
%ADD10C,0.150000*%
%ADD11C,0.120000*%
G04 APERTURE END LIST*
D10*
X126228809Y-73993628D02*
X126228809Y-74469819D01*
X125895476Y-73469819D02*
X126228809Y-73993628D01*
X126228809Y-73993628D02*
X126562142Y-73469819D01*
X127419285Y-74469819D02*
X126847857Y-74469819D01*
X127133571Y-74469819D02*
X127133571Y-73469819D01*
X127133571Y-73469819D02*
X127038333Y-73612676D01*
X127038333Y-73612676D02*
X126943095Y-73707914D01*
X126943095Y-73707914D02*
X126847857Y-73755533D01*
X132939580Y-89066666D02*
X132987200Y-89114285D01*
X132987200Y-89114285D02*
X133034819Y-89257142D01*
X133034819Y-89257142D02*
X133034819Y-89352380D01*
X133034819Y-89352380D02*
X132987200Y-89495237D01*
X132987200Y-89495237D02*
X132891961Y-89590475D01*
X132891961Y-89590475D02*
X132796723Y-89638094D01*
X132796723Y-89638094D02*
X132606247Y-89685713D01*
X132606247Y-89685713D02*
X132463390Y-89685713D01*
X132463390Y-89685713D02*
X132272914Y-89638094D01*
X132272914Y-89638094D02*
X132177676Y-89590475D01*
X132177676Y-89590475D02*
X132082438Y-89495237D01*
X132082438Y-89495237D02*
X132034819Y-89352380D01*
X132034819Y-89352380D02*
X132034819Y-89257142D01*
X132034819Y-89257142D02*
X132082438Y-89114285D01*
X132082438Y-89114285D02*
X132130057Y-89066666D01*
X132130057Y-88685713D02*
X132082438Y-88638094D01*
X132082438Y-88638094D02*
X132034819Y-88542856D01*
X132034819Y-88542856D02*
X132034819Y-88304761D01*
X132034819Y-88304761D02*
X132082438Y-88209523D01*
X132082438Y-88209523D02*
X132130057Y-88161904D01*
X132130057Y-88161904D02*
X132225295Y-88114285D01*
X132225295Y-88114285D02*
X132320533Y-88114285D01*
X132320533Y-88114285D02*
X132463390Y-88161904D01*
X132463390Y-88161904D02*
X133034819Y-88733332D01*
X133034819Y-88733332D02*
X133034819Y-88114285D01*
X120649819Y-77420594D02*
X119649819Y-77420594D01*
X119649819Y-77420594D02*
X119649819Y-77182499D01*
X119649819Y-77182499D02*
X119697438Y-77039642D01*
X119697438Y-77039642D02*
X119792676Y-76944404D01*
X119792676Y-76944404D02*
X119887914Y-76896785D01*
X119887914Y-76896785D02*
X120078390Y-76849166D01*
X120078390Y-76849166D02*
X120221247Y-76849166D01*
X120221247Y-76849166D02*
X120411723Y-76896785D01*
X120411723Y-76896785D02*
X120506961Y-76944404D01*
X120506961Y-76944404D02*
X120602200Y-77039642D01*
X120602200Y-77039642D02*
X120649819Y-77182499D01*
X120649819Y-77182499D02*
X120649819Y-77420594D01*
X120649819Y-75896785D02*
X120649819Y-76468213D01*
X120649819Y-76182499D02*
X119649819Y-76182499D01*
X119649819Y-76182499D02*
X119792676Y-76277737D01*
X119792676Y-76277737D02*
X119887914Y-76372975D01*
X119887914Y-76372975D02*
X119935533Y-76468213D01*
X120649819Y-87733094D02*
X119649819Y-87733094D01*
X119649819Y-87733094D02*
X119649819Y-87494999D01*
X119649819Y-87494999D02*
X119697438Y-87352142D01*
X119697438Y-87352142D02*
X119792676Y-87256904D01*
X119792676Y-87256904D02*
X119887914Y-87209285D01*
X119887914Y-87209285D02*
X120078390Y-87161666D01*
X120078390Y-87161666D02*
X120221247Y-87161666D01*
X120221247Y-87161666D02*
X120411723Y-87209285D01*
X120411723Y-87209285D02*
X120506961Y-87256904D01*
X120506961Y-87256904D02*
X120602200Y-87352142D01*
X120602200Y-87352142D02*
X120649819Y-87494999D01*
X120649819Y-87494999D02*
X120649819Y-87733094D01*
X119745057Y-86780713D02*
X119697438Y-86733094D01*
X119697438Y-86733094D02*
X119649819Y-86637856D01*
X119649819Y-86637856D02*
X119649819Y-86399761D01*
X119649819Y-86399761D02*
X119697438Y-86304523D01*
X119697438Y-86304523D02*
X119745057Y-86256904D01*
X119745057Y-86256904D02*
X119840295Y-86209285D01*
X119840295Y-86209285D02*
X119935533Y-86209285D01*
X119935533Y-86209285D02*
X120078390Y-86256904D01*
X120078390Y-86256904D02*
X120649819Y-86828332D01*
X120649819Y-86828332D02*
X120649819Y-86209285D01*
X132939580Y-78906666D02*
X132987200Y-78954285D01*
X132987200Y-78954285D02*
X133034819Y-79097142D01*
X133034819Y-79097142D02*
X133034819Y-79192380D01*
X133034819Y-79192380D02*
X132987200Y-79335237D01*
X132987200Y-79335237D02*
X132891961Y-79430475D01*
X132891961Y-79430475D02*
X132796723Y-79478094D01*
X132796723Y-79478094D02*
X132606247Y-79525713D01*
X132606247Y-79525713D02*
X132463390Y-79525713D01*
X132463390Y-79525713D02*
X132272914Y-79478094D01*
X132272914Y-79478094D02*
X132177676Y-79430475D01*
X132177676Y-79430475D02*
X132082438Y-79335237D01*
X132082438Y-79335237D02*
X132034819Y-79192380D01*
X132034819Y-79192380D02*
X132034819Y-79097142D01*
X132034819Y-79097142D02*
X132082438Y-78954285D01*
X132082438Y-78954285D02*
X132130057Y-78906666D01*
X133034819Y-77954285D02*
X133034819Y-78525713D01*
X133034819Y-78239999D02*
X132034819Y-78239999D01*
X132034819Y-78239999D02*
X132177676Y-78335237D01*
X132177676Y-78335237D02*
X132272914Y-78430475D01*
X132272914Y-78430475D02*
X132320533Y-78525713D01*
X126228809Y-84153628D02*
X126228809Y-84629819D01*
X125895476Y-83629819D02*
X126228809Y-84153628D01*
X126228809Y-84153628D02*
X126562142Y-83629819D01*
X126847857Y-83725057D02*
X126895476Y-83677438D01*
X126895476Y-83677438D02*
X126990714Y-83629819D01*
X126990714Y-83629819D02*
X127228809Y-83629819D01*
X127228809Y-83629819D02*
X127324047Y-83677438D01*
X127324047Y-83677438D02*
X127371666Y-83725057D01*
X127371666Y-83725057D02*
X127419285Y-83820295D01*
X127419285Y-83820295D02*
X127419285Y-83915533D01*
X127419285Y-83915533D02*
X127371666Y-84058390D01*
X127371666Y-84058390D02*
X126800238Y-84629819D01*
X126800238Y-84629819D02*
X127419285Y-84629819D01*
X139366666Y-73909819D02*
X139366666Y-74624104D01*
X139366666Y-74624104D02*
X139319047Y-74766961D01*
X139319047Y-74766961D02*
X139223809Y-74862200D01*
X139223809Y-74862200D02*
X139080952Y-74909819D01*
X139080952Y-74909819D02*
X138985714Y-74909819D01*
X140366666Y-74909819D02*
X139795238Y-74909819D01*
X140080952Y-74909819D02*
X140080952Y-73909819D01*
X140080952Y-73909819D02*
X139985714Y-74052676D01*
X139985714Y-74052676D02*
X139890476Y-74147914D01*
X139890476Y-74147914D02*
X139795238Y-74195533D01*
%TO.C,Y1*%
D11*
X123505000Y-75100000D02*
X129205000Y-75100000D01*
X124065000Y-77300000D02*
X123505000Y-77300000D01*
X124065000Y-77300000D02*
X124065000Y-80180000D01*
X124205000Y-82380000D02*
X129205000Y-82380000D01*
X129345000Y-77300000D02*
X129345000Y-80180000D01*
%TO.C,C2*%
X130640000Y-88753733D02*
X130640000Y-89046267D01*
X131660000Y-88753733D02*
X131660000Y-89046267D01*
%TO.C,D1*%
X120890000Y-75882500D02*
X120890000Y-78167500D01*
X122360000Y-78167500D02*
X122360000Y-75882500D01*
X120890000Y-78167500D02*
X122360000Y-78167500D01*
%TO.C,D2*%
X120890000Y-86195000D02*
X120890000Y-88480000D01*
X122360000Y-88480000D02*
X122360000Y-86195000D01*
X120890000Y-88480000D02*
X122360000Y-88480000D01*
%TO.C,C1*%
X130640000Y-78593733D02*
X130640000Y-78886267D01*
X131660000Y-78593733D02*
X131660000Y-78886267D01*
%TO.C,Y2*%
X123505000Y-85260000D02*
X129205000Y-85260000D01*
X124065000Y-87460000D02*
X123505000Y-87460000D01*
X124065000Y-87460000D02*
X124065000Y-90340000D01*
X124205000Y-92540000D02*
X129205000Y-92540000D01*
X129345000Y-87460000D02*
X129345000Y-90340000D01*
%TO.C,J1*%
X137050000Y-75455000D02*
X138430000Y-75455000D01*
X137050000Y-76835000D02*
X137050000Y-75455000D01*
X137050000Y-78105000D02*
X137050000Y-90915000D01*
X137050000Y-78105000D02*
X139700000Y-78105000D01*
X137050000Y-90915000D02*
X142350000Y-90915000D01*
X139700000Y-75455000D02*
X142350000Y-75455000D01*
X139700000Y-78105000D02*
X139700000Y-75455000D01*
X142350000Y-75455000D02*
X142350000Y-90915000D01*
%TD*%
M02*
