M48
; DRILL file KiCad 10.0.1 date 2026-04-23T20:56:16
; FORMAT={-:-/ absolute / metric / decimal}
; #@! TF.CreationDate,2026-04-23T20:56:16-04:00
; #@! TF.GenerationSoftware,Kicad,Pcbnew,10.0.1
; #@! TF.FileFunction,Plated,1,4,PTH
FMAT,2
METRIC
; #@! TA.AperFunction,Plated,PTH,ViaDrill
T1C0.300
; #@! TA.AperFunction,Plated,PTH,ComponentDrill
T2C0.700
; #@! TA.AperFunction,Plated,PTH,ComponentDrill
T3C0.750
; #@! TA.AperFunction,Plated,PTH,ComponentDrill
T4C0.762
; #@! TA.AperFunction,Plated,PTH,ComponentDrill
T5C0.800
; #@! TA.AperFunction,Plated,PTH,ComponentDrill
T6C1.000
; #@! TA.AperFunction,Plated,PTH,ComponentDrill
T7C1.100
; #@! TA.AperFunction,Plated,PTH,ComponentDrill
T8C1.200
%
G90
G05
T1
X63.5Y-68.58
X63.5Y-71.12
X63.5Y-73.66
X63.5Y-76.2
X63.5Y-78.74
X63.5Y-81.28
X63.5Y-83.82
X63.5Y-86.36
X63.5Y-88.9
X63.5Y-91.44
X63.5Y-93.98
X63.5Y-96.52
X63.5Y-99.06
X63.5Y-101.6
X63.5Y-104.14
X63.5Y-106.68
X63.5Y-109.22
X63.5Y-111.76
X63.5Y-114.3
X63.5Y-116.84
X63.5Y-119.38
X63.5Y-121.92
X63.5Y-124.46
X63.5Y-127.0
X63.5Y-129.54
X63.5Y-132.08
X66.04Y-68.58
X66.04Y-71.12
X66.04Y-73.66
X66.04Y-76.2
X66.04Y-78.74
X66.04Y-81.28
X66.04Y-83.82
X66.04Y-86.36
X66.04Y-88.9
X66.04Y-91.44
X66.04Y-93.98
X66.04Y-96.52
X66.04Y-99.06
X66.04Y-101.6
X66.04Y-104.14
X66.04Y-106.68
X66.04Y-109.22
X66.04Y-111.76
X66.04Y-114.3
X66.04Y-116.84
X66.04Y-119.38
X66.04Y-121.92
X66.04Y-124.46
X66.04Y-127.0
X66.04Y-129.54
X66.04Y-132.08
X68.58Y-68.58
X68.58Y-71.12
X68.58Y-73.66
X68.58Y-76.2
X68.58Y-78.74
X68.58Y-81.28
X68.58Y-83.82
X68.58Y-86.36
X68.58Y-88.9
X68.58Y-91.44
X68.58Y-93.98
X68.58Y-96.52
X68.58Y-99.06
X68.58Y-101.6
X68.58Y-104.14
X68.58Y-106.68
X68.58Y-109.22
X68.58Y-111.76
X68.58Y-114.3
X78.74Y-78.74
X78.74Y-83.82
X81.28Y-78.74
X81.28Y-81.28
X81.28Y-83.82
X81.28Y-88.9
X81.28Y-91.44
X81.28Y-119.38
X83.82Y-134.62
X83.82Y-137.16
X86.36Y-132.08
X86.36Y-134.62
X86.36Y-137.16
X88.9Y-63.5
X88.9Y-66.04
X88.9Y-68.58
X88.9Y-71.12
X88.9Y-73.66
X88.9Y-104.14
X88.9Y-106.68
X88.9Y-109.22
X88.9Y-111.76
X88.9Y-114.3
X88.9Y-116.84
X88.9Y-119.38
X88.9Y-134.62
X88.9Y-137.16
X91.44Y-63.5
X91.44Y-66.04
X91.44Y-68.58
X91.44Y-71.12
X91.44Y-73.66
X91.44Y-104.14
X91.44Y-106.68
X91.44Y-109.22
X91.44Y-111.76
X91.44Y-114.3
X91.44Y-116.84
X91.44Y-119.38
X91.44Y-124.46
X91.44Y-127.0
X91.44Y-129.54
X91.44Y-137.16
X93.98Y-63.5
X93.98Y-66.04
X93.98Y-68.58
X93.98Y-71.12
X93.98Y-73.66
X93.98Y-104.14
X93.98Y-106.68
X93.98Y-109.22
X93.98Y-111.76
X93.98Y-114.3
X93.98Y-116.84
X93.98Y-121.92
X93.98Y-124.46
X93.98Y-127.0
X93.98Y-129.54
X93.98Y-132.08
X96.52Y-119.38
X96.52Y-121.92
X96.52Y-124.46
X96.52Y-127.0
X96.52Y-129.54
X96.52Y-132.08
X99.06Y-124.46
X99.06Y-127.0
X99.06Y-129.54
X99.06Y-132.08
X101.6Y-129.54
X101.6Y-132.08
X101.6Y-134.62
X104.14Y-86.36
X104.14Y-88.9
X104.14Y-91.44
X104.14Y-129.54
X104.14Y-134.62
X106.68Y-64.77
X106.68Y-86.36
X106.68Y-88.9
X106.68Y-91.44
X106.68Y-134.62
X109.22Y-86.36
X109.22Y-88.9
X109.22Y-91.44
X109.22Y-132.08
X109.22Y-134.62
X111.76Y-86.36
X111.76Y-88.9
X111.76Y-91.44
X114.3Y-134.62
X114.3Y-137.16
X115.57Y-92.71
X116.84Y-88.9
X116.84Y-91.44
X116.84Y-92.71
X116.84Y-134.62
X116.84Y-137.16
X119.38Y-134.62
X119.38Y-137.16
X121.92Y-60.96
X121.92Y-63.5
X121.92Y-66.04
X121.92Y-83.82
X121.92Y-88.9
X121.92Y-91.44
X121.92Y-93.98
X121.92Y-111.76
X121.92Y-114.3
X121.92Y-116.84
X121.92Y-129.54
X121.92Y-132.08
X121.92Y-134.62
X121.92Y-137.16
X123.19Y-78.74
X124.46Y-60.96
X124.46Y-88.9
X124.46Y-91.44
X124.46Y-93.98
X124.46Y-111.76
X124.46Y-116.84
X124.46Y-134.62
X127.0Y-60.96
X127.0Y-81.28
X127.0Y-88.9
X127.0Y-91.44
X127.0Y-93.98
X127.0Y-111.76
X127.0Y-114.3
X127.0Y-116.84
X127.0Y-129.54
X127.0Y-132.08
X127.0Y-134.62
X128.27Y-85.09
X129.54Y-60.96
X129.54Y-83.82
X129.54Y-111.76
X129.54Y-129.54
X129.54Y-134.62
X132.08Y-60.96
X132.08Y-63.5
X132.08Y-66.04
X132.08Y-83.82
X132.08Y-114.3
X132.08Y-129.54
X132.08Y-132.08
X132.08Y-134.62
X133.35Y-124.46
X134.62Y-78.74
X134.62Y-91.44
X134.62Y-104.14
X134.62Y-111.76
X134.62Y-114.3
X134.62Y-128.27
X137.16Y-101.6
X137.16Y-111.76
X137.16Y-114.3
X139.7Y-125.73
X142.24Y-93.98
X142.24Y-100.33
X142.24Y-102.87
X142.24Y-105.41
X143.51Y-93.98
X145.969Y-100.249
X147.32Y-68.58
X147.32Y-71.12
X147.32Y-73.66
X147.32Y-76.2
X147.32Y-104.14
X147.32Y-106.68
X147.32Y-109.22
X147.32Y-111.76
X147.32Y-114.3
X147.32Y-116.84
X147.32Y-119.38
X147.32Y-121.92
X147.32Y-124.46
X147.32Y-127.0
X147.32Y-129.54
X149.86Y-68.58
X149.86Y-71.12
X149.86Y-73.66
X149.86Y-76.2
X149.86Y-96.52
X149.86Y-101.6
X149.86Y-104.14
X149.86Y-106.68
X149.86Y-109.22
X149.86Y-111.76
X149.86Y-114.3
X149.86Y-116.84
X149.86Y-119.38
X149.86Y-121.92
X149.86Y-124.46
X149.86Y-127.0
X149.86Y-129.54
T2
X71.882Y-70.612
X71.882Y-74.93
X72.009Y-66.294
X79.502Y-70.612
X79.502Y-74.93
X79.629Y-66.294
X110.485Y-68.58
X110.485Y-72.39
X110.485Y-76.2
X110.485Y-80.01
X110.49Y-119.4
X110.49Y-123.21
X110.49Y-126.993
X110.49Y-130.83
X115.57Y-97.79
X115.57Y-105.41
X118.105Y-68.58
X118.105Y-72.39
X118.105Y-76.2
X118.105Y-80.01
X118.11Y-119.4
X118.11Y-123.21
X118.11Y-126.993
X118.11Y-130.83
X119.38Y-97.79
X119.38Y-105.41
X135.885Y-68.58
X135.885Y-72.39
X135.89Y-119.4
X135.89Y-123.21
X143.505Y-68.58
X143.505Y-72.39
X143.51Y-119.4
X143.51Y-123.21
T3
X72.93Y-81.28
X74.93Y-81.28
X76.93Y-81.28
X78.93Y-81.28
X144.78Y-98.52
X144.78Y-100.52
X144.78Y-102.52
T4
X85.393Y-68.619
X85.393Y-71.159
X85.393Y-73.699
X85.393Y-76.239
X85.393Y-78.779
X85.393Y-81.319
X85.393Y-83.859
X85.393Y-86.399
X85.393Y-88.939
X85.393Y-106.719
X85.393Y-109.259
X85.393Y-111.799
X85.393Y-114.339
X85.393Y-116.879
X85.393Y-119.419
X85.393Y-121.959
X85.393Y-124.499
X85.393Y-127.039
X100.633Y-68.619
X100.633Y-71.159
X100.633Y-73.699
X100.633Y-76.239
X100.633Y-78.779
X100.633Y-81.319
X100.633Y-83.859
X100.633Y-86.399
X100.633Y-88.939
X100.633Y-106.719
X100.633Y-109.259
X100.633Y-111.799
X100.633Y-114.339
X100.633Y-116.879
X100.633Y-119.419
X100.633Y-121.959
X100.633Y-124.499
X100.633Y-127.039
T5
X69.85Y-118.11
X69.85Y-120.65
X69.85Y-123.19
X69.85Y-125.73
X69.85Y-128.27
X69.85Y-130.81
X69.85Y-133.35
X69.85Y-135.89
X77.47Y-118.11
X77.47Y-120.65
X77.47Y-123.19
X77.47Y-125.73
X77.47Y-128.27
X77.47Y-130.81
X77.47Y-133.35
X77.47Y-135.89
X105.41Y-66.08
X105.41Y-71.08
X105.41Y-76.16
X105.41Y-81.16
X105.41Y-116.9
X105.41Y-121.9
X105.45Y-127.06
X105.45Y-132.06
X105.45Y-137.16
X110.45Y-137.16
X111.795Y-63.5
X111.8Y-114.32
X114.243Y-90.17
X116.795Y-63.5
X116.8Y-114.32
X119.243Y-90.17
X123.19Y-68.58
X123.19Y-71.12
X123.19Y-73.66
X123.19Y-76.2
X123.195Y-119.4
X123.195Y-121.94
X123.195Y-124.48
X123.195Y-127.02
X124.495Y-63.5
X124.495Y-81.28
X124.5Y-114.32
X124.5Y-132.1
X129.495Y-63.5
X129.495Y-81.28
X129.5Y-114.32
X129.5Y-132.1
X130.81Y-68.58
X130.81Y-71.12
X130.81Y-73.66
X130.81Y-76.2
X130.815Y-119.4
X130.815Y-121.94
X130.815Y-124.48
X130.815Y-127.02
X137.195Y-76.2
X137.195Y-81.28
X137.2Y-127.02
X137.2Y-132.1
X142.195Y-76.2
X142.195Y-81.28
X142.2Y-127.02
X142.2Y-132.1
T6
X77.47Y-91.44
X77.47Y-93.98
X77.47Y-96.52
X77.47Y-99.06
X77.47Y-101.6
X77.47Y-104.14
X77.47Y-106.68
X77.47Y-109.22
T7
X105.41Y-96.52
X105.41Y-106.68
X110.49Y-96.52
X110.49Y-106.68
X123.19Y-107.95
X125.73Y-101.6
X128.27Y-101.6
X130.81Y-101.6
X133.35Y-107.95
X137.16Y-95.25
X137.16Y-105.41
T8
X141.02Y-88.95
X148.64Y-86.41
X148.64Y-91.49
M30
