%TF.GenerationSoftware,KiCad,Pcbnew,10.0.1*%
%TF.CreationDate,2026-04-23T20:56:12-04:00*%
%TF.ProjectId,dac,6461632e-6b69-4636-9164-5f7063625858,rev?*%
%TF.SameCoordinates,Original*%
%TF.FileFunction,Legend,Top*%
%TF.FilePolarity,Positive*%
%FSLAX46Y46*%
G04 Gerber Fmt 4.6, Leading zero omitted, Abs format (unit mm)*
G04 Created by KiCad (PCBNEW 10.0.1) date 2026-04-23 20:56:12*
%MOMM*%
%LPD*%
G01*
G04 APERTURE LIST*
%ADD10C,0.100000*%
%ADD11C,0.150000*%
%ADD12C,0.120000*%
G04 APERTURE END LIST*
D10*
X120811027Y-137652419D02*
X121382455Y-137652419D01*
X121096741Y-138652419D02*
X121096741Y-137652419D01*
X121858646Y-138652419D02*
X121763408Y-138604800D01*
X121763408Y-138604800D02*
X121715789Y-138557180D01*
X121715789Y-138557180D02*
X121668170Y-138461942D01*
X121668170Y-138461942D02*
X121668170Y-138176228D01*
X121668170Y-138176228D02*
X121715789Y-138080990D01*
X121715789Y-138080990D02*
X121763408Y-138033371D01*
X121763408Y-138033371D02*
X121858646Y-137985752D01*
X121858646Y-137985752D02*
X122001503Y-137985752D01*
X122001503Y-137985752D02*
X122096741Y-138033371D01*
X122096741Y-138033371D02*
X122144360Y-138080990D01*
X122144360Y-138080990D02*
X122191979Y-138176228D01*
X122191979Y-138176228D02*
X122191979Y-138461942D01*
X122191979Y-138461942D02*
X122144360Y-138557180D01*
X122144360Y-138557180D02*
X122096741Y-138604800D01*
X122096741Y-138604800D02*
X122001503Y-138652419D01*
X122001503Y-138652419D02*
X121858646Y-138652419D01*
X122525313Y-137985752D02*
X122763408Y-138652419D01*
X123001503Y-137985752D02*
X122763408Y-138652419D01*
X122763408Y-138652419D02*
X122668170Y-138890514D01*
X122668170Y-138890514D02*
X122620551Y-138938133D01*
X122620551Y-138938133D02*
X122525313Y-138985752D01*
X123382456Y-138652419D02*
X123382456Y-137652419D01*
X123382456Y-137652419D02*
X123620551Y-137652419D01*
X123620551Y-137652419D02*
X123763408Y-137700038D01*
X123763408Y-137700038D02*
X123858646Y-137795276D01*
X123858646Y-137795276D02*
X123906265Y-137890514D01*
X123906265Y-137890514D02*
X123953884Y-138080990D01*
X123953884Y-138080990D02*
X123953884Y-138223847D01*
X123953884Y-138223847D02*
X123906265Y-138414323D01*
X123906265Y-138414323D02*
X123858646Y-138509561D01*
X123858646Y-138509561D02*
X123763408Y-138604800D01*
X123763408Y-138604800D02*
X123620551Y-138652419D01*
X123620551Y-138652419D02*
X123382456Y-138652419D01*
X124334837Y-138366704D02*
X124811027Y-138366704D01*
X124239599Y-138652419D02*
X124572932Y-137652419D01*
X124572932Y-137652419D02*
X124906265Y-138652419D01*
X125811027Y-138557180D02*
X125763408Y-138604800D01*
X125763408Y-138604800D02*
X125620551Y-138652419D01*
X125620551Y-138652419D02*
X125525313Y-138652419D01*
X125525313Y-138652419D02*
X125382456Y-138604800D01*
X125382456Y-138604800D02*
X125287218Y-138509561D01*
X125287218Y-138509561D02*
X125239599Y-138414323D01*
X125239599Y-138414323D02*
X125191980Y-138223847D01*
X125191980Y-138223847D02*
X125191980Y-138080990D01*
X125191980Y-138080990D02*
X125239599Y-137890514D01*
X125239599Y-137890514D02*
X125287218Y-137795276D01*
X125287218Y-137795276D02*
X125382456Y-137700038D01*
X125382456Y-137700038D02*
X125525313Y-137652419D01*
X125525313Y-137652419D02*
X125620551Y-137652419D01*
X125620551Y-137652419D02*
X125763408Y-137700038D01*
X125763408Y-137700038D02*
X125811027Y-137747657D01*
X127001504Y-138128609D02*
X127334837Y-138128609D01*
X127477694Y-138652419D02*
X127001504Y-138652419D01*
X127001504Y-138652419D02*
X127001504Y-137652419D01*
X127001504Y-137652419D02*
X127477694Y-137652419D01*
X127811028Y-138652419D02*
X128334837Y-137985752D01*
X127811028Y-137985752D02*
X128334837Y-138652419D01*
X128715790Y-137985752D02*
X128715790Y-138985752D01*
X128715790Y-138033371D02*
X128811028Y-137985752D01*
X128811028Y-137985752D02*
X129001504Y-137985752D01*
X129001504Y-137985752D02*
X129096742Y-138033371D01*
X129096742Y-138033371D02*
X129144361Y-138080990D01*
X129144361Y-138080990D02*
X129191980Y-138176228D01*
X129191980Y-138176228D02*
X129191980Y-138461942D01*
X129191980Y-138461942D02*
X129144361Y-138557180D01*
X129144361Y-138557180D02*
X129096742Y-138604800D01*
X129096742Y-138604800D02*
X129001504Y-138652419D01*
X129001504Y-138652419D02*
X128811028Y-138652419D01*
X128811028Y-138652419D02*
X128715790Y-138604800D01*
X130001504Y-138604800D02*
X129906266Y-138652419D01*
X129906266Y-138652419D02*
X129715790Y-138652419D01*
X129715790Y-138652419D02*
X129620552Y-138604800D01*
X129620552Y-138604800D02*
X129572933Y-138509561D01*
X129572933Y-138509561D02*
X129572933Y-138128609D01*
X129572933Y-138128609D02*
X129620552Y-138033371D01*
X129620552Y-138033371D02*
X129715790Y-137985752D01*
X129715790Y-137985752D02*
X129906266Y-137985752D01*
X129906266Y-137985752D02*
X130001504Y-138033371D01*
X130001504Y-138033371D02*
X130049123Y-138128609D01*
X130049123Y-138128609D02*
X130049123Y-138223847D01*
X130049123Y-138223847D02*
X129572933Y-138319085D01*
X130477695Y-138652419D02*
X130477695Y-137985752D01*
X130477695Y-138176228D02*
X130525314Y-138080990D01*
X130525314Y-138080990D02*
X130572933Y-138033371D01*
X130572933Y-138033371D02*
X130668171Y-137985752D01*
X130668171Y-137985752D02*
X130763409Y-137985752D01*
X131096743Y-138652419D02*
X131096743Y-137985752D01*
X131096743Y-137652419D02*
X131049124Y-137700038D01*
X131049124Y-137700038D02*
X131096743Y-137747657D01*
X131096743Y-137747657D02*
X131144362Y-137700038D01*
X131144362Y-137700038D02*
X131096743Y-137652419D01*
X131096743Y-137652419D02*
X131096743Y-137747657D01*
X131572933Y-138652419D02*
X131572933Y-137985752D01*
X131572933Y-138080990D02*
X131620552Y-138033371D01*
X131620552Y-138033371D02*
X131715790Y-137985752D01*
X131715790Y-137985752D02*
X131858647Y-137985752D01*
X131858647Y-137985752D02*
X131953885Y-138033371D01*
X131953885Y-138033371D02*
X132001504Y-138128609D01*
X132001504Y-138128609D02*
X132001504Y-138652419D01*
X132001504Y-138128609D02*
X132049123Y-138033371D01*
X132049123Y-138033371D02*
X132144361Y-137985752D01*
X132144361Y-137985752D02*
X132287218Y-137985752D01*
X132287218Y-137985752D02*
X132382457Y-138033371D01*
X132382457Y-138033371D02*
X132430076Y-138128609D01*
X132430076Y-138128609D02*
X132430076Y-138652419D01*
X133287218Y-138604800D02*
X133191980Y-138652419D01*
X133191980Y-138652419D02*
X133001504Y-138652419D01*
X133001504Y-138652419D02*
X132906266Y-138604800D01*
X132906266Y-138604800D02*
X132858647Y-138509561D01*
X132858647Y-138509561D02*
X132858647Y-138128609D01*
X132858647Y-138128609D02*
X132906266Y-138033371D01*
X132906266Y-138033371D02*
X133001504Y-137985752D01*
X133001504Y-137985752D02*
X133191980Y-137985752D01*
X133191980Y-137985752D02*
X133287218Y-138033371D01*
X133287218Y-138033371D02*
X133334837Y-138128609D01*
X133334837Y-138128609D02*
X133334837Y-138223847D01*
X133334837Y-138223847D02*
X132858647Y-138319085D01*
X133763409Y-137985752D02*
X133763409Y-138652419D01*
X133763409Y-138080990D02*
X133811028Y-138033371D01*
X133811028Y-138033371D02*
X133906266Y-137985752D01*
X133906266Y-137985752D02*
X134049123Y-137985752D01*
X134049123Y-137985752D02*
X134144361Y-138033371D01*
X134144361Y-138033371D02*
X134191980Y-138128609D01*
X134191980Y-138128609D02*
X134191980Y-138652419D01*
X134525314Y-137985752D02*
X134906266Y-137985752D01*
X134668171Y-137652419D02*
X134668171Y-138509561D01*
X134668171Y-138509561D02*
X134715790Y-138604800D01*
X134715790Y-138604800D02*
X134811028Y-138652419D01*
X134811028Y-138652419D02*
X134906266Y-138652419D01*
X136001505Y-138652419D02*
X136001505Y-137652419D01*
X136001505Y-137652419D02*
X136382457Y-137652419D01*
X136382457Y-137652419D02*
X136477695Y-137700038D01*
X136477695Y-137700038D02*
X136525314Y-137747657D01*
X136525314Y-137747657D02*
X136572933Y-137842895D01*
X136572933Y-137842895D02*
X136572933Y-137985752D01*
X136572933Y-137985752D02*
X136525314Y-138080990D01*
X136525314Y-138080990D02*
X136477695Y-138128609D01*
X136477695Y-138128609D02*
X136382457Y-138176228D01*
X136382457Y-138176228D02*
X136001505Y-138176228D01*
X137144362Y-138652419D02*
X137049124Y-138604800D01*
X137049124Y-138604800D02*
X137001505Y-138509561D01*
X137001505Y-138509561D02*
X137001505Y-137652419D01*
X137953886Y-138652419D02*
X137953886Y-138128609D01*
X137953886Y-138128609D02*
X137906267Y-138033371D01*
X137906267Y-138033371D02*
X137811029Y-137985752D01*
X137811029Y-137985752D02*
X137620553Y-137985752D01*
X137620553Y-137985752D02*
X137525315Y-138033371D01*
X137953886Y-138604800D02*
X137858648Y-138652419D01*
X137858648Y-138652419D02*
X137620553Y-138652419D01*
X137620553Y-138652419D02*
X137525315Y-138604800D01*
X137525315Y-138604800D02*
X137477696Y-138509561D01*
X137477696Y-138509561D02*
X137477696Y-138414323D01*
X137477696Y-138414323D02*
X137525315Y-138319085D01*
X137525315Y-138319085D02*
X137620553Y-138271466D01*
X137620553Y-138271466D02*
X137858648Y-138271466D01*
X137858648Y-138271466D02*
X137953886Y-138223847D01*
X138287220Y-137985752D02*
X138668172Y-137985752D01*
X138430077Y-137652419D02*
X138430077Y-138509561D01*
X138430077Y-138509561D02*
X138477696Y-138604800D01*
X138477696Y-138604800D02*
X138572934Y-138652419D01*
X138572934Y-138652419D02*
X138668172Y-138652419D01*
X138858649Y-137985752D02*
X139239601Y-137985752D01*
X139001506Y-138652419D02*
X139001506Y-137795276D01*
X139001506Y-137795276D02*
X139049125Y-137700038D01*
X139049125Y-137700038D02*
X139144363Y-137652419D01*
X139144363Y-137652419D02*
X139239601Y-137652419D01*
X139715792Y-138652419D02*
X139620554Y-138604800D01*
X139620554Y-138604800D02*
X139572935Y-138557180D01*
X139572935Y-138557180D02*
X139525316Y-138461942D01*
X139525316Y-138461942D02*
X139525316Y-138176228D01*
X139525316Y-138176228D02*
X139572935Y-138080990D01*
X139572935Y-138080990D02*
X139620554Y-138033371D01*
X139620554Y-138033371D02*
X139715792Y-137985752D01*
X139715792Y-137985752D02*
X139858649Y-137985752D01*
X139858649Y-137985752D02*
X139953887Y-138033371D01*
X139953887Y-138033371D02*
X140001506Y-138080990D01*
X140001506Y-138080990D02*
X140049125Y-138176228D01*
X140049125Y-138176228D02*
X140049125Y-138461942D01*
X140049125Y-138461942D02*
X140001506Y-138557180D01*
X140001506Y-138557180D02*
X139953887Y-138604800D01*
X139953887Y-138604800D02*
X139858649Y-138652419D01*
X139858649Y-138652419D02*
X139715792Y-138652419D01*
X140477697Y-138652419D02*
X140477697Y-137985752D01*
X140477697Y-138176228D02*
X140525316Y-138080990D01*
X140525316Y-138080990D02*
X140572935Y-138033371D01*
X140572935Y-138033371D02*
X140668173Y-137985752D01*
X140668173Y-137985752D02*
X140763411Y-137985752D01*
X141096745Y-138652419D02*
X141096745Y-137985752D01*
X141096745Y-138080990D02*
X141144364Y-138033371D01*
X141144364Y-138033371D02*
X141239602Y-137985752D01*
X141239602Y-137985752D02*
X141382459Y-137985752D01*
X141382459Y-137985752D02*
X141477697Y-138033371D01*
X141477697Y-138033371D02*
X141525316Y-138128609D01*
X141525316Y-138128609D02*
X141525316Y-138652419D01*
X141525316Y-138128609D02*
X141572935Y-138033371D01*
X141572935Y-138033371D02*
X141668173Y-137985752D01*
X141668173Y-137985752D02*
X141811030Y-137985752D01*
X141811030Y-137985752D02*
X141906269Y-138033371D01*
X141906269Y-138033371D02*
X141953888Y-138128609D01*
X141953888Y-138128609D02*
X141953888Y-138652419D01*
X142734360Y-84012419D02*
X142924836Y-84012419D01*
X142924836Y-84012419D02*
X143020074Y-84060038D01*
X143020074Y-84060038D02*
X143115312Y-84155276D01*
X143115312Y-84155276D02*
X143162931Y-84345752D01*
X143162931Y-84345752D02*
X143162931Y-84679085D01*
X143162931Y-84679085D02*
X143115312Y-84869561D01*
X143115312Y-84869561D02*
X143020074Y-84964800D01*
X143020074Y-84964800D02*
X142924836Y-85012419D01*
X142924836Y-85012419D02*
X142734360Y-85012419D01*
X142734360Y-85012419D02*
X142639122Y-84964800D01*
X142639122Y-84964800D02*
X142543884Y-84869561D01*
X142543884Y-84869561D02*
X142496265Y-84679085D01*
X142496265Y-84679085D02*
X142496265Y-84345752D01*
X142496265Y-84345752D02*
X142543884Y-84155276D01*
X142543884Y-84155276D02*
X142639122Y-84060038D01*
X142639122Y-84060038D02*
X142734360Y-84012419D01*
X143591503Y-84012419D02*
X143591503Y-84821942D01*
X143591503Y-84821942D02*
X143639122Y-84917180D01*
X143639122Y-84917180D02*
X143686741Y-84964800D01*
X143686741Y-84964800D02*
X143781979Y-85012419D01*
X143781979Y-85012419D02*
X143972455Y-85012419D01*
X143972455Y-85012419D02*
X144067693Y-84964800D01*
X144067693Y-84964800D02*
X144115312Y-84917180D01*
X144115312Y-84917180D02*
X144162931Y-84821942D01*
X144162931Y-84821942D02*
X144162931Y-84012419D01*
X144496265Y-84012419D02*
X145067693Y-84012419D01*
X144781979Y-85012419D02*
X144781979Y-84012419D01*
X145401027Y-85012419D02*
X145401027Y-84012419D01*
X145401027Y-84012419D02*
X145781979Y-84012419D01*
X145781979Y-84012419D02*
X145877217Y-84060038D01*
X145877217Y-84060038D02*
X145924836Y-84107657D01*
X145924836Y-84107657D02*
X145972455Y-84202895D01*
X145972455Y-84202895D02*
X145972455Y-84345752D01*
X145972455Y-84345752D02*
X145924836Y-84440990D01*
X145924836Y-84440990D02*
X145877217Y-84488609D01*
X145877217Y-84488609D02*
X145781979Y-84536228D01*
X145781979Y-84536228D02*
X145401027Y-84536228D01*
X146401027Y-84012419D02*
X146401027Y-84821942D01*
X146401027Y-84821942D02*
X146448646Y-84917180D01*
X146448646Y-84917180D02*
X146496265Y-84964800D01*
X146496265Y-84964800D02*
X146591503Y-85012419D01*
X146591503Y-85012419D02*
X146781979Y-85012419D01*
X146781979Y-85012419D02*
X146877217Y-84964800D01*
X146877217Y-84964800D02*
X146924836Y-84917180D01*
X146924836Y-84917180D02*
X146972455Y-84821942D01*
X146972455Y-84821942D02*
X146972455Y-84012419D01*
X147305789Y-84012419D02*
X147877217Y-84012419D01*
X147591503Y-85012419D02*
X147591503Y-84012419D01*
X147512693Y-100202538D02*
X147417455Y-100154919D01*
X147417455Y-100154919D02*
X147274598Y-100154919D01*
X147274598Y-100154919D02*
X147131741Y-100202538D01*
X147131741Y-100202538D02*
X147036503Y-100297776D01*
X147036503Y-100297776D02*
X146988884Y-100393014D01*
X146988884Y-100393014D02*
X146941265Y-100583490D01*
X146941265Y-100583490D02*
X146941265Y-100726347D01*
X146941265Y-100726347D02*
X146988884Y-100916823D01*
X146988884Y-100916823D02*
X147036503Y-101012061D01*
X147036503Y-101012061D02*
X147131741Y-101107300D01*
X147131741Y-101107300D02*
X147274598Y-101154919D01*
X147274598Y-101154919D02*
X147369836Y-101154919D01*
X147369836Y-101154919D02*
X147512693Y-101107300D01*
X147512693Y-101107300D02*
X147560312Y-101059680D01*
X147560312Y-101059680D02*
X147560312Y-100726347D01*
X147560312Y-100726347D02*
X147369836Y-100726347D01*
X147988884Y-101154919D02*
X147988884Y-100154919D01*
X147988884Y-100154919D02*
X148560312Y-101154919D01*
X148560312Y-101154919D02*
X148560312Y-100154919D01*
X149036503Y-101154919D02*
X149036503Y-100154919D01*
X149036503Y-100154919D02*
X149274598Y-100154919D01*
X149274598Y-100154919D02*
X149417455Y-100202538D01*
X149417455Y-100202538D02*
X149512693Y-100297776D01*
X149512693Y-100297776D02*
X149560312Y-100393014D01*
X149560312Y-100393014D02*
X149607931Y-100583490D01*
X149607931Y-100583490D02*
X149607931Y-100726347D01*
X149607931Y-100726347D02*
X149560312Y-100916823D01*
X149560312Y-100916823D02*
X149512693Y-101012061D01*
X149512693Y-101012061D02*
X149417455Y-101107300D01*
X149417455Y-101107300D02*
X149274598Y-101154919D01*
X149274598Y-101154919D02*
X149036503Y-101154919D01*
X146988884Y-102996466D02*
X147750789Y-102996466D01*
X148750788Y-103377419D02*
X148179360Y-103377419D01*
X148465074Y-103377419D02*
X148465074Y-102377419D01*
X148465074Y-102377419D02*
X148369836Y-102520276D01*
X148369836Y-102520276D02*
X148274598Y-102615514D01*
X148274598Y-102615514D02*
X148179360Y-102663133D01*
X149131741Y-102472657D02*
X149179360Y-102425038D01*
X149179360Y-102425038D02*
X149274598Y-102377419D01*
X149274598Y-102377419D02*
X149512693Y-102377419D01*
X149512693Y-102377419D02*
X149607931Y-102425038D01*
X149607931Y-102425038D02*
X149655550Y-102472657D01*
X149655550Y-102472657D02*
X149703169Y-102567895D01*
X149703169Y-102567895D02*
X149703169Y-102663133D01*
X149703169Y-102663133D02*
X149655550Y-102805990D01*
X149655550Y-102805990D02*
X149084122Y-103377419D01*
X149084122Y-103377419D02*
X149703169Y-103377419D01*
X149988884Y-102377419D02*
X150322217Y-103377419D01*
X150322217Y-103377419D02*
X150655550Y-102377419D01*
X147093884Y-98551466D02*
X147855789Y-98551466D01*
X147474836Y-98932419D02*
X147474836Y-98170514D01*
X148855788Y-98932419D02*
X148284360Y-98932419D01*
X148570074Y-98932419D02*
X148570074Y-97932419D01*
X148570074Y-97932419D02*
X148474836Y-98075276D01*
X148474836Y-98075276D02*
X148379598Y-98170514D01*
X148379598Y-98170514D02*
X148284360Y-98218133D01*
X149236741Y-98027657D02*
X149284360Y-97980038D01*
X149284360Y-97980038D02*
X149379598Y-97932419D01*
X149379598Y-97932419D02*
X149617693Y-97932419D01*
X149617693Y-97932419D02*
X149712931Y-97980038D01*
X149712931Y-97980038D02*
X149760550Y-98027657D01*
X149760550Y-98027657D02*
X149808169Y-98122895D01*
X149808169Y-98122895D02*
X149808169Y-98218133D01*
X149808169Y-98218133D02*
X149760550Y-98360990D01*
X149760550Y-98360990D02*
X149189122Y-98932419D01*
X149189122Y-98932419D02*
X149808169Y-98932419D01*
X150093884Y-97932419D02*
X150427217Y-98932419D01*
X150427217Y-98932419D02*
X150760550Y-97932419D01*
X73532419Y-87961115D02*
X72532419Y-87961115D01*
X72532419Y-87961115D02*
X72532419Y-87723020D01*
X72532419Y-87723020D02*
X72580038Y-87580163D01*
X72580038Y-87580163D02*
X72675276Y-87484925D01*
X72675276Y-87484925D02*
X72770514Y-87437306D01*
X72770514Y-87437306D02*
X72960990Y-87389687D01*
X72960990Y-87389687D02*
X73103847Y-87389687D01*
X73103847Y-87389687D02*
X73294323Y-87437306D01*
X73294323Y-87437306D02*
X73389561Y-87484925D01*
X73389561Y-87484925D02*
X73484800Y-87580163D01*
X73484800Y-87580163D02*
X73532419Y-87723020D01*
X73532419Y-87723020D02*
X73532419Y-87961115D01*
X73246704Y-87008734D02*
X73246704Y-86532544D01*
X73532419Y-87103972D02*
X72532419Y-86770639D01*
X72532419Y-86770639D02*
X73532419Y-86437306D01*
X72532419Y-86246829D02*
X72532419Y-85675401D01*
X73532419Y-85961115D02*
X72532419Y-85961115D01*
X73246704Y-85389686D02*
X73246704Y-84913496D01*
X73532419Y-85484924D02*
X72532419Y-85151591D01*
X72532419Y-85151591D02*
X73532419Y-84818258D01*
X74913609Y-87627782D02*
X74961228Y-87484925D01*
X74961228Y-87484925D02*
X75008847Y-87437306D01*
X75008847Y-87437306D02*
X75104085Y-87389687D01*
X75104085Y-87389687D02*
X75246942Y-87389687D01*
X75246942Y-87389687D02*
X75342180Y-87437306D01*
X75342180Y-87437306D02*
X75389800Y-87484925D01*
X75389800Y-87484925D02*
X75437419Y-87580163D01*
X75437419Y-87580163D02*
X75437419Y-87961115D01*
X75437419Y-87961115D02*
X74437419Y-87961115D01*
X74437419Y-87961115D02*
X74437419Y-87627782D01*
X74437419Y-87627782D02*
X74485038Y-87532544D01*
X74485038Y-87532544D02*
X74532657Y-87484925D01*
X74532657Y-87484925D02*
X74627895Y-87437306D01*
X74627895Y-87437306D02*
X74723133Y-87437306D01*
X74723133Y-87437306D02*
X74818371Y-87484925D01*
X74818371Y-87484925D02*
X74865990Y-87532544D01*
X74865990Y-87532544D02*
X74913609Y-87627782D01*
X74913609Y-87627782D02*
X74913609Y-87961115D01*
X75342180Y-86389687D02*
X75389800Y-86437306D01*
X75389800Y-86437306D02*
X75437419Y-86580163D01*
X75437419Y-86580163D02*
X75437419Y-86675401D01*
X75437419Y-86675401D02*
X75389800Y-86818258D01*
X75389800Y-86818258D02*
X75294561Y-86913496D01*
X75294561Y-86913496D02*
X75199323Y-86961115D01*
X75199323Y-86961115D02*
X75008847Y-87008734D01*
X75008847Y-87008734D02*
X74865990Y-87008734D01*
X74865990Y-87008734D02*
X74675514Y-86961115D01*
X74675514Y-86961115D02*
X74580276Y-86913496D01*
X74580276Y-86913496D02*
X74485038Y-86818258D01*
X74485038Y-86818258D02*
X74437419Y-86675401D01*
X74437419Y-86675401D02*
X74437419Y-86580163D01*
X74437419Y-86580163D02*
X74485038Y-86437306D01*
X74485038Y-86437306D02*
X74532657Y-86389687D01*
X75437419Y-85484925D02*
X75437419Y-85961115D01*
X75437419Y-85961115D02*
X74437419Y-85961115D01*
X75437419Y-85151591D02*
X74437419Y-85151591D01*
X75437419Y-84580163D02*
X74865990Y-85008734D01*
X74437419Y-84580163D02*
X75008847Y-85151591D01*
X75151704Y-101978734D02*
X75151704Y-101502544D01*
X75437419Y-102073972D02*
X74437419Y-101740639D01*
X74437419Y-101740639D02*
X75437419Y-101407306D01*
X74437419Y-101073972D02*
X75246942Y-101073972D01*
X75246942Y-101073972D02*
X75342180Y-101026353D01*
X75342180Y-101026353D02*
X75389800Y-100978734D01*
X75389800Y-100978734D02*
X75437419Y-100883496D01*
X75437419Y-100883496D02*
X75437419Y-100693020D01*
X75437419Y-100693020D02*
X75389800Y-100597782D01*
X75389800Y-100597782D02*
X75342180Y-100550163D01*
X75342180Y-100550163D02*
X75246942Y-100502544D01*
X75246942Y-100502544D02*
X74437419Y-100502544D01*
X74437419Y-100121591D02*
X75437419Y-99454925D01*
X74437419Y-99454925D02*
X75437419Y-100121591D01*
X76342419Y-88056353D02*
X77342419Y-87818258D01*
X77342419Y-87818258D02*
X76628133Y-87627782D01*
X76628133Y-87627782D02*
X77342419Y-87437306D01*
X77342419Y-87437306D02*
X76342419Y-87199211D01*
X77247180Y-86246830D02*
X77294800Y-86294449D01*
X77294800Y-86294449D02*
X77342419Y-86437306D01*
X77342419Y-86437306D02*
X77342419Y-86532544D01*
X77342419Y-86532544D02*
X77294800Y-86675401D01*
X77294800Y-86675401D02*
X77199561Y-86770639D01*
X77199561Y-86770639D02*
X77104323Y-86818258D01*
X77104323Y-86818258D02*
X76913847Y-86865877D01*
X76913847Y-86865877D02*
X76770990Y-86865877D01*
X76770990Y-86865877D02*
X76580514Y-86818258D01*
X76580514Y-86818258D02*
X76485276Y-86770639D01*
X76485276Y-86770639D02*
X76390038Y-86675401D01*
X76390038Y-86675401D02*
X76342419Y-86532544D01*
X76342419Y-86532544D02*
X76342419Y-86437306D01*
X76342419Y-86437306D02*
X76390038Y-86294449D01*
X76390038Y-86294449D02*
X76437657Y-86246830D01*
X77342419Y-85342068D02*
X77342419Y-85818258D01*
X77342419Y-85818258D02*
X76342419Y-85818258D01*
X77342419Y-85008734D02*
X76342419Y-85008734D01*
X77342419Y-84437306D02*
X76770990Y-84865877D01*
X76342419Y-84437306D02*
X76913847Y-85008734D01*
X78295038Y-87437306D02*
X78247419Y-87532544D01*
X78247419Y-87532544D02*
X78247419Y-87675401D01*
X78247419Y-87675401D02*
X78295038Y-87818258D01*
X78295038Y-87818258D02*
X78390276Y-87913496D01*
X78390276Y-87913496D02*
X78485514Y-87961115D01*
X78485514Y-87961115D02*
X78675990Y-88008734D01*
X78675990Y-88008734D02*
X78818847Y-88008734D01*
X78818847Y-88008734D02*
X79009323Y-87961115D01*
X79009323Y-87961115D02*
X79104561Y-87913496D01*
X79104561Y-87913496D02*
X79199800Y-87818258D01*
X79199800Y-87818258D02*
X79247419Y-87675401D01*
X79247419Y-87675401D02*
X79247419Y-87580163D01*
X79247419Y-87580163D02*
X79199800Y-87437306D01*
X79199800Y-87437306D02*
X79152180Y-87389687D01*
X79152180Y-87389687D02*
X78818847Y-87389687D01*
X78818847Y-87389687D02*
X78818847Y-87580163D01*
X79247419Y-86961115D02*
X78247419Y-86961115D01*
X78247419Y-86961115D02*
X79247419Y-86389687D01*
X79247419Y-86389687D02*
X78247419Y-86389687D01*
X79247419Y-85913496D02*
X78247419Y-85913496D01*
X78247419Y-85913496D02*
X78247419Y-85675401D01*
X78247419Y-85675401D02*
X78295038Y-85532544D01*
X78295038Y-85532544D02*
X78390276Y-85437306D01*
X78390276Y-85437306D02*
X78485514Y-85389687D01*
X78485514Y-85389687D02*
X78675990Y-85342068D01*
X78675990Y-85342068D02*
X78818847Y-85342068D01*
X78818847Y-85342068D02*
X79009323Y-85389687D01*
X79009323Y-85389687D02*
X79104561Y-85437306D01*
X79104561Y-85437306D02*
X79199800Y-85532544D01*
X79199800Y-85532544D02*
X79247419Y-85675401D01*
X79247419Y-85675401D02*
X79247419Y-85913496D01*
D11*
X109847142Y-134979580D02*
X109799523Y-135027200D01*
X109799523Y-135027200D02*
X109656666Y-135074819D01*
X109656666Y-135074819D02*
X109561428Y-135074819D01*
X109561428Y-135074819D02*
X109418571Y-135027200D01*
X109418571Y-135027200D02*
X109323333Y-134931961D01*
X109323333Y-134931961D02*
X109275714Y-134836723D01*
X109275714Y-134836723D02*
X109228095Y-134646247D01*
X109228095Y-134646247D02*
X109228095Y-134503390D01*
X109228095Y-134503390D02*
X109275714Y-134312914D01*
X109275714Y-134312914D02*
X109323333Y-134217676D01*
X109323333Y-134217676D02*
X109418571Y-134122438D01*
X109418571Y-134122438D02*
X109561428Y-134074819D01*
X109561428Y-134074819D02*
X109656666Y-134074819D01*
X109656666Y-134074819D02*
X109799523Y-134122438D01*
X109799523Y-134122438D02*
X109847142Y-134170057D01*
X110799523Y-135074819D02*
X110228095Y-135074819D01*
X110513809Y-135074819D02*
X110513809Y-134074819D01*
X110513809Y-134074819D02*
X110418571Y-134217676D01*
X110418571Y-134217676D02*
X110323333Y-134312914D01*
X110323333Y-134312914D02*
X110228095Y-134360533D01*
X111656666Y-134074819D02*
X111466190Y-134074819D01*
X111466190Y-134074819D02*
X111370952Y-134122438D01*
X111370952Y-134122438D02*
X111323333Y-134170057D01*
X111323333Y-134170057D02*
X111228095Y-134312914D01*
X111228095Y-134312914D02*
X111180476Y-134503390D01*
X111180476Y-134503390D02*
X111180476Y-134884342D01*
X111180476Y-134884342D02*
X111228095Y-134979580D01*
X111228095Y-134979580D02*
X111275714Y-135027200D01*
X111275714Y-135027200D02*
X111370952Y-135074819D01*
X111370952Y-135074819D02*
X111561428Y-135074819D01*
X111561428Y-135074819D02*
X111656666Y-135027200D01*
X111656666Y-135027200D02*
X111704285Y-134979580D01*
X111704285Y-134979580D02*
X111751904Y-134884342D01*
X111751904Y-134884342D02*
X111751904Y-134646247D01*
X111751904Y-134646247D02*
X111704285Y-134551009D01*
X111704285Y-134551009D02*
X111656666Y-134503390D01*
X111656666Y-134503390D02*
X111561428Y-134455771D01*
X111561428Y-134455771D02*
X111370952Y-134455771D01*
X111370952Y-134455771D02*
X111275714Y-134503390D01*
X111275714Y-134503390D02*
X111228095Y-134551009D01*
X111228095Y-134551009D02*
X111180476Y-134646247D01*
X139057142Y-121744819D02*
X138723809Y-121268628D01*
X138485714Y-121744819D02*
X138485714Y-120744819D01*
X138485714Y-120744819D02*
X138866666Y-120744819D01*
X138866666Y-120744819D02*
X138961904Y-120792438D01*
X138961904Y-120792438D02*
X139009523Y-120840057D01*
X139009523Y-120840057D02*
X139057142Y-120935295D01*
X139057142Y-120935295D02*
X139057142Y-121078152D01*
X139057142Y-121078152D02*
X139009523Y-121173390D01*
X139009523Y-121173390D02*
X138961904Y-121221009D01*
X138961904Y-121221009D02*
X138866666Y-121268628D01*
X138866666Y-121268628D02*
X138485714Y-121268628D01*
X140009523Y-121744819D02*
X139438095Y-121744819D01*
X139723809Y-121744819D02*
X139723809Y-120744819D01*
X139723809Y-120744819D02*
X139628571Y-120887676D01*
X139628571Y-120887676D02*
X139533333Y-120982914D01*
X139533333Y-120982914D02*
X139438095Y-121030533D01*
X140961904Y-121744819D02*
X140390476Y-121744819D01*
X140676190Y-121744819D02*
X140676190Y-120744819D01*
X140676190Y-120744819D02*
X140580952Y-120887676D01*
X140580952Y-120887676D02*
X140485714Y-120982914D01*
X140485714Y-120982914D02*
X140390476Y-121030533D01*
X105243333Y-63859580D02*
X105195714Y-63907200D01*
X105195714Y-63907200D02*
X105052857Y-63954819D01*
X105052857Y-63954819D02*
X104957619Y-63954819D01*
X104957619Y-63954819D02*
X104814762Y-63907200D01*
X104814762Y-63907200D02*
X104719524Y-63811961D01*
X104719524Y-63811961D02*
X104671905Y-63716723D01*
X104671905Y-63716723D02*
X104624286Y-63526247D01*
X104624286Y-63526247D02*
X104624286Y-63383390D01*
X104624286Y-63383390D02*
X104671905Y-63192914D01*
X104671905Y-63192914D02*
X104719524Y-63097676D01*
X104719524Y-63097676D02*
X104814762Y-63002438D01*
X104814762Y-63002438D02*
X104957619Y-62954819D01*
X104957619Y-62954819D02*
X105052857Y-62954819D01*
X105052857Y-62954819D02*
X105195714Y-63002438D01*
X105195714Y-63002438D02*
X105243333Y-63050057D01*
X105624286Y-63050057D02*
X105671905Y-63002438D01*
X105671905Y-63002438D02*
X105767143Y-62954819D01*
X105767143Y-62954819D02*
X106005238Y-62954819D01*
X106005238Y-62954819D02*
X106100476Y-63002438D01*
X106100476Y-63002438D02*
X106148095Y-63050057D01*
X106148095Y-63050057D02*
X106195714Y-63145295D01*
X106195714Y-63145295D02*
X106195714Y-63240533D01*
X106195714Y-63240533D02*
X106148095Y-63383390D01*
X106148095Y-63383390D02*
X105576667Y-63954819D01*
X105576667Y-63954819D02*
X106195714Y-63954819D01*
X116099793Y-85449580D02*
X116052174Y-85497200D01*
X116052174Y-85497200D02*
X115909317Y-85544819D01*
X115909317Y-85544819D02*
X115814079Y-85544819D01*
X115814079Y-85544819D02*
X115671222Y-85497200D01*
X115671222Y-85497200D02*
X115575984Y-85401961D01*
X115575984Y-85401961D02*
X115528365Y-85306723D01*
X115528365Y-85306723D02*
X115480746Y-85116247D01*
X115480746Y-85116247D02*
X115480746Y-84973390D01*
X115480746Y-84973390D02*
X115528365Y-84782914D01*
X115528365Y-84782914D02*
X115575984Y-84687676D01*
X115575984Y-84687676D02*
X115671222Y-84592438D01*
X115671222Y-84592438D02*
X115814079Y-84544819D01*
X115814079Y-84544819D02*
X115909317Y-84544819D01*
X115909317Y-84544819D02*
X116052174Y-84592438D01*
X116052174Y-84592438D02*
X116099793Y-84640057D01*
X117052174Y-85544819D02*
X116480746Y-85544819D01*
X116766460Y-85544819D02*
X116766460Y-84544819D01*
X116766460Y-84544819D02*
X116671222Y-84687676D01*
X116671222Y-84687676D02*
X116575984Y-84782914D01*
X116575984Y-84782914D02*
X116480746Y-84830533D01*
X117956936Y-84544819D02*
X117480746Y-84544819D01*
X117480746Y-84544819D02*
X117433127Y-85021009D01*
X117433127Y-85021009D02*
X117480746Y-84973390D01*
X117480746Y-84973390D02*
X117575984Y-84925771D01*
X117575984Y-84925771D02*
X117814079Y-84925771D01*
X117814079Y-84925771D02*
X117909317Y-84973390D01*
X117909317Y-84973390D02*
X117956936Y-85021009D01*
X117956936Y-85021009D02*
X118004555Y-85116247D01*
X118004555Y-85116247D02*
X118004555Y-85354342D01*
X118004555Y-85354342D02*
X117956936Y-85449580D01*
X117956936Y-85449580D02*
X117909317Y-85497200D01*
X117909317Y-85497200D02*
X117814079Y-85544819D01*
X117814079Y-85544819D02*
X117575984Y-85544819D01*
X117575984Y-85544819D02*
X117480746Y-85497200D01*
X117480746Y-85497200D02*
X117433127Y-85449580D01*
X139533333Y-117934819D02*
X139200000Y-117458628D01*
X138961905Y-117934819D02*
X138961905Y-116934819D01*
X138961905Y-116934819D02*
X139342857Y-116934819D01*
X139342857Y-116934819D02*
X139438095Y-116982438D01*
X139438095Y-116982438D02*
X139485714Y-117030057D01*
X139485714Y-117030057D02*
X139533333Y-117125295D01*
X139533333Y-117125295D02*
X139533333Y-117268152D01*
X139533333Y-117268152D02*
X139485714Y-117363390D01*
X139485714Y-117363390D02*
X139438095Y-117411009D01*
X139438095Y-117411009D02*
X139342857Y-117458628D01*
X139342857Y-117458628D02*
X138961905Y-117458628D01*
X140104762Y-117363390D02*
X140009524Y-117315771D01*
X140009524Y-117315771D02*
X139961905Y-117268152D01*
X139961905Y-117268152D02*
X139914286Y-117172914D01*
X139914286Y-117172914D02*
X139914286Y-117125295D01*
X139914286Y-117125295D02*
X139961905Y-117030057D01*
X139961905Y-117030057D02*
X140009524Y-116982438D01*
X140009524Y-116982438D02*
X140104762Y-116934819D01*
X140104762Y-116934819D02*
X140295238Y-116934819D01*
X140295238Y-116934819D02*
X140390476Y-116982438D01*
X140390476Y-116982438D02*
X140438095Y-117030057D01*
X140438095Y-117030057D02*
X140485714Y-117125295D01*
X140485714Y-117125295D02*
X140485714Y-117172914D01*
X140485714Y-117172914D02*
X140438095Y-117268152D01*
X140438095Y-117268152D02*
X140390476Y-117315771D01*
X140390476Y-117315771D02*
X140295238Y-117363390D01*
X140295238Y-117363390D02*
X140104762Y-117363390D01*
X140104762Y-117363390D02*
X140009524Y-117411009D01*
X140009524Y-117411009D02*
X139961905Y-117458628D01*
X139961905Y-117458628D02*
X139914286Y-117553866D01*
X139914286Y-117553866D02*
X139914286Y-117744342D01*
X139914286Y-117744342D02*
X139961905Y-117839580D01*
X139961905Y-117839580D02*
X140009524Y-117887200D01*
X140009524Y-117887200D02*
X140104762Y-117934819D01*
X140104762Y-117934819D02*
X140295238Y-117934819D01*
X140295238Y-117934819D02*
X140390476Y-117887200D01*
X140390476Y-117887200D02*
X140438095Y-117839580D01*
X140438095Y-117839580D02*
X140485714Y-117744342D01*
X140485714Y-117744342D02*
X140485714Y-117553866D01*
X140485714Y-117553866D02*
X140438095Y-117458628D01*
X140438095Y-117458628D02*
X140390476Y-117411009D01*
X140390476Y-117411009D02*
X140295238Y-117363390D01*
X126238095Y-65704819D02*
X126238095Y-66514342D01*
X126238095Y-66514342D02*
X126285714Y-66609580D01*
X126285714Y-66609580D02*
X126333333Y-66657200D01*
X126333333Y-66657200D02*
X126428571Y-66704819D01*
X126428571Y-66704819D02*
X126619047Y-66704819D01*
X126619047Y-66704819D02*
X126714285Y-66657200D01*
X126714285Y-66657200D02*
X126761904Y-66609580D01*
X126761904Y-66609580D02*
X126809523Y-66514342D01*
X126809523Y-66514342D02*
X126809523Y-65704819D01*
X127238095Y-65800057D02*
X127285714Y-65752438D01*
X127285714Y-65752438D02*
X127380952Y-65704819D01*
X127380952Y-65704819D02*
X127619047Y-65704819D01*
X127619047Y-65704819D02*
X127714285Y-65752438D01*
X127714285Y-65752438D02*
X127761904Y-65800057D01*
X127761904Y-65800057D02*
X127809523Y-65895295D01*
X127809523Y-65895295D02*
X127809523Y-65990533D01*
X127809523Y-65990533D02*
X127761904Y-66133390D01*
X127761904Y-66133390D02*
X127190476Y-66704819D01*
X127190476Y-66704819D02*
X127809523Y-66704819D01*
X75176142Y-64828819D02*
X74842809Y-64352628D01*
X74604714Y-64828819D02*
X74604714Y-63828819D01*
X74604714Y-63828819D02*
X74985666Y-63828819D01*
X74985666Y-63828819D02*
X75080904Y-63876438D01*
X75080904Y-63876438D02*
X75128523Y-63924057D01*
X75128523Y-63924057D02*
X75176142Y-64019295D01*
X75176142Y-64019295D02*
X75176142Y-64162152D01*
X75176142Y-64162152D02*
X75128523Y-64257390D01*
X75128523Y-64257390D02*
X75080904Y-64305009D01*
X75080904Y-64305009D02*
X74985666Y-64352628D01*
X74985666Y-64352628D02*
X74604714Y-64352628D01*
X76128523Y-64828819D02*
X75557095Y-64828819D01*
X75842809Y-64828819D02*
X75842809Y-63828819D01*
X75842809Y-63828819D02*
X75747571Y-63971676D01*
X75747571Y-63971676D02*
X75652333Y-64066914D01*
X75652333Y-64066914D02*
X75557095Y-64114533D01*
X77033285Y-63828819D02*
X76557095Y-63828819D01*
X76557095Y-63828819D02*
X76509476Y-64305009D01*
X76509476Y-64305009D02*
X76557095Y-64257390D01*
X76557095Y-64257390D02*
X76652333Y-64209771D01*
X76652333Y-64209771D02*
X76890428Y-64209771D01*
X76890428Y-64209771D02*
X76985666Y-64257390D01*
X76985666Y-64257390D02*
X77033285Y-64305009D01*
X77033285Y-64305009D02*
X77080904Y-64400247D01*
X77080904Y-64400247D02*
X77080904Y-64638342D01*
X77080904Y-64638342D02*
X77033285Y-64733580D01*
X77033285Y-64733580D02*
X76985666Y-64781200D01*
X76985666Y-64781200D02*
X76890428Y-64828819D01*
X76890428Y-64828819D02*
X76652333Y-64828819D01*
X76652333Y-64828819D02*
X76557095Y-64781200D01*
X76557095Y-64781200D02*
X76509476Y-64733580D01*
X114128333Y-78544819D02*
X113795000Y-78068628D01*
X113556905Y-78544819D02*
X113556905Y-77544819D01*
X113556905Y-77544819D02*
X113937857Y-77544819D01*
X113937857Y-77544819D02*
X114033095Y-77592438D01*
X114033095Y-77592438D02*
X114080714Y-77640057D01*
X114080714Y-77640057D02*
X114128333Y-77735295D01*
X114128333Y-77735295D02*
X114128333Y-77878152D01*
X114128333Y-77878152D02*
X114080714Y-77973390D01*
X114080714Y-77973390D02*
X114033095Y-78021009D01*
X114033095Y-78021009D02*
X113937857Y-78068628D01*
X113937857Y-78068628D02*
X113556905Y-78068628D01*
X114509286Y-77640057D02*
X114556905Y-77592438D01*
X114556905Y-77592438D02*
X114652143Y-77544819D01*
X114652143Y-77544819D02*
X114890238Y-77544819D01*
X114890238Y-77544819D02*
X114985476Y-77592438D01*
X114985476Y-77592438D02*
X115033095Y-77640057D01*
X115033095Y-77640057D02*
X115080714Y-77735295D01*
X115080714Y-77735295D02*
X115080714Y-77830533D01*
X115080714Y-77830533D02*
X115033095Y-77973390D01*
X115033095Y-77973390D02*
X114461667Y-78544819D01*
X114461667Y-78544819D02*
X115080714Y-78544819D01*
X127508095Y-96954819D02*
X127508095Y-97764342D01*
X127508095Y-97764342D02*
X127555714Y-97859580D01*
X127555714Y-97859580D02*
X127603333Y-97907200D01*
X127603333Y-97907200D02*
X127698571Y-97954819D01*
X127698571Y-97954819D02*
X127889047Y-97954819D01*
X127889047Y-97954819D02*
X127984285Y-97907200D01*
X127984285Y-97907200D02*
X128031904Y-97859580D01*
X128031904Y-97859580D02*
X128079523Y-97764342D01*
X128079523Y-97764342D02*
X128079523Y-96954819D01*
X128984285Y-97288152D02*
X128984285Y-97954819D01*
X128746190Y-96907200D02*
X128508095Y-97621485D01*
X128508095Y-97621485D02*
X129127142Y-97621485D01*
X114128333Y-70924819D02*
X113795000Y-70448628D01*
X113556905Y-70924819D02*
X113556905Y-69924819D01*
X113556905Y-69924819D02*
X113937857Y-69924819D01*
X113937857Y-69924819D02*
X114033095Y-69972438D01*
X114033095Y-69972438D02*
X114080714Y-70020057D01*
X114080714Y-70020057D02*
X114128333Y-70115295D01*
X114128333Y-70115295D02*
X114128333Y-70258152D01*
X114128333Y-70258152D02*
X114080714Y-70353390D01*
X114080714Y-70353390D02*
X114033095Y-70401009D01*
X114033095Y-70401009D02*
X113937857Y-70448628D01*
X113937857Y-70448628D02*
X113556905Y-70448628D01*
X114985476Y-69924819D02*
X114795000Y-69924819D01*
X114795000Y-69924819D02*
X114699762Y-69972438D01*
X114699762Y-69972438D02*
X114652143Y-70020057D01*
X114652143Y-70020057D02*
X114556905Y-70162914D01*
X114556905Y-70162914D02*
X114509286Y-70353390D01*
X114509286Y-70353390D02*
X114509286Y-70734342D01*
X114509286Y-70734342D02*
X114556905Y-70829580D01*
X114556905Y-70829580D02*
X114604524Y-70877200D01*
X114604524Y-70877200D02*
X114699762Y-70924819D01*
X114699762Y-70924819D02*
X114890238Y-70924819D01*
X114890238Y-70924819D02*
X114985476Y-70877200D01*
X114985476Y-70877200D02*
X115033095Y-70829580D01*
X115033095Y-70829580D02*
X115080714Y-70734342D01*
X115080714Y-70734342D02*
X115080714Y-70496247D01*
X115080714Y-70496247D02*
X115033095Y-70401009D01*
X115033095Y-70401009D02*
X114985476Y-70353390D01*
X114985476Y-70353390D02*
X114890238Y-70305771D01*
X114890238Y-70305771D02*
X114699762Y-70305771D01*
X114699762Y-70305771D02*
X114604524Y-70353390D01*
X114604524Y-70353390D02*
X114556905Y-70401009D01*
X114556905Y-70401009D02*
X114509286Y-70496247D01*
X72326667Y-115407200D02*
X72469524Y-115454819D01*
X72469524Y-115454819D02*
X72707619Y-115454819D01*
X72707619Y-115454819D02*
X72802857Y-115407200D01*
X72802857Y-115407200D02*
X72850476Y-115359580D01*
X72850476Y-115359580D02*
X72898095Y-115264342D01*
X72898095Y-115264342D02*
X72898095Y-115169104D01*
X72898095Y-115169104D02*
X72850476Y-115073866D01*
X72850476Y-115073866D02*
X72802857Y-115026247D01*
X72802857Y-115026247D02*
X72707619Y-114978628D01*
X72707619Y-114978628D02*
X72517143Y-114931009D01*
X72517143Y-114931009D02*
X72421905Y-114883390D01*
X72421905Y-114883390D02*
X72374286Y-114835771D01*
X72374286Y-114835771D02*
X72326667Y-114740533D01*
X72326667Y-114740533D02*
X72326667Y-114645295D01*
X72326667Y-114645295D02*
X72374286Y-114550057D01*
X72374286Y-114550057D02*
X72421905Y-114502438D01*
X72421905Y-114502438D02*
X72517143Y-114454819D01*
X72517143Y-114454819D02*
X72755238Y-114454819D01*
X72755238Y-114454819D02*
X72898095Y-114502438D01*
X73231429Y-114454819D02*
X73469524Y-115454819D01*
X73469524Y-115454819D02*
X73660000Y-114740533D01*
X73660000Y-114740533D02*
X73850476Y-115454819D01*
X73850476Y-115454819D02*
X74088572Y-114454819D01*
X74993333Y-115454819D02*
X74421905Y-115454819D01*
X74707619Y-115454819D02*
X74707619Y-114454819D01*
X74707619Y-114454819D02*
X74612381Y-114597676D01*
X74612381Y-114597676D02*
X74517143Y-114692914D01*
X74517143Y-114692914D02*
X74421905Y-114740533D01*
X139057142Y-129919580D02*
X139009523Y-129967200D01*
X139009523Y-129967200D02*
X138866666Y-130014819D01*
X138866666Y-130014819D02*
X138771428Y-130014819D01*
X138771428Y-130014819D02*
X138628571Y-129967200D01*
X138628571Y-129967200D02*
X138533333Y-129871961D01*
X138533333Y-129871961D02*
X138485714Y-129776723D01*
X138485714Y-129776723D02*
X138438095Y-129586247D01*
X138438095Y-129586247D02*
X138438095Y-129443390D01*
X138438095Y-129443390D02*
X138485714Y-129252914D01*
X138485714Y-129252914D02*
X138533333Y-129157676D01*
X138533333Y-129157676D02*
X138628571Y-129062438D01*
X138628571Y-129062438D02*
X138771428Y-129014819D01*
X138771428Y-129014819D02*
X138866666Y-129014819D01*
X138866666Y-129014819D02*
X139009523Y-129062438D01*
X139009523Y-129062438D02*
X139057142Y-129110057D01*
X140009523Y-130014819D02*
X139438095Y-130014819D01*
X139723809Y-130014819D02*
X139723809Y-129014819D01*
X139723809Y-129014819D02*
X139628571Y-129157676D01*
X139628571Y-129157676D02*
X139533333Y-129252914D01*
X139533333Y-129252914D02*
X139438095Y-129300533D01*
X140866666Y-129348152D02*
X140866666Y-130014819D01*
X140628571Y-128967200D02*
X140390476Y-129681485D01*
X140390476Y-129681485D02*
X141009523Y-129681485D01*
X139528333Y-84179580D02*
X139480714Y-84227200D01*
X139480714Y-84227200D02*
X139337857Y-84274819D01*
X139337857Y-84274819D02*
X139242619Y-84274819D01*
X139242619Y-84274819D02*
X139099762Y-84227200D01*
X139099762Y-84227200D02*
X139004524Y-84131961D01*
X139004524Y-84131961D02*
X138956905Y-84036723D01*
X138956905Y-84036723D02*
X138909286Y-83846247D01*
X138909286Y-83846247D02*
X138909286Y-83703390D01*
X138909286Y-83703390D02*
X138956905Y-83512914D01*
X138956905Y-83512914D02*
X139004524Y-83417676D01*
X139004524Y-83417676D02*
X139099762Y-83322438D01*
X139099762Y-83322438D02*
X139242619Y-83274819D01*
X139242619Y-83274819D02*
X139337857Y-83274819D01*
X139337857Y-83274819D02*
X139480714Y-83322438D01*
X139480714Y-83322438D02*
X139528333Y-83370057D01*
X139861667Y-83274819D02*
X140480714Y-83274819D01*
X140480714Y-83274819D02*
X140147381Y-83655771D01*
X140147381Y-83655771D02*
X140290238Y-83655771D01*
X140290238Y-83655771D02*
X140385476Y-83703390D01*
X140385476Y-83703390D02*
X140433095Y-83751009D01*
X140433095Y-83751009D02*
X140480714Y-83846247D01*
X140480714Y-83846247D02*
X140480714Y-84084342D01*
X140480714Y-84084342D02*
X140433095Y-84179580D01*
X140433095Y-84179580D02*
X140385476Y-84227200D01*
X140385476Y-84227200D02*
X140290238Y-84274819D01*
X140290238Y-84274819D02*
X140004524Y-84274819D01*
X140004524Y-84274819D02*
X139909286Y-84227200D01*
X139909286Y-84227200D02*
X139861667Y-84179580D01*
X126357142Y-111929580D02*
X126309523Y-111977200D01*
X126309523Y-111977200D02*
X126166666Y-112024819D01*
X126166666Y-112024819D02*
X126071428Y-112024819D01*
X126071428Y-112024819D02*
X125928571Y-111977200D01*
X125928571Y-111977200D02*
X125833333Y-111881961D01*
X125833333Y-111881961D02*
X125785714Y-111786723D01*
X125785714Y-111786723D02*
X125738095Y-111596247D01*
X125738095Y-111596247D02*
X125738095Y-111453390D01*
X125738095Y-111453390D02*
X125785714Y-111262914D01*
X125785714Y-111262914D02*
X125833333Y-111167676D01*
X125833333Y-111167676D02*
X125928571Y-111072438D01*
X125928571Y-111072438D02*
X126071428Y-111024819D01*
X126071428Y-111024819D02*
X126166666Y-111024819D01*
X126166666Y-111024819D02*
X126309523Y-111072438D01*
X126309523Y-111072438D02*
X126357142Y-111120057D01*
X127309523Y-112024819D02*
X126738095Y-112024819D01*
X127023809Y-112024819D02*
X127023809Y-111024819D01*
X127023809Y-111024819D02*
X126928571Y-111167676D01*
X126928571Y-111167676D02*
X126833333Y-111262914D01*
X126833333Y-111262914D02*
X126738095Y-111310533D01*
X128261904Y-112024819D02*
X127690476Y-112024819D01*
X127976190Y-112024819D02*
X127976190Y-111024819D01*
X127976190Y-111024819D02*
X127880952Y-111167676D01*
X127880952Y-111167676D02*
X127785714Y-111262914D01*
X127785714Y-111262914D02*
X127690476Y-111310533D01*
X105243333Y-114659580D02*
X105195714Y-114707200D01*
X105195714Y-114707200D02*
X105052857Y-114754819D01*
X105052857Y-114754819D02*
X104957619Y-114754819D01*
X104957619Y-114754819D02*
X104814762Y-114707200D01*
X104814762Y-114707200D02*
X104719524Y-114611961D01*
X104719524Y-114611961D02*
X104671905Y-114516723D01*
X104671905Y-114516723D02*
X104624286Y-114326247D01*
X104624286Y-114326247D02*
X104624286Y-114183390D01*
X104624286Y-114183390D02*
X104671905Y-113992914D01*
X104671905Y-113992914D02*
X104719524Y-113897676D01*
X104719524Y-113897676D02*
X104814762Y-113802438D01*
X104814762Y-113802438D02*
X104957619Y-113754819D01*
X104957619Y-113754819D02*
X105052857Y-113754819D01*
X105052857Y-113754819D02*
X105195714Y-113802438D01*
X105195714Y-113802438D02*
X105243333Y-113850057D01*
X106100476Y-113754819D02*
X105910000Y-113754819D01*
X105910000Y-113754819D02*
X105814762Y-113802438D01*
X105814762Y-113802438D02*
X105767143Y-113850057D01*
X105767143Y-113850057D02*
X105671905Y-113992914D01*
X105671905Y-113992914D02*
X105624286Y-114183390D01*
X105624286Y-114183390D02*
X105624286Y-114564342D01*
X105624286Y-114564342D02*
X105671905Y-114659580D01*
X105671905Y-114659580D02*
X105719524Y-114707200D01*
X105719524Y-114707200D02*
X105814762Y-114754819D01*
X105814762Y-114754819D02*
X106005238Y-114754819D01*
X106005238Y-114754819D02*
X106100476Y-114707200D01*
X106100476Y-114707200D02*
X106148095Y-114659580D01*
X106148095Y-114659580D02*
X106195714Y-114564342D01*
X106195714Y-114564342D02*
X106195714Y-114326247D01*
X106195714Y-114326247D02*
X106148095Y-114231009D01*
X106148095Y-114231009D02*
X106100476Y-114183390D01*
X106100476Y-114183390D02*
X106005238Y-114135771D01*
X106005238Y-114135771D02*
X105814762Y-114135771D01*
X105814762Y-114135771D02*
X105719524Y-114183390D01*
X105719524Y-114183390D02*
X105671905Y-114231009D01*
X105671905Y-114231009D02*
X105624286Y-114326247D01*
X114128333Y-61319580D02*
X114080714Y-61367200D01*
X114080714Y-61367200D02*
X113937857Y-61414819D01*
X113937857Y-61414819D02*
X113842619Y-61414819D01*
X113842619Y-61414819D02*
X113699762Y-61367200D01*
X113699762Y-61367200D02*
X113604524Y-61271961D01*
X113604524Y-61271961D02*
X113556905Y-61176723D01*
X113556905Y-61176723D02*
X113509286Y-60986247D01*
X113509286Y-60986247D02*
X113509286Y-60843390D01*
X113509286Y-60843390D02*
X113556905Y-60652914D01*
X113556905Y-60652914D02*
X113604524Y-60557676D01*
X113604524Y-60557676D02*
X113699762Y-60462438D01*
X113699762Y-60462438D02*
X113842619Y-60414819D01*
X113842619Y-60414819D02*
X113937857Y-60414819D01*
X113937857Y-60414819D02*
X114080714Y-60462438D01*
X114080714Y-60462438D02*
X114128333Y-60510057D01*
X115080714Y-61414819D02*
X114509286Y-61414819D01*
X114795000Y-61414819D02*
X114795000Y-60414819D01*
X114795000Y-60414819D02*
X114699762Y-60557676D01*
X114699762Y-60557676D02*
X114604524Y-60652914D01*
X114604524Y-60652914D02*
X114509286Y-60700533D01*
X113657142Y-121744819D02*
X113323809Y-121268628D01*
X113085714Y-121744819D02*
X113085714Y-120744819D01*
X113085714Y-120744819D02*
X113466666Y-120744819D01*
X113466666Y-120744819D02*
X113561904Y-120792438D01*
X113561904Y-120792438D02*
X113609523Y-120840057D01*
X113609523Y-120840057D02*
X113657142Y-120935295D01*
X113657142Y-120935295D02*
X113657142Y-121078152D01*
X113657142Y-121078152D02*
X113609523Y-121173390D01*
X113609523Y-121173390D02*
X113561904Y-121221009D01*
X113561904Y-121221009D02*
X113466666Y-121268628D01*
X113466666Y-121268628D02*
X113085714Y-121268628D01*
X114609523Y-121744819D02*
X114038095Y-121744819D01*
X114323809Y-121744819D02*
X114323809Y-120744819D01*
X114323809Y-120744819D02*
X114228571Y-120887676D01*
X114228571Y-120887676D02*
X114133333Y-120982914D01*
X114133333Y-120982914D02*
X114038095Y-121030533D01*
X114990476Y-120840057D02*
X115038095Y-120792438D01*
X115038095Y-120792438D02*
X115133333Y-120744819D01*
X115133333Y-120744819D02*
X115371428Y-120744819D01*
X115371428Y-120744819D02*
X115466666Y-120792438D01*
X115466666Y-120792438D02*
X115514285Y-120840057D01*
X115514285Y-120840057D02*
X115561904Y-120935295D01*
X115561904Y-120935295D02*
X115561904Y-121030533D01*
X115561904Y-121030533D02*
X115514285Y-121173390D01*
X115514285Y-121173390D02*
X114942857Y-121744819D01*
X114942857Y-121744819D02*
X115561904Y-121744819D01*
X108559580Y-129726666D02*
X108607200Y-129774285D01*
X108607200Y-129774285D02*
X108654819Y-129917142D01*
X108654819Y-129917142D02*
X108654819Y-130012380D01*
X108654819Y-130012380D02*
X108607200Y-130155237D01*
X108607200Y-130155237D02*
X108511961Y-130250475D01*
X108511961Y-130250475D02*
X108416723Y-130298094D01*
X108416723Y-130298094D02*
X108226247Y-130345713D01*
X108226247Y-130345713D02*
X108083390Y-130345713D01*
X108083390Y-130345713D02*
X107892914Y-130298094D01*
X107892914Y-130298094D02*
X107797676Y-130250475D01*
X107797676Y-130250475D02*
X107702438Y-130155237D01*
X107702438Y-130155237D02*
X107654819Y-130012380D01*
X107654819Y-130012380D02*
X107654819Y-129917142D01*
X107654819Y-129917142D02*
X107702438Y-129774285D01*
X107702438Y-129774285D02*
X107750057Y-129726666D01*
X107654819Y-129393332D02*
X107654819Y-128726666D01*
X107654819Y-128726666D02*
X108654819Y-129155237D01*
X114128333Y-67114819D02*
X113795000Y-66638628D01*
X113556905Y-67114819D02*
X113556905Y-66114819D01*
X113556905Y-66114819D02*
X113937857Y-66114819D01*
X113937857Y-66114819D02*
X114033095Y-66162438D01*
X114033095Y-66162438D02*
X114080714Y-66210057D01*
X114080714Y-66210057D02*
X114128333Y-66305295D01*
X114128333Y-66305295D02*
X114128333Y-66448152D01*
X114128333Y-66448152D02*
X114080714Y-66543390D01*
X114080714Y-66543390D02*
X114033095Y-66591009D01*
X114033095Y-66591009D02*
X113937857Y-66638628D01*
X113937857Y-66638628D02*
X113556905Y-66638628D01*
X115080714Y-67114819D02*
X114509286Y-67114819D01*
X114795000Y-67114819D02*
X114795000Y-66114819D01*
X114795000Y-66114819D02*
X114699762Y-66257676D01*
X114699762Y-66257676D02*
X114604524Y-66352914D01*
X114604524Y-66352914D02*
X114509286Y-66400533D01*
X139528333Y-79309580D02*
X139480714Y-79357200D01*
X139480714Y-79357200D02*
X139337857Y-79404819D01*
X139337857Y-79404819D02*
X139242619Y-79404819D01*
X139242619Y-79404819D02*
X139099762Y-79357200D01*
X139099762Y-79357200D02*
X139004524Y-79261961D01*
X139004524Y-79261961D02*
X138956905Y-79166723D01*
X138956905Y-79166723D02*
X138909286Y-78976247D01*
X138909286Y-78976247D02*
X138909286Y-78833390D01*
X138909286Y-78833390D02*
X138956905Y-78642914D01*
X138956905Y-78642914D02*
X139004524Y-78547676D01*
X139004524Y-78547676D02*
X139099762Y-78452438D01*
X139099762Y-78452438D02*
X139242619Y-78404819D01*
X139242619Y-78404819D02*
X139337857Y-78404819D01*
X139337857Y-78404819D02*
X139480714Y-78452438D01*
X139480714Y-78452438D02*
X139528333Y-78500057D01*
X140385476Y-78738152D02*
X140385476Y-79404819D01*
X140147381Y-78357200D02*
X139909286Y-79071485D01*
X139909286Y-79071485D02*
X140528333Y-79071485D01*
X114133333Y-125527819D02*
X113800000Y-125051628D01*
X113561905Y-125527819D02*
X113561905Y-124527819D01*
X113561905Y-124527819D02*
X113942857Y-124527819D01*
X113942857Y-124527819D02*
X114038095Y-124575438D01*
X114038095Y-124575438D02*
X114085714Y-124623057D01*
X114085714Y-124623057D02*
X114133333Y-124718295D01*
X114133333Y-124718295D02*
X114133333Y-124861152D01*
X114133333Y-124861152D02*
X114085714Y-124956390D01*
X114085714Y-124956390D02*
X114038095Y-125004009D01*
X114038095Y-125004009D02*
X113942857Y-125051628D01*
X113942857Y-125051628D02*
X113561905Y-125051628D01*
X114466667Y-124527819D02*
X115133333Y-124527819D01*
X115133333Y-124527819D02*
X114704762Y-125527819D01*
X126243095Y-116524819D02*
X126243095Y-117334342D01*
X126243095Y-117334342D02*
X126290714Y-117429580D01*
X126290714Y-117429580D02*
X126338333Y-117477200D01*
X126338333Y-117477200D02*
X126433571Y-117524819D01*
X126433571Y-117524819D02*
X126624047Y-117524819D01*
X126624047Y-117524819D02*
X126719285Y-117477200D01*
X126719285Y-117477200D02*
X126766904Y-117429580D01*
X126766904Y-117429580D02*
X126814523Y-117334342D01*
X126814523Y-117334342D02*
X126814523Y-116524819D01*
X127195476Y-116524819D02*
X127814523Y-116524819D01*
X127814523Y-116524819D02*
X127481190Y-116905771D01*
X127481190Y-116905771D02*
X127624047Y-116905771D01*
X127624047Y-116905771D02*
X127719285Y-116953390D01*
X127719285Y-116953390D02*
X127766904Y-117001009D01*
X127766904Y-117001009D02*
X127814523Y-117096247D01*
X127814523Y-117096247D02*
X127814523Y-117334342D01*
X127814523Y-117334342D02*
X127766904Y-117429580D01*
X127766904Y-117429580D02*
X127719285Y-117477200D01*
X127719285Y-117477200D02*
X127624047Y-117524819D01*
X127624047Y-117524819D02*
X127338333Y-117524819D01*
X127338333Y-117524819D02*
X127243095Y-117477200D01*
X127243095Y-117477200D02*
X127195476Y-117429580D01*
X104671905Y-94434819D02*
X104671905Y-93434819D01*
X104671905Y-93434819D02*
X104910000Y-93434819D01*
X104910000Y-93434819D02*
X105052857Y-93482438D01*
X105052857Y-93482438D02*
X105148095Y-93577676D01*
X105148095Y-93577676D02*
X105195714Y-93672914D01*
X105195714Y-93672914D02*
X105243333Y-93863390D01*
X105243333Y-93863390D02*
X105243333Y-94006247D01*
X105243333Y-94006247D02*
X105195714Y-94196723D01*
X105195714Y-94196723D02*
X105148095Y-94291961D01*
X105148095Y-94291961D02*
X105052857Y-94387200D01*
X105052857Y-94387200D02*
X104910000Y-94434819D01*
X104910000Y-94434819D02*
X104671905Y-94434819D01*
X106195714Y-94434819D02*
X105624286Y-94434819D01*
X105910000Y-94434819D02*
X105910000Y-93434819D01*
X105910000Y-93434819D02*
X105814762Y-93577676D01*
X105814762Y-93577676D02*
X105719524Y-93672914D01*
X105719524Y-93672914D02*
X105624286Y-93720533D01*
X107964819Y-96781904D02*
X106964819Y-96781904D01*
X107964819Y-96210476D02*
X107393390Y-96639047D01*
X106964819Y-96210476D02*
X107536247Y-96781904D01*
X113657142Y-129379819D02*
X113323809Y-128903628D01*
X113085714Y-129379819D02*
X113085714Y-128379819D01*
X113085714Y-128379819D02*
X113466666Y-128379819D01*
X113466666Y-128379819D02*
X113561904Y-128427438D01*
X113561904Y-128427438D02*
X113609523Y-128475057D01*
X113609523Y-128475057D02*
X113657142Y-128570295D01*
X113657142Y-128570295D02*
X113657142Y-128713152D01*
X113657142Y-128713152D02*
X113609523Y-128808390D01*
X113609523Y-128808390D02*
X113561904Y-128856009D01*
X113561904Y-128856009D02*
X113466666Y-128903628D01*
X113466666Y-128903628D02*
X113085714Y-128903628D01*
X114609523Y-129379819D02*
X114038095Y-129379819D01*
X114323809Y-129379819D02*
X114323809Y-128379819D01*
X114323809Y-128379819D02*
X114228571Y-128522676D01*
X114228571Y-128522676D02*
X114133333Y-128617914D01*
X114133333Y-128617914D02*
X114038095Y-128665533D01*
X114942857Y-128379819D02*
X115561904Y-128379819D01*
X115561904Y-128379819D02*
X115228571Y-128760771D01*
X115228571Y-128760771D02*
X115371428Y-128760771D01*
X115371428Y-128760771D02*
X115466666Y-128808390D01*
X115466666Y-128808390D02*
X115514285Y-128856009D01*
X115514285Y-128856009D02*
X115561904Y-128951247D01*
X115561904Y-128951247D02*
X115561904Y-129189342D01*
X115561904Y-129189342D02*
X115514285Y-129284580D01*
X115514285Y-129284580D02*
X115466666Y-129332200D01*
X115466666Y-129332200D02*
X115371428Y-129379819D01*
X115371428Y-129379819D02*
X115085714Y-129379819D01*
X115085714Y-129379819D02*
X114990476Y-129332200D01*
X114990476Y-129332200D02*
X114942857Y-129284580D01*
X135444819Y-101068094D02*
X134444819Y-101068094D01*
X134444819Y-101068094D02*
X134444819Y-100829999D01*
X134444819Y-100829999D02*
X134492438Y-100687142D01*
X134492438Y-100687142D02*
X134587676Y-100591904D01*
X134587676Y-100591904D02*
X134682914Y-100544285D01*
X134682914Y-100544285D02*
X134873390Y-100496666D01*
X134873390Y-100496666D02*
X135016247Y-100496666D01*
X135016247Y-100496666D02*
X135206723Y-100544285D01*
X135206723Y-100544285D02*
X135301961Y-100591904D01*
X135301961Y-100591904D02*
X135397200Y-100687142D01*
X135397200Y-100687142D02*
X135444819Y-100829999D01*
X135444819Y-100829999D02*
X135444819Y-101068094D01*
X134778152Y-99639523D02*
X135444819Y-99639523D01*
X134397200Y-99877618D02*
X135111485Y-100115713D01*
X135111485Y-100115713D02*
X135111485Y-99496666D01*
X135074819Y-95511904D02*
X134074819Y-95511904D01*
X135074819Y-94940476D02*
X134503390Y-95369047D01*
X134074819Y-94940476D02*
X134646247Y-95511904D01*
X139528333Y-67114819D02*
X139195000Y-66638628D01*
X138956905Y-67114819D02*
X138956905Y-66114819D01*
X138956905Y-66114819D02*
X139337857Y-66114819D01*
X139337857Y-66114819D02*
X139433095Y-66162438D01*
X139433095Y-66162438D02*
X139480714Y-66210057D01*
X139480714Y-66210057D02*
X139528333Y-66305295D01*
X139528333Y-66305295D02*
X139528333Y-66448152D01*
X139528333Y-66448152D02*
X139480714Y-66543390D01*
X139480714Y-66543390D02*
X139433095Y-66591009D01*
X139433095Y-66591009D02*
X139337857Y-66638628D01*
X139337857Y-66638628D02*
X138956905Y-66638628D01*
X139861667Y-66114819D02*
X140480714Y-66114819D01*
X140480714Y-66114819D02*
X140147381Y-66495771D01*
X140147381Y-66495771D02*
X140290238Y-66495771D01*
X140290238Y-66495771D02*
X140385476Y-66543390D01*
X140385476Y-66543390D02*
X140433095Y-66591009D01*
X140433095Y-66591009D02*
X140480714Y-66686247D01*
X140480714Y-66686247D02*
X140480714Y-66924342D01*
X140480714Y-66924342D02*
X140433095Y-67019580D01*
X140433095Y-67019580D02*
X140385476Y-67067200D01*
X140385476Y-67067200D02*
X140290238Y-67114819D01*
X140290238Y-67114819D02*
X140004524Y-67114819D01*
X140004524Y-67114819D02*
X139909286Y-67067200D01*
X139909286Y-67067200D02*
X139861667Y-67019580D01*
X109751905Y-94434819D02*
X109751905Y-93434819D01*
X109751905Y-93434819D02*
X109990000Y-93434819D01*
X109990000Y-93434819D02*
X110132857Y-93482438D01*
X110132857Y-93482438D02*
X110228095Y-93577676D01*
X110228095Y-93577676D02*
X110275714Y-93672914D01*
X110275714Y-93672914D02*
X110323333Y-93863390D01*
X110323333Y-93863390D02*
X110323333Y-94006247D01*
X110323333Y-94006247D02*
X110275714Y-94196723D01*
X110275714Y-94196723D02*
X110228095Y-94291961D01*
X110228095Y-94291961D02*
X110132857Y-94387200D01*
X110132857Y-94387200D02*
X109990000Y-94434819D01*
X109990000Y-94434819D02*
X109751905Y-94434819D01*
X110704286Y-93530057D02*
X110751905Y-93482438D01*
X110751905Y-93482438D02*
X110847143Y-93434819D01*
X110847143Y-93434819D02*
X111085238Y-93434819D01*
X111085238Y-93434819D02*
X111180476Y-93482438D01*
X111180476Y-93482438D02*
X111228095Y-93530057D01*
X111228095Y-93530057D02*
X111275714Y-93625295D01*
X111275714Y-93625295D02*
X111275714Y-93720533D01*
X111275714Y-93720533D02*
X111228095Y-93863390D01*
X111228095Y-93863390D02*
X110656667Y-94434819D01*
X110656667Y-94434819D02*
X111275714Y-94434819D01*
X113044819Y-96781904D02*
X112044819Y-96781904D01*
X113044819Y-96210476D02*
X112473390Y-96639047D01*
X112044819Y-96210476D02*
X112616247Y-96781904D01*
X126352142Y-79099580D02*
X126304523Y-79147200D01*
X126304523Y-79147200D02*
X126161666Y-79194819D01*
X126161666Y-79194819D02*
X126066428Y-79194819D01*
X126066428Y-79194819D02*
X125923571Y-79147200D01*
X125923571Y-79147200D02*
X125828333Y-79051961D01*
X125828333Y-79051961D02*
X125780714Y-78956723D01*
X125780714Y-78956723D02*
X125733095Y-78766247D01*
X125733095Y-78766247D02*
X125733095Y-78623390D01*
X125733095Y-78623390D02*
X125780714Y-78432914D01*
X125780714Y-78432914D02*
X125828333Y-78337676D01*
X125828333Y-78337676D02*
X125923571Y-78242438D01*
X125923571Y-78242438D02*
X126066428Y-78194819D01*
X126066428Y-78194819D02*
X126161666Y-78194819D01*
X126161666Y-78194819D02*
X126304523Y-78242438D01*
X126304523Y-78242438D02*
X126352142Y-78290057D01*
X127304523Y-79194819D02*
X126733095Y-79194819D01*
X127018809Y-79194819D02*
X127018809Y-78194819D01*
X127018809Y-78194819D02*
X126923571Y-78337676D01*
X126923571Y-78337676D02*
X126828333Y-78432914D01*
X126828333Y-78432914D02*
X126733095Y-78480533D01*
X127923571Y-78194819D02*
X128018809Y-78194819D01*
X128018809Y-78194819D02*
X128114047Y-78242438D01*
X128114047Y-78242438D02*
X128161666Y-78290057D01*
X128161666Y-78290057D02*
X128209285Y-78385295D01*
X128209285Y-78385295D02*
X128256904Y-78575771D01*
X128256904Y-78575771D02*
X128256904Y-78813866D01*
X128256904Y-78813866D02*
X128209285Y-79004342D01*
X128209285Y-79004342D02*
X128161666Y-79099580D01*
X128161666Y-79099580D02*
X128114047Y-79147200D01*
X128114047Y-79147200D02*
X128018809Y-79194819D01*
X128018809Y-79194819D02*
X127923571Y-79194819D01*
X127923571Y-79194819D02*
X127828333Y-79147200D01*
X127828333Y-79147200D02*
X127780714Y-79099580D01*
X127780714Y-79099580D02*
X127733095Y-79004342D01*
X127733095Y-79004342D02*
X127685476Y-78813866D01*
X127685476Y-78813866D02*
X127685476Y-78575771D01*
X127685476Y-78575771D02*
X127733095Y-78385295D01*
X127733095Y-78385295D02*
X127780714Y-78290057D01*
X127780714Y-78290057D02*
X127828333Y-78242438D01*
X127828333Y-78242438D02*
X127923571Y-78194819D01*
D10*
X89711095Y-95516419D02*
X89711095Y-96325942D01*
X89711095Y-96325942D02*
X89758714Y-96421180D01*
X89758714Y-96421180D02*
X89806333Y-96468800D01*
X89806333Y-96468800D02*
X89901571Y-96516419D01*
X89901571Y-96516419D02*
X90092047Y-96516419D01*
X90092047Y-96516419D02*
X90187285Y-96468800D01*
X90187285Y-96468800D02*
X90234904Y-96421180D01*
X90234904Y-96421180D02*
X90282523Y-96325942D01*
X90282523Y-96325942D02*
X90282523Y-95516419D01*
X91282523Y-96516419D02*
X90711095Y-96516419D01*
X90996809Y-96516419D02*
X90996809Y-95516419D01*
X90996809Y-95516419D02*
X90901571Y-95659276D01*
X90901571Y-95659276D02*
X90806333Y-95754514D01*
X90806333Y-95754514D02*
X90711095Y-95802133D01*
D11*
X114128333Y-74734819D02*
X113795000Y-74258628D01*
X113556905Y-74734819D02*
X113556905Y-73734819D01*
X113556905Y-73734819D02*
X113937857Y-73734819D01*
X113937857Y-73734819D02*
X114033095Y-73782438D01*
X114033095Y-73782438D02*
X114080714Y-73830057D01*
X114080714Y-73830057D02*
X114128333Y-73925295D01*
X114128333Y-73925295D02*
X114128333Y-74068152D01*
X114128333Y-74068152D02*
X114080714Y-74163390D01*
X114080714Y-74163390D02*
X114033095Y-74211009D01*
X114033095Y-74211009D02*
X113937857Y-74258628D01*
X113937857Y-74258628D02*
X113556905Y-74258628D01*
X115033095Y-73734819D02*
X114556905Y-73734819D01*
X114556905Y-73734819D02*
X114509286Y-74211009D01*
X114509286Y-74211009D02*
X114556905Y-74163390D01*
X114556905Y-74163390D02*
X114652143Y-74115771D01*
X114652143Y-74115771D02*
X114890238Y-74115771D01*
X114890238Y-74115771D02*
X114985476Y-74163390D01*
X114985476Y-74163390D02*
X115033095Y-74211009D01*
X115033095Y-74211009D02*
X115080714Y-74306247D01*
X115080714Y-74306247D02*
X115080714Y-74544342D01*
X115080714Y-74544342D02*
X115033095Y-74639580D01*
X115033095Y-74639580D02*
X114985476Y-74687200D01*
X114985476Y-74687200D02*
X114890238Y-74734819D01*
X114890238Y-74734819D02*
X114652143Y-74734819D01*
X114652143Y-74734819D02*
X114556905Y-74687200D01*
X114556905Y-74687200D02*
X114509286Y-74639580D01*
X75049142Y-73464819D02*
X74715809Y-72988628D01*
X74477714Y-73464819D02*
X74477714Y-72464819D01*
X74477714Y-72464819D02*
X74858666Y-72464819D01*
X74858666Y-72464819D02*
X74953904Y-72512438D01*
X74953904Y-72512438D02*
X75001523Y-72560057D01*
X75001523Y-72560057D02*
X75049142Y-72655295D01*
X75049142Y-72655295D02*
X75049142Y-72798152D01*
X75049142Y-72798152D02*
X75001523Y-72893390D01*
X75001523Y-72893390D02*
X74953904Y-72941009D01*
X74953904Y-72941009D02*
X74858666Y-72988628D01*
X74858666Y-72988628D02*
X74477714Y-72988628D01*
X76001523Y-73464819D02*
X75430095Y-73464819D01*
X75715809Y-73464819D02*
X75715809Y-72464819D01*
X75715809Y-72464819D02*
X75620571Y-72607676D01*
X75620571Y-72607676D02*
X75525333Y-72702914D01*
X75525333Y-72702914D02*
X75430095Y-72750533D01*
X76334857Y-72464819D02*
X77001523Y-72464819D01*
X77001523Y-72464819D02*
X76572952Y-73464819D01*
X126828333Y-61109580D02*
X126780714Y-61157200D01*
X126780714Y-61157200D02*
X126637857Y-61204819D01*
X126637857Y-61204819D02*
X126542619Y-61204819D01*
X126542619Y-61204819D02*
X126399762Y-61157200D01*
X126399762Y-61157200D02*
X126304524Y-61061961D01*
X126304524Y-61061961D02*
X126256905Y-60966723D01*
X126256905Y-60966723D02*
X126209286Y-60776247D01*
X126209286Y-60776247D02*
X126209286Y-60633390D01*
X126209286Y-60633390D02*
X126256905Y-60442914D01*
X126256905Y-60442914D02*
X126304524Y-60347676D01*
X126304524Y-60347676D02*
X126399762Y-60252438D01*
X126399762Y-60252438D02*
X126542619Y-60204819D01*
X126542619Y-60204819D02*
X126637857Y-60204819D01*
X126637857Y-60204819D02*
X126780714Y-60252438D01*
X126780714Y-60252438D02*
X126828333Y-60300057D01*
X127304524Y-61204819D02*
X127495000Y-61204819D01*
X127495000Y-61204819D02*
X127590238Y-61157200D01*
X127590238Y-61157200D02*
X127637857Y-61109580D01*
X127637857Y-61109580D02*
X127733095Y-60966723D01*
X127733095Y-60966723D02*
X127780714Y-60776247D01*
X127780714Y-60776247D02*
X127780714Y-60395295D01*
X127780714Y-60395295D02*
X127733095Y-60300057D01*
X127733095Y-60300057D02*
X127685476Y-60252438D01*
X127685476Y-60252438D02*
X127590238Y-60204819D01*
X127590238Y-60204819D02*
X127399762Y-60204819D01*
X127399762Y-60204819D02*
X127304524Y-60252438D01*
X127304524Y-60252438D02*
X127256905Y-60300057D01*
X127256905Y-60300057D02*
X127209286Y-60395295D01*
X127209286Y-60395295D02*
X127209286Y-60633390D01*
X127209286Y-60633390D02*
X127256905Y-60728628D01*
X127256905Y-60728628D02*
X127304524Y-60776247D01*
X127304524Y-60776247D02*
X127399762Y-60823866D01*
X127399762Y-60823866D02*
X127590238Y-60823866D01*
X127590238Y-60823866D02*
X127685476Y-60776247D01*
X127685476Y-60776247D02*
X127733095Y-60728628D01*
X127733095Y-60728628D02*
X127780714Y-60633390D01*
X113484819Y-102242857D02*
X113008628Y-102576190D01*
X113484819Y-102814285D02*
X112484819Y-102814285D01*
X112484819Y-102814285D02*
X112484819Y-102433333D01*
X112484819Y-102433333D02*
X112532438Y-102338095D01*
X112532438Y-102338095D02*
X112580057Y-102290476D01*
X112580057Y-102290476D02*
X112675295Y-102242857D01*
X112675295Y-102242857D02*
X112818152Y-102242857D01*
X112818152Y-102242857D02*
X112913390Y-102290476D01*
X112913390Y-102290476D02*
X112961009Y-102338095D01*
X112961009Y-102338095D02*
X113008628Y-102433333D01*
X113008628Y-102433333D02*
X113008628Y-102814285D01*
X113484819Y-101290476D02*
X113484819Y-101861904D01*
X113484819Y-101576190D02*
X112484819Y-101576190D01*
X112484819Y-101576190D02*
X112627676Y-101671428D01*
X112627676Y-101671428D02*
X112722914Y-101766666D01*
X112722914Y-101766666D02*
X112770533Y-101861904D01*
X112484819Y-100671428D02*
X112484819Y-100576190D01*
X112484819Y-100576190D02*
X112532438Y-100480952D01*
X112532438Y-100480952D02*
X112580057Y-100433333D01*
X112580057Y-100433333D02*
X112675295Y-100385714D01*
X112675295Y-100385714D02*
X112865771Y-100338095D01*
X112865771Y-100338095D02*
X113103866Y-100338095D01*
X113103866Y-100338095D02*
X113294342Y-100385714D01*
X113294342Y-100385714D02*
X113389580Y-100433333D01*
X113389580Y-100433333D02*
X113437200Y-100480952D01*
X113437200Y-100480952D02*
X113484819Y-100576190D01*
X113484819Y-100576190D02*
X113484819Y-100671428D01*
X113484819Y-100671428D02*
X113437200Y-100766666D01*
X113437200Y-100766666D02*
X113389580Y-100814285D01*
X113389580Y-100814285D02*
X113294342Y-100861904D01*
X113294342Y-100861904D02*
X113103866Y-100909523D01*
X113103866Y-100909523D02*
X112865771Y-100909523D01*
X112865771Y-100909523D02*
X112675295Y-100861904D01*
X112675295Y-100861904D02*
X112580057Y-100814285D01*
X112580057Y-100814285D02*
X112532438Y-100766666D01*
X112532438Y-100766666D02*
X112484819Y-100671428D01*
X75049142Y-69146819D02*
X74715809Y-68670628D01*
X74477714Y-69146819D02*
X74477714Y-68146819D01*
X74477714Y-68146819D02*
X74858666Y-68146819D01*
X74858666Y-68146819D02*
X74953904Y-68194438D01*
X74953904Y-68194438D02*
X75001523Y-68242057D01*
X75001523Y-68242057D02*
X75049142Y-68337295D01*
X75049142Y-68337295D02*
X75049142Y-68480152D01*
X75049142Y-68480152D02*
X75001523Y-68575390D01*
X75001523Y-68575390D02*
X74953904Y-68623009D01*
X74953904Y-68623009D02*
X74858666Y-68670628D01*
X74858666Y-68670628D02*
X74477714Y-68670628D01*
X76001523Y-69146819D02*
X75430095Y-69146819D01*
X75715809Y-69146819D02*
X75715809Y-68146819D01*
X75715809Y-68146819D02*
X75620571Y-68289676D01*
X75620571Y-68289676D02*
X75525333Y-68384914D01*
X75525333Y-68384914D02*
X75430095Y-68432533D01*
X76858666Y-68146819D02*
X76668190Y-68146819D01*
X76668190Y-68146819D02*
X76572952Y-68194438D01*
X76572952Y-68194438D02*
X76525333Y-68242057D01*
X76525333Y-68242057D02*
X76430095Y-68384914D01*
X76430095Y-68384914D02*
X76382476Y-68575390D01*
X76382476Y-68575390D02*
X76382476Y-68956342D01*
X76382476Y-68956342D02*
X76430095Y-69051580D01*
X76430095Y-69051580D02*
X76477714Y-69099200D01*
X76477714Y-69099200D02*
X76572952Y-69146819D01*
X76572952Y-69146819D02*
X76763428Y-69146819D01*
X76763428Y-69146819D02*
X76858666Y-69099200D01*
X76858666Y-69099200D02*
X76906285Y-69051580D01*
X76906285Y-69051580D02*
X76953904Y-68956342D01*
X76953904Y-68956342D02*
X76953904Y-68718247D01*
X76953904Y-68718247D02*
X76906285Y-68623009D01*
X76906285Y-68623009D02*
X76858666Y-68575390D01*
X76858666Y-68575390D02*
X76763428Y-68527771D01*
X76763428Y-68527771D02*
X76572952Y-68527771D01*
X76572952Y-68527771D02*
X76477714Y-68575390D01*
X76477714Y-68575390D02*
X76430095Y-68623009D01*
X76430095Y-68623009D02*
X76382476Y-68718247D01*
X113657142Y-117314819D02*
X113323809Y-116838628D01*
X113085714Y-117314819D02*
X113085714Y-116314819D01*
X113085714Y-116314819D02*
X113466666Y-116314819D01*
X113466666Y-116314819D02*
X113561904Y-116362438D01*
X113561904Y-116362438D02*
X113609523Y-116410057D01*
X113609523Y-116410057D02*
X113657142Y-116505295D01*
X113657142Y-116505295D02*
X113657142Y-116648152D01*
X113657142Y-116648152D02*
X113609523Y-116743390D01*
X113609523Y-116743390D02*
X113561904Y-116791009D01*
X113561904Y-116791009D02*
X113466666Y-116838628D01*
X113466666Y-116838628D02*
X113085714Y-116838628D01*
X114609523Y-117314819D02*
X114038095Y-117314819D01*
X114323809Y-117314819D02*
X114323809Y-116314819D01*
X114323809Y-116314819D02*
X114228571Y-116457676D01*
X114228571Y-116457676D02*
X114133333Y-116552914D01*
X114133333Y-116552914D02*
X114038095Y-116600533D01*
X115466666Y-116648152D02*
X115466666Y-117314819D01*
X115228571Y-116267200D02*
X114990476Y-116981485D01*
X114990476Y-116981485D02*
X115609523Y-116981485D01*
X105243333Y-84099580D02*
X105195714Y-84147200D01*
X105195714Y-84147200D02*
X105052857Y-84194819D01*
X105052857Y-84194819D02*
X104957619Y-84194819D01*
X104957619Y-84194819D02*
X104814762Y-84147200D01*
X104814762Y-84147200D02*
X104719524Y-84051961D01*
X104719524Y-84051961D02*
X104671905Y-83956723D01*
X104671905Y-83956723D02*
X104624286Y-83766247D01*
X104624286Y-83766247D02*
X104624286Y-83623390D01*
X104624286Y-83623390D02*
X104671905Y-83432914D01*
X104671905Y-83432914D02*
X104719524Y-83337676D01*
X104719524Y-83337676D02*
X104814762Y-83242438D01*
X104814762Y-83242438D02*
X104957619Y-83194819D01*
X104957619Y-83194819D02*
X105052857Y-83194819D01*
X105052857Y-83194819D02*
X105195714Y-83242438D01*
X105195714Y-83242438D02*
X105243333Y-83290057D01*
X106148095Y-83194819D02*
X105671905Y-83194819D01*
X105671905Y-83194819D02*
X105624286Y-83671009D01*
X105624286Y-83671009D02*
X105671905Y-83623390D01*
X105671905Y-83623390D02*
X105767143Y-83575771D01*
X105767143Y-83575771D02*
X106005238Y-83575771D01*
X106005238Y-83575771D02*
X106100476Y-83623390D01*
X106100476Y-83623390D02*
X106148095Y-83671009D01*
X106148095Y-83671009D02*
X106195714Y-83766247D01*
X106195714Y-83766247D02*
X106195714Y-84004342D01*
X106195714Y-84004342D02*
X106148095Y-84099580D01*
X106148095Y-84099580D02*
X106100476Y-84147200D01*
X106100476Y-84147200D02*
X106005238Y-84194819D01*
X106005238Y-84194819D02*
X105767143Y-84194819D01*
X105767143Y-84194819D02*
X105671905Y-84147200D01*
X105671905Y-84147200D02*
X105624286Y-84099580D01*
X117914819Y-101766666D02*
X117438628Y-102099999D01*
X117914819Y-102338094D02*
X116914819Y-102338094D01*
X116914819Y-102338094D02*
X116914819Y-101957142D01*
X116914819Y-101957142D02*
X116962438Y-101861904D01*
X116962438Y-101861904D02*
X117010057Y-101814285D01*
X117010057Y-101814285D02*
X117105295Y-101766666D01*
X117105295Y-101766666D02*
X117248152Y-101766666D01*
X117248152Y-101766666D02*
X117343390Y-101814285D01*
X117343390Y-101814285D02*
X117391009Y-101861904D01*
X117391009Y-101861904D02*
X117438628Y-101957142D01*
X117438628Y-101957142D02*
X117438628Y-102338094D01*
X117914819Y-101290475D02*
X117914819Y-101099999D01*
X117914819Y-101099999D02*
X117867200Y-101004761D01*
X117867200Y-101004761D02*
X117819580Y-100957142D01*
X117819580Y-100957142D02*
X117676723Y-100861904D01*
X117676723Y-100861904D02*
X117486247Y-100814285D01*
X117486247Y-100814285D02*
X117105295Y-100814285D01*
X117105295Y-100814285D02*
X117010057Y-100861904D01*
X117010057Y-100861904D02*
X116962438Y-100909523D01*
X116962438Y-100909523D02*
X116914819Y-101004761D01*
X116914819Y-101004761D02*
X116914819Y-101195237D01*
X116914819Y-101195237D02*
X116962438Y-101290475D01*
X116962438Y-101290475D02*
X117010057Y-101338094D01*
X117010057Y-101338094D02*
X117105295Y-101385713D01*
X117105295Y-101385713D02*
X117343390Y-101385713D01*
X117343390Y-101385713D02*
X117438628Y-101338094D01*
X117438628Y-101338094D02*
X117486247Y-101290475D01*
X117486247Y-101290475D02*
X117533866Y-101195237D01*
X117533866Y-101195237D02*
X117533866Y-101004761D01*
X117533866Y-101004761D02*
X117486247Y-100909523D01*
X117486247Y-100909523D02*
X117438628Y-100861904D01*
X117438628Y-100861904D02*
X117343390Y-100814285D01*
X127531905Y-106234819D02*
X127531905Y-105234819D01*
X127531905Y-105234819D02*
X127770000Y-105234819D01*
X127770000Y-105234819D02*
X127912857Y-105282438D01*
X127912857Y-105282438D02*
X128008095Y-105377676D01*
X128008095Y-105377676D02*
X128055714Y-105472914D01*
X128055714Y-105472914D02*
X128103333Y-105663390D01*
X128103333Y-105663390D02*
X128103333Y-105806247D01*
X128103333Y-105806247D02*
X128055714Y-105996723D01*
X128055714Y-105996723D02*
X128008095Y-106091961D01*
X128008095Y-106091961D02*
X127912857Y-106187200D01*
X127912857Y-106187200D02*
X127770000Y-106234819D01*
X127770000Y-106234819D02*
X127531905Y-106234819D01*
X128436667Y-105234819D02*
X129055714Y-105234819D01*
X129055714Y-105234819D02*
X128722381Y-105615771D01*
X128722381Y-105615771D02*
X128865238Y-105615771D01*
X128865238Y-105615771D02*
X128960476Y-105663390D01*
X128960476Y-105663390D02*
X129008095Y-105711009D01*
X129008095Y-105711009D02*
X129055714Y-105806247D01*
X129055714Y-105806247D02*
X129055714Y-106044342D01*
X129055714Y-106044342D02*
X129008095Y-106139580D01*
X129008095Y-106139580D02*
X128960476Y-106187200D01*
X128960476Y-106187200D02*
X128865238Y-106234819D01*
X128865238Y-106234819D02*
X128579524Y-106234819D01*
X128579524Y-106234819D02*
X128484286Y-106187200D01*
X128484286Y-106187200D02*
X128436667Y-106139580D01*
X133088095Y-105864819D02*
X133088095Y-104864819D01*
X133659523Y-105864819D02*
X133230952Y-105293390D01*
X133659523Y-104864819D02*
X133088095Y-105436247D01*
X139528333Y-70924819D02*
X139195000Y-70448628D01*
X138956905Y-70924819D02*
X138956905Y-69924819D01*
X138956905Y-69924819D02*
X139337857Y-69924819D01*
X139337857Y-69924819D02*
X139433095Y-69972438D01*
X139433095Y-69972438D02*
X139480714Y-70020057D01*
X139480714Y-70020057D02*
X139528333Y-70115295D01*
X139528333Y-70115295D02*
X139528333Y-70258152D01*
X139528333Y-70258152D02*
X139480714Y-70353390D01*
X139480714Y-70353390D02*
X139433095Y-70401009D01*
X139433095Y-70401009D02*
X139337857Y-70448628D01*
X139337857Y-70448628D02*
X138956905Y-70448628D01*
X140385476Y-70258152D02*
X140385476Y-70924819D01*
X140147381Y-69877200D02*
X139909286Y-70591485D01*
X139909286Y-70591485D02*
X140528333Y-70591485D01*
X113617142Y-112139580D02*
X113569523Y-112187200D01*
X113569523Y-112187200D02*
X113426666Y-112234819D01*
X113426666Y-112234819D02*
X113331428Y-112234819D01*
X113331428Y-112234819D02*
X113188571Y-112187200D01*
X113188571Y-112187200D02*
X113093333Y-112091961D01*
X113093333Y-112091961D02*
X113045714Y-111996723D01*
X113045714Y-111996723D02*
X112998095Y-111806247D01*
X112998095Y-111806247D02*
X112998095Y-111663390D01*
X112998095Y-111663390D02*
X113045714Y-111472914D01*
X113045714Y-111472914D02*
X113093333Y-111377676D01*
X113093333Y-111377676D02*
X113188571Y-111282438D01*
X113188571Y-111282438D02*
X113331428Y-111234819D01*
X113331428Y-111234819D02*
X113426666Y-111234819D01*
X113426666Y-111234819D02*
X113569523Y-111282438D01*
X113569523Y-111282438D02*
X113617142Y-111330057D01*
X114569523Y-112234819D02*
X113998095Y-112234819D01*
X114283809Y-112234819D02*
X114283809Y-111234819D01*
X114283809Y-111234819D02*
X114188571Y-111377676D01*
X114188571Y-111377676D02*
X114093333Y-111472914D01*
X114093333Y-111472914D02*
X113998095Y-111520533D01*
X114902857Y-111234819D02*
X115521904Y-111234819D01*
X115521904Y-111234819D02*
X115188571Y-111615771D01*
X115188571Y-111615771D02*
X115331428Y-111615771D01*
X115331428Y-111615771D02*
X115426666Y-111663390D01*
X115426666Y-111663390D02*
X115474285Y-111711009D01*
X115474285Y-111711009D02*
X115521904Y-111806247D01*
X115521904Y-111806247D02*
X115521904Y-112044342D01*
X115521904Y-112044342D02*
X115474285Y-112139580D01*
X115474285Y-112139580D02*
X115426666Y-112187200D01*
X115426666Y-112187200D02*
X115331428Y-112234819D01*
X115331428Y-112234819D02*
X115045714Y-112234819D01*
X115045714Y-112234819D02*
X114950476Y-112187200D01*
X114950476Y-112187200D02*
X114902857Y-112139580D01*
X139533333Y-134999580D02*
X139485714Y-135047200D01*
X139485714Y-135047200D02*
X139342857Y-135094819D01*
X139342857Y-135094819D02*
X139247619Y-135094819D01*
X139247619Y-135094819D02*
X139104762Y-135047200D01*
X139104762Y-135047200D02*
X139009524Y-134951961D01*
X139009524Y-134951961D02*
X138961905Y-134856723D01*
X138961905Y-134856723D02*
X138914286Y-134666247D01*
X138914286Y-134666247D02*
X138914286Y-134523390D01*
X138914286Y-134523390D02*
X138961905Y-134332914D01*
X138961905Y-134332914D02*
X139009524Y-134237676D01*
X139009524Y-134237676D02*
X139104762Y-134142438D01*
X139104762Y-134142438D02*
X139247619Y-134094819D01*
X139247619Y-134094819D02*
X139342857Y-134094819D01*
X139342857Y-134094819D02*
X139485714Y-134142438D01*
X139485714Y-134142438D02*
X139533333Y-134190057D01*
X140104762Y-134523390D02*
X140009524Y-134475771D01*
X140009524Y-134475771D02*
X139961905Y-134428152D01*
X139961905Y-134428152D02*
X139914286Y-134332914D01*
X139914286Y-134332914D02*
X139914286Y-134285295D01*
X139914286Y-134285295D02*
X139961905Y-134190057D01*
X139961905Y-134190057D02*
X140009524Y-134142438D01*
X140009524Y-134142438D02*
X140104762Y-134094819D01*
X140104762Y-134094819D02*
X140295238Y-134094819D01*
X140295238Y-134094819D02*
X140390476Y-134142438D01*
X140390476Y-134142438D02*
X140438095Y-134190057D01*
X140438095Y-134190057D02*
X140485714Y-134285295D01*
X140485714Y-134285295D02*
X140485714Y-134332914D01*
X140485714Y-134332914D02*
X140438095Y-134428152D01*
X140438095Y-134428152D02*
X140390476Y-134475771D01*
X140390476Y-134475771D02*
X140295238Y-134523390D01*
X140295238Y-134523390D02*
X140104762Y-134523390D01*
X140104762Y-134523390D02*
X140009524Y-134571009D01*
X140009524Y-134571009D02*
X139961905Y-134618628D01*
X139961905Y-134618628D02*
X139914286Y-134713866D01*
X139914286Y-134713866D02*
X139914286Y-134904342D01*
X139914286Y-134904342D02*
X139961905Y-134999580D01*
X139961905Y-134999580D02*
X140009524Y-135047200D01*
X140009524Y-135047200D02*
X140104762Y-135094819D01*
X140104762Y-135094819D02*
X140295238Y-135094819D01*
X140295238Y-135094819D02*
X140390476Y-135047200D01*
X140390476Y-135047200D02*
X140438095Y-134999580D01*
X140438095Y-134999580D02*
X140485714Y-134904342D01*
X140485714Y-134904342D02*
X140485714Y-134713866D01*
X140485714Y-134713866D02*
X140438095Y-134618628D01*
X140438095Y-134618628D02*
X140390476Y-134571009D01*
X140390476Y-134571009D02*
X140295238Y-134523390D01*
X126357142Y-129919580D02*
X126309523Y-129967200D01*
X126309523Y-129967200D02*
X126166666Y-130014819D01*
X126166666Y-130014819D02*
X126071428Y-130014819D01*
X126071428Y-130014819D02*
X125928571Y-129967200D01*
X125928571Y-129967200D02*
X125833333Y-129871961D01*
X125833333Y-129871961D02*
X125785714Y-129776723D01*
X125785714Y-129776723D02*
X125738095Y-129586247D01*
X125738095Y-129586247D02*
X125738095Y-129443390D01*
X125738095Y-129443390D02*
X125785714Y-129252914D01*
X125785714Y-129252914D02*
X125833333Y-129157676D01*
X125833333Y-129157676D02*
X125928571Y-129062438D01*
X125928571Y-129062438D02*
X126071428Y-129014819D01*
X126071428Y-129014819D02*
X126166666Y-129014819D01*
X126166666Y-129014819D02*
X126309523Y-129062438D01*
X126309523Y-129062438D02*
X126357142Y-129110057D01*
X127309523Y-130014819D02*
X126738095Y-130014819D01*
X127023809Y-130014819D02*
X127023809Y-129014819D01*
X127023809Y-129014819D02*
X126928571Y-129157676D01*
X126928571Y-129157676D02*
X126833333Y-129252914D01*
X126833333Y-129252914D02*
X126738095Y-129300533D01*
X127690476Y-129110057D02*
X127738095Y-129062438D01*
X127738095Y-129062438D02*
X127833333Y-129014819D01*
X127833333Y-129014819D02*
X128071428Y-129014819D01*
X128071428Y-129014819D02*
X128166666Y-129062438D01*
X128166666Y-129062438D02*
X128214285Y-129110057D01*
X128214285Y-129110057D02*
X128261904Y-129205295D01*
X128261904Y-129205295D02*
X128261904Y-129300533D01*
X128261904Y-129300533D02*
X128214285Y-129443390D01*
X128214285Y-129443390D02*
X127642857Y-130014819D01*
X127642857Y-130014819D02*
X128261904Y-130014819D01*
%TO.C,C16*%
D12*
X111670000Y-138780000D02*
X104230000Y-138780000D01*
X111670000Y-135540000D02*
X111670000Y-138780000D01*
X104230000Y-138780000D02*
X104230000Y-135540000D01*
X104230000Y-135540000D02*
X111670000Y-135540000D01*
%TO.C,R11*%
X137160000Y-123210000D02*
X137780000Y-123210000D01*
X142240000Y-123210000D02*
X141620000Y-123210000D01*
X137780000Y-122290000D02*
X141620000Y-122290000D01*
X141620000Y-124130000D01*
X137780000Y-124130000D01*
X137780000Y-122290000D01*
%TO.C,C2*%
X103790000Y-64860000D02*
X107030000Y-64860000D01*
X103790000Y-72300000D02*
X103790000Y-64860000D01*
X107030000Y-64860000D02*
X107030000Y-72300000D01*
X107030000Y-72300000D02*
X103790000Y-72300000D01*
%TO.C,C15*%
X112662651Y-90703000D02*
X112662651Y-89637000D01*
X112702651Y-90938000D02*
X112702651Y-89402000D01*
X112742651Y-91117000D02*
X112742651Y-89223000D01*
X112782651Y-91267000D02*
X112782651Y-89073000D01*
X112822651Y-91398000D02*
X112822651Y-88942000D01*
X112862651Y-91516000D02*
X112862651Y-88824000D01*
X112902651Y-91623000D02*
X112902651Y-88717000D01*
X112942651Y-91722000D02*
X112942651Y-88618000D01*
X112982651Y-91814000D02*
X112982651Y-88526000D01*
X113022651Y-91901000D02*
X113022651Y-88439000D01*
X113062651Y-91983000D02*
X113062651Y-88357000D01*
X113102651Y-92060000D02*
X113102651Y-88280000D01*
X113142651Y-92134000D02*
X113142651Y-88206000D01*
X113182651Y-92204000D02*
X113182651Y-88136000D01*
X113222651Y-89130000D02*
X113222651Y-88069000D01*
X113222651Y-92271000D02*
X113222651Y-91210000D01*
X113262651Y-89130000D02*
X113262651Y-88005000D01*
X113262651Y-92335000D02*
X113262651Y-91210000D01*
X113302651Y-89130000D02*
X113302651Y-87943000D01*
X113302651Y-92397000D02*
X113302651Y-91210000D01*
X113342651Y-89130000D02*
X113342651Y-87883000D01*
X113342651Y-92457000D02*
X113342651Y-91210000D01*
X113382651Y-89130000D02*
X113382651Y-87826000D01*
X113382651Y-92514000D02*
X113382651Y-91210000D01*
X113422651Y-89130000D02*
X113422651Y-87770000D01*
X113422651Y-92570000D02*
X113422651Y-91210000D01*
X113462651Y-89130000D02*
X113462651Y-87717000D01*
X113462651Y-92623000D02*
X113462651Y-91210000D01*
X113502651Y-89130000D02*
X113502651Y-87665000D01*
X113502651Y-92675000D02*
X113502651Y-91210000D01*
X113542651Y-89130000D02*
X113542651Y-87615000D01*
X113542651Y-92725000D02*
X113542651Y-91210000D01*
X113582651Y-89130000D02*
X113582651Y-87566000D01*
X113582651Y-92774000D02*
X113582651Y-91210000D01*
X113622651Y-89130000D02*
X113622651Y-87519000D01*
X113622651Y-92821000D02*
X113622651Y-91210000D01*
X113662651Y-89130000D02*
X113662651Y-87474000D01*
X113662651Y-92866000D02*
X113662651Y-91210000D01*
X113702651Y-89130000D02*
X113702651Y-87429000D01*
X113702651Y-92911000D02*
X113702651Y-91210000D01*
X113742651Y-89130000D02*
X113742651Y-87386000D01*
X113742651Y-92954000D02*
X113742651Y-91210000D01*
X113782651Y-89130000D02*
X113782651Y-87344000D01*
X113782651Y-92996000D02*
X113782651Y-91210000D01*
X113822651Y-89130000D02*
X113822651Y-87303000D01*
X113822651Y-93037000D02*
X113822651Y-91210000D01*
X113862651Y-89130000D02*
X113862651Y-87264000D01*
X113862651Y-93076000D02*
X113862651Y-91210000D01*
X113902651Y-89130000D02*
X113902651Y-87225000D01*
X113902651Y-93115000D02*
X113902651Y-91210000D01*
X113942651Y-89130000D02*
X113942651Y-87188000D01*
X113942651Y-93152000D02*
X113942651Y-91210000D01*
X113982651Y-89130000D02*
X113982651Y-87151000D01*
X113982651Y-93189000D02*
X113982651Y-91210000D01*
X114022651Y-89130000D02*
X114022651Y-87115000D01*
X114022651Y-93225000D02*
X114022651Y-91210000D01*
X114062651Y-89130000D02*
X114062651Y-87081000D01*
X114062651Y-93259000D02*
X114062651Y-91210000D01*
X114102651Y-89130000D02*
X114102651Y-87047000D01*
X114102651Y-93293000D02*
X114102651Y-91210000D01*
X114142651Y-89130000D02*
X114142651Y-87014000D01*
X114142651Y-93326000D02*
X114142651Y-91210000D01*
X114182651Y-89130000D02*
X114182651Y-86982000D01*
X114182651Y-93358000D02*
X114182651Y-91210000D01*
X114222651Y-89130000D02*
X114222651Y-86951000D01*
X114222651Y-93389000D02*
X114222651Y-91210000D01*
X114262651Y-89130000D02*
X114262651Y-86920000D01*
X114262651Y-93420000D02*
X114262651Y-91210000D01*
X114302651Y-89130000D02*
X114302651Y-86890000D01*
X114302651Y-93450000D02*
X114302651Y-91210000D01*
X114342651Y-89130000D02*
X114342651Y-86861000D01*
X114342651Y-93479000D02*
X114342651Y-91210000D01*
X114382651Y-89130000D02*
X114382651Y-86833000D01*
X114382651Y-93507000D02*
X114382651Y-91210000D01*
X114422651Y-89130000D02*
X114422651Y-86805000D01*
X114422651Y-93535000D02*
X114422651Y-91210000D01*
X114462651Y-89130000D02*
X114462651Y-86778000D01*
X114462651Y-93562000D02*
X114462651Y-91210000D01*
X114502651Y-89130000D02*
X114502651Y-86752000D01*
X114502651Y-93588000D02*
X114502651Y-91210000D01*
X114542651Y-89130000D02*
X114542651Y-86727000D01*
X114542651Y-93613000D02*
X114542651Y-91210000D01*
X114582651Y-89130000D02*
X114582651Y-86702000D01*
X114582651Y-93638000D02*
X114582651Y-91210000D01*
X114622651Y-89130000D02*
X114622651Y-86677000D01*
X114622651Y-93663000D02*
X114622651Y-91210000D01*
X114662651Y-89130000D02*
X114662651Y-86654000D01*
X114662651Y-93686000D02*
X114662651Y-91210000D01*
X114702651Y-89130000D02*
X114702651Y-86631000D01*
X114702651Y-93709000D02*
X114702651Y-91210000D01*
X114742651Y-89130000D02*
X114742651Y-86608000D01*
X114742651Y-93732000D02*
X114742651Y-91210000D01*
X114782651Y-89130000D02*
X114782651Y-86586000D01*
X114782651Y-93754000D02*
X114782651Y-91210000D01*
X114822651Y-89130000D02*
X114822651Y-86565000D01*
X114822651Y-93775000D02*
X114822651Y-91210000D01*
X114862651Y-89130000D02*
X114862651Y-86544000D01*
X114862651Y-93796000D02*
X114862651Y-91210000D01*
X114902651Y-89130000D02*
X114902651Y-86524000D01*
X114902651Y-93816000D02*
X114902651Y-91210000D01*
X114942651Y-89130000D02*
X114942651Y-86504000D01*
X114942651Y-93836000D02*
X114942651Y-91210000D01*
X114982651Y-89130000D02*
X114982651Y-86485000D01*
X114982651Y-93855000D02*
X114982651Y-91210000D01*
X115022651Y-89130000D02*
X115022651Y-86466000D01*
X115022651Y-93874000D02*
X115022651Y-91210000D01*
X115062651Y-89130000D02*
X115062651Y-86448000D01*
X115062651Y-93892000D02*
X115062651Y-91210000D01*
X115102651Y-89130000D02*
X115102651Y-86430000D01*
X115102651Y-93910000D02*
X115102651Y-91210000D01*
X115142651Y-89130000D02*
X115142651Y-86413000D01*
X115142651Y-93927000D02*
X115142651Y-91210000D01*
X115182651Y-89130000D02*
X115182651Y-86397000D01*
X115182651Y-93943000D02*
X115182651Y-91210000D01*
X115222651Y-89130000D02*
X115222651Y-86381000D01*
X115222651Y-93959000D02*
X115222651Y-91210000D01*
X115262651Y-89130000D02*
X115262651Y-86365000D01*
X115262651Y-93975000D02*
X115262651Y-91210000D01*
X115302651Y-93990000D02*
X115302651Y-86350000D01*
X115342651Y-94005000D02*
X115342651Y-86335000D01*
X115382651Y-94019000D02*
X115382651Y-86321000D01*
X115422651Y-94033000D02*
X115422651Y-86307000D01*
X115462651Y-94046000D02*
X115462651Y-86294000D01*
X115502651Y-94059000D02*
X115502651Y-86281000D01*
X115542651Y-94071000D02*
X115542651Y-86269000D01*
X115582651Y-94083000D02*
X115582651Y-86257000D01*
X115622651Y-94095000D02*
X115622651Y-86245000D01*
X115662651Y-94106000D02*
X115662651Y-86234000D01*
X115702651Y-94117000D02*
X115702651Y-86223000D01*
X115742651Y-94127000D02*
X115742651Y-86213000D01*
X115782651Y-94137000D02*
X115782651Y-86203000D01*
X115822651Y-94146000D02*
X115822651Y-86194000D01*
X115862651Y-94155000D02*
X115862651Y-86185000D01*
X115902651Y-94163000D02*
X115902651Y-86177000D01*
X115942651Y-94172000D02*
X115942651Y-86168000D01*
X115982651Y-94179000D02*
X115982651Y-86161000D01*
X116022651Y-94187000D02*
X116022651Y-86153000D01*
X116062651Y-94193000D02*
X116062651Y-86147000D01*
X116102651Y-94200000D02*
X116102651Y-86140000D01*
X116142651Y-94206000D02*
X116142651Y-86134000D01*
X116182651Y-94212000D02*
X116182651Y-86128000D01*
X116222651Y-94217000D02*
X116222651Y-86123000D01*
X116262651Y-94222000D02*
X116262651Y-86118000D01*
X116302651Y-94226000D02*
X116302651Y-86114000D01*
X116342651Y-94231000D02*
X116342651Y-86109000D01*
X116382651Y-94234000D02*
X116382651Y-86106000D01*
X116422651Y-94238000D02*
X116422651Y-86102000D01*
X116462651Y-94240000D02*
X116462651Y-86100000D01*
X116502651Y-94243000D02*
X116502651Y-86097000D01*
X116542651Y-94245000D02*
X116542651Y-86095000D01*
X116582651Y-94247000D02*
X116582651Y-86093000D01*
X116622651Y-94248000D02*
X116622651Y-86092000D01*
X116662651Y-94249000D02*
X116662651Y-86091000D01*
X116702651Y-94250000D02*
X116702651Y-86090000D01*
X116742651Y-94250000D02*
X116742651Y-86090000D01*
X120752349Y-92885000D02*
X120752349Y-92085000D01*
X121152349Y-92485000D02*
X120352349Y-92485000D01*
X120862651Y-90170000D02*
G75*
G02*
X112622651Y-90170000I-4120000J0D01*
G01*
X112622651Y-90170000D02*
G75*
G02*
X120862651Y-90170000I4120000J0D01*
G01*
%TO.C,R8*%
X137160000Y-119400000D02*
X137780000Y-119400000D01*
X142240000Y-119400000D02*
X141620000Y-119400000D01*
X137780000Y-118480000D02*
X141620000Y-118480000D01*
X141620000Y-120320000D01*
X137780000Y-120320000D01*
X137780000Y-118480000D01*
%TO.C,U2*%
X124350000Y-67250000D02*
X124350000Y-77530000D01*
X124350000Y-77530000D02*
X129650000Y-77530000D01*
X126000000Y-67250000D02*
X124350000Y-67250000D01*
X129650000Y-67250000D02*
X128000000Y-67250000D01*
X129650000Y-77530000D02*
X129650000Y-67250000D01*
X128000000Y-67250000D02*
G75*
G02*
X126000000Y-67250000I-1000000J0D01*
G01*
%TO.C,R15*%
X73279000Y-66294000D02*
X73899000Y-66294000D01*
X78359000Y-66294000D02*
X77739000Y-66294000D01*
X73899000Y-65374000D02*
X77739000Y-65374000D01*
X77739000Y-67214000D01*
X73899000Y-67214000D01*
X73899000Y-65374000D01*
%TO.C,R2*%
X111755000Y-80010000D02*
X112375000Y-80010000D01*
X116835000Y-80010000D02*
X116215000Y-80010000D01*
X112375000Y-79090000D02*
X116215000Y-79090000D01*
X116215000Y-80930000D01*
X112375000Y-80930000D01*
X112375000Y-79090000D01*
%TO.C,U4*%
X123160000Y-98340000D02*
X133380000Y-98340000D01*
X123160000Y-99720000D02*
X133380000Y-99720000D01*
X123160000Y-102960000D02*
X123160000Y-98340000D01*
X126420000Y-98340000D02*
X126420000Y-99720000D01*
X130120000Y-98340000D02*
X130120000Y-99720000D01*
X133380000Y-98340000D02*
X133380000Y-102960000D01*
X133380000Y-102960000D02*
X123160000Y-102960000D01*
%TO.C,J4*%
X70570000Y-79170000D02*
X70570000Y-80420000D01*
X70870000Y-80780000D02*
X71480000Y-80780000D01*
X70870000Y-82080000D02*
X71480000Y-82080000D01*
X71480000Y-80080000D02*
X71480000Y-83580000D01*
X71480000Y-83580000D02*
X80380000Y-83580000D01*
X71820000Y-79170000D02*
X70570000Y-79170000D01*
X72330000Y-79270000D02*
X72330000Y-79470000D01*
X72630000Y-79270000D02*
X72330000Y-79270000D01*
X72630000Y-79370000D02*
X72330000Y-79370000D01*
X72630000Y-79470000D02*
X72630000Y-79270000D01*
X73430000Y-79470000D02*
X73430000Y-80080000D01*
X73430000Y-80080000D02*
X71480000Y-80080000D01*
X73830000Y-83080000D02*
X74030000Y-83080000D01*
X73830000Y-83580000D02*
X73830000Y-83080000D01*
X73930000Y-83580000D02*
X73930000Y-83080000D01*
X74030000Y-83080000D02*
X74030000Y-83580000D01*
X75830000Y-83080000D02*
X76030000Y-83080000D01*
X75830000Y-83580000D02*
X75830000Y-83080000D01*
X75930000Y-83580000D02*
X75930000Y-83080000D01*
X76030000Y-83080000D02*
X76030000Y-83580000D01*
X77830000Y-83080000D02*
X78030000Y-83080000D01*
X77830000Y-83580000D02*
X77830000Y-83080000D01*
X77930000Y-83580000D02*
X77930000Y-83080000D01*
X78030000Y-83080000D02*
X78030000Y-83580000D01*
X78430000Y-80080000D02*
X78430000Y-79470000D01*
X80380000Y-80080000D02*
X78430000Y-80080000D01*
X80380000Y-83580000D02*
X80380000Y-80080000D01*
X80990000Y-80780000D02*
X80380000Y-80780000D01*
X80990000Y-82080000D02*
X80380000Y-82080000D01*
X70870000Y-79470000D02*
X80990000Y-79470000D01*
X80990000Y-84190000D01*
X70870000Y-84190000D01*
X70870000Y-79470000D01*
%TO.C,R6*%
X111755000Y-72390000D02*
X112375000Y-72390000D01*
X116835000Y-72390000D02*
X116215000Y-72390000D01*
X112375000Y-71470000D02*
X116215000Y-71470000D01*
X116215000Y-73310000D01*
X112375000Y-73310000D01*
X112375000Y-71470000D01*
%TO.C,SW1*%
X70010000Y-115760000D02*
X70010000Y-117070000D01*
X70010000Y-115760000D02*
X71393000Y-115760000D01*
X70250000Y-116000000D02*
X70250000Y-117070000D01*
X70250000Y-116000000D02*
X77070000Y-116000000D01*
X70250000Y-119150000D02*
X70250000Y-119690000D01*
X70250000Y-121610000D02*
X70250000Y-122230000D01*
X70250000Y-124150000D02*
X70250000Y-124770000D01*
X70250000Y-126690000D02*
X70250000Y-127310000D01*
X70250000Y-129230000D02*
X70250000Y-129850000D01*
X70250000Y-131770000D02*
X70250000Y-132390000D01*
X70250000Y-134310000D02*
X70250000Y-134930000D01*
X70250000Y-136850000D02*
X70250000Y-138000000D01*
X70250000Y-138000000D02*
X77070000Y-138000000D01*
X73056667Y-117475000D02*
X73056667Y-118745000D01*
X73056667Y-120015000D02*
X73056667Y-121285000D01*
X73056667Y-122555000D02*
X73056667Y-123825000D01*
X73056667Y-125095000D02*
X73056667Y-126365000D01*
X73056667Y-127635000D02*
X73056667Y-128905000D01*
X73056667Y-130175000D02*
X73056667Y-131445000D01*
X73056667Y-132715000D02*
X73056667Y-133985000D01*
X73056667Y-135255000D02*
X73056667Y-136525000D01*
X77070000Y-116000000D02*
X77070000Y-117150000D01*
X77070000Y-119070000D02*
X77070000Y-119690000D01*
X77070000Y-121610000D02*
X77070000Y-122230000D01*
X77070000Y-124150000D02*
X77070000Y-124770000D01*
X77070000Y-126690000D02*
X77070000Y-127310000D01*
X77070000Y-129230000D02*
X77070000Y-129850000D01*
X77070000Y-131770000D02*
X77070000Y-132390000D01*
X77070000Y-134310000D02*
X77070000Y-134930000D01*
X77070000Y-136850000D02*
X77070000Y-138000000D01*
X71850000Y-117475000D02*
X73056667Y-117475000D01*
X73056667Y-118745000D01*
X71850000Y-118745000D01*
X71850000Y-117475000D01*
G36*
X71850000Y-117475000D02*
G01*
X73056667Y-117475000D01*
X73056667Y-118745000D01*
X71850000Y-118745000D01*
X71850000Y-117475000D01*
G37*
X71850000Y-117475000D02*
X75470000Y-117475000D01*
X75470000Y-118745000D01*
X71850000Y-118745000D01*
X71850000Y-117475000D01*
X71850000Y-120015000D02*
X73056667Y-120015000D01*
X73056667Y-121285000D01*
X71850000Y-121285000D01*
X71850000Y-120015000D01*
G36*
X71850000Y-120015000D02*
G01*
X73056667Y-120015000D01*
X73056667Y-121285000D01*
X71850000Y-121285000D01*
X71850000Y-120015000D01*
G37*
X71850000Y-120015000D02*
X75470000Y-120015000D01*
X75470000Y-121285000D01*
X71850000Y-121285000D01*
X71850000Y-120015000D01*
X71850000Y-122555000D02*
X73056667Y-122555000D01*
X73056667Y-123825000D01*
X71850000Y-123825000D01*
X71850000Y-122555000D01*
G36*
X71850000Y-122555000D02*
G01*
X73056667Y-122555000D01*
X73056667Y-123825000D01*
X71850000Y-123825000D01*
X71850000Y-122555000D01*
G37*
X71850000Y-122555000D02*
X75470000Y-122555000D01*
X75470000Y-123825000D01*
X71850000Y-123825000D01*
X71850000Y-122555000D01*
X71850000Y-125095000D02*
X73056667Y-125095000D01*
X73056667Y-126365000D01*
X71850000Y-126365000D01*
X71850000Y-125095000D01*
G36*
X71850000Y-125095000D02*
G01*
X73056667Y-125095000D01*
X73056667Y-126365000D01*
X71850000Y-126365000D01*
X71850000Y-125095000D01*
G37*
X71850000Y-125095000D02*
X75470000Y-125095000D01*
X75470000Y-126365000D01*
X71850000Y-126365000D01*
X71850000Y-125095000D01*
X71850000Y-127635000D02*
X73056667Y-127635000D01*
X73056667Y-128905000D01*
X71850000Y-128905000D01*
X71850000Y-127635000D01*
G36*
X71850000Y-127635000D02*
G01*
X73056667Y-127635000D01*
X73056667Y-128905000D01*
X71850000Y-128905000D01*
X71850000Y-127635000D01*
G37*
X71850000Y-127635000D02*
X75470000Y-127635000D01*
X75470000Y-128905000D01*
X71850000Y-128905000D01*
X71850000Y-127635000D01*
X71850000Y-130175000D02*
X73056667Y-130175000D01*
X73056667Y-131445000D01*
X71850000Y-131445000D01*
X71850000Y-130175000D01*
G36*
X71850000Y-130175000D02*
G01*
X73056667Y-130175000D01*
X73056667Y-131445000D01*
X71850000Y-131445000D01*
X71850000Y-130175000D01*
G37*
X71850000Y-130175000D02*
X75470000Y-130175000D01*
X75470000Y-131445000D01*
X71850000Y-131445000D01*
X71850000Y-130175000D01*
X71850000Y-132715000D02*
X73056667Y-132715000D01*
X73056667Y-133985000D01*
X71850000Y-133985000D01*
X71850000Y-132715000D01*
G36*
X71850000Y-132715000D02*
G01*
X73056667Y-132715000D01*
X73056667Y-133985000D01*
X71850000Y-133985000D01*
X71850000Y-132715000D01*
G37*
X71850000Y-132715000D02*
X75470000Y-132715000D01*
X75470000Y-133985000D01*
X71850000Y-133985000D01*
X71850000Y-132715000D01*
X71850000Y-135255000D02*
X73056667Y-135255000D01*
X73056667Y-136525000D01*
X71850000Y-136525000D01*
X71850000Y-135255000D01*
G36*
X71850000Y-135255000D02*
G01*
X73056667Y-135255000D01*
X73056667Y-136525000D01*
X71850000Y-136525000D01*
X71850000Y-135255000D01*
G37*
X71850000Y-135255000D02*
X75470000Y-135255000D01*
X75470000Y-136525000D01*
X71850000Y-136525000D01*
X71850000Y-135255000D01*
%TO.C,C14*%
X135980000Y-125400000D02*
X143420000Y-125400000D01*
X135980000Y-128640000D02*
X135980000Y-125400000D01*
X143420000Y-125400000D02*
X143420000Y-128640000D01*
X143420000Y-128640000D02*
X135980000Y-128640000D01*
%TO.C,C3*%
X135975000Y-79660000D02*
X143415000Y-79660000D01*
X135975000Y-82900000D02*
X135975000Y-79660000D01*
X143415000Y-79660000D02*
X143415000Y-82900000D01*
X143415000Y-82900000D02*
X135975000Y-82900000D01*
%TO.C,C11*%
X123280000Y-112700000D02*
X130720000Y-112700000D01*
X123280000Y-115940000D02*
X123280000Y-112700000D01*
X130720000Y-112700000D02*
X130720000Y-115940000D01*
X130720000Y-115940000D02*
X123280000Y-115940000D01*
%TO.C,C6*%
X103790000Y-115680000D02*
X107030000Y-115680000D01*
X103790000Y-123120000D02*
X103790000Y-115680000D01*
X107030000Y-115680000D02*
X107030000Y-123120000D01*
X107030000Y-123120000D02*
X103790000Y-123120000D01*
%TO.C,C1*%
X110575000Y-61880000D02*
X118015000Y-61880000D01*
X110575000Y-65120000D02*
X110575000Y-61880000D01*
X118015000Y-61880000D02*
X118015000Y-65120000D01*
X118015000Y-65120000D02*
X110575000Y-65120000D01*
%TO.C,R12*%
X111760000Y-123210000D02*
X112380000Y-123210000D01*
X116840000Y-123210000D02*
X116220000Y-123210000D01*
X112380000Y-122290000D02*
X116220000Y-122290000D01*
X116220000Y-124130000D01*
X112380000Y-124130000D01*
X112380000Y-122290000D01*
%TO.C,C7*%
X103830000Y-125840000D02*
X107070000Y-125840000D01*
X103830000Y-133280000D02*
X103830000Y-125840000D01*
X107070000Y-125840000D02*
X107070000Y-133280000D01*
X107070000Y-133280000D02*
X103830000Y-133280000D01*
%TO.C,R1*%
X111755000Y-68580000D02*
X112375000Y-68580000D01*
X116835000Y-68580000D02*
X116215000Y-68580000D01*
X112375000Y-67660000D02*
X116215000Y-67660000D01*
X116215000Y-69500000D01*
X112375000Y-69500000D01*
X112375000Y-67660000D01*
%TO.C,C4*%
X135975000Y-74580000D02*
X143415000Y-74580000D01*
X135975000Y-77820000D02*
X135975000Y-74580000D01*
X143415000Y-74580000D02*
X143415000Y-77820000D01*
X143415000Y-77820000D02*
X135975000Y-77820000D01*
%TO.C,R7*%
X111760000Y-126993000D02*
X112380000Y-126993000D01*
X116840000Y-126993000D02*
X116220000Y-126993000D01*
X112380000Y-126073000D02*
X116220000Y-126073000D01*
X116220000Y-127913000D01*
X112380000Y-127913000D01*
X112380000Y-126073000D01*
%TO.C,U3*%
X124355000Y-118070000D02*
X124355000Y-128350000D01*
X124355000Y-128350000D02*
X129655000Y-128350000D01*
X126005000Y-118070000D02*
X124355000Y-118070000D01*
X129655000Y-118070000D02*
X128005000Y-118070000D01*
X129655000Y-128350000D02*
X129655000Y-118070000D01*
X128005000Y-118070000D02*
G75*
G02*
X126005000Y-118070000I-1000000J0D01*
G01*
%TO.C,D1*%
X105410000Y-97860000D02*
X105410000Y-98880000D01*
X105410000Y-105340000D02*
X105410000Y-104320000D01*
X106880000Y-99660000D02*
X103940000Y-99660000D01*
X106880000Y-99780000D02*
X103940000Y-99780000D01*
X106880000Y-99900000D02*
X103940000Y-99900000D01*
X103940000Y-98880000D02*
X106880000Y-98880000D01*
X106880000Y-104320000D01*
X103940000Y-104320000D01*
X103940000Y-98880000D01*
%TO.C,R13*%
X111760000Y-130830000D02*
X112380000Y-130830000D01*
X116840000Y-130830000D02*
X116220000Y-130830000D01*
X112380000Y-129910000D02*
X116220000Y-129910000D01*
X116220000Y-131750000D01*
X112380000Y-131750000D01*
X112380000Y-129910000D01*
%TO.C,D4*%
X137160000Y-96590000D02*
X137160000Y-97610000D01*
X137160000Y-104070000D02*
X137160000Y-103050000D01*
X138630000Y-98390000D02*
X135690000Y-98390000D01*
X138630000Y-98510000D02*
X135690000Y-98510000D01*
X138630000Y-98630000D02*
X135690000Y-98630000D01*
X135690000Y-97610000D02*
X138630000Y-97610000D01*
X138630000Y-103050000D01*
X135690000Y-103050000D01*
X135690000Y-97610000D01*
%TO.C,R3*%
X137155000Y-68580000D02*
X137775000Y-68580000D01*
X142235000Y-68580000D02*
X141615000Y-68580000D01*
X137775000Y-67660000D02*
X141615000Y-67660000D01*
X141615000Y-69500000D01*
X137775000Y-69500000D01*
X137775000Y-67660000D01*
%TO.C,D2*%
X110490000Y-97860000D02*
X110490000Y-98880000D01*
X110490000Y-105340000D02*
X110490000Y-104320000D01*
X111960000Y-99660000D02*
X109020000Y-99660000D01*
X111960000Y-99780000D02*
X109020000Y-99780000D01*
X111960000Y-99900000D02*
X109020000Y-99900000D01*
X109020000Y-98880000D02*
X111960000Y-98880000D01*
X111960000Y-104320000D01*
X109020000Y-104320000D01*
X109020000Y-98880000D01*
%TO.C,C10*%
X123275000Y-79660000D02*
X130715000Y-79660000D01*
X123275000Y-82900000D02*
X123275000Y-79660000D01*
X130715000Y-79660000D02*
X130715000Y-82900000D01*
X130715000Y-82900000D02*
X123275000Y-82900000D01*
%TO.C,U1*%
D10*
X82473000Y-60629000D02*
X102793000Y-60629000D01*
X102793000Y-138099000D01*
X82473000Y-138099000D01*
X82473000Y-60629000D01*
%TO.C,R5*%
D12*
X111755000Y-76200000D02*
X112375000Y-76200000D01*
X116835000Y-76200000D02*
X116215000Y-76200000D01*
X112375000Y-75280000D02*
X116215000Y-75280000D01*
X116215000Y-77120000D01*
X112375000Y-77120000D01*
X112375000Y-75280000D01*
%TO.C,J3*%
X76090000Y-90060000D02*
X77470000Y-90060000D01*
X76090000Y-91440000D02*
X76090000Y-90060000D01*
X76090000Y-92710000D02*
X76090000Y-110600000D01*
X76090000Y-92710000D02*
X78850000Y-92710000D01*
X76090000Y-110600000D02*
X78850000Y-110600000D01*
X78850000Y-92710000D02*
X78850000Y-110600000D01*
%TO.C,R17*%
X73152000Y-74930000D02*
X73772000Y-74930000D01*
X78232000Y-74930000D02*
X77612000Y-74930000D01*
X73772000Y-74010000D02*
X77612000Y-74010000D01*
X77612000Y-75850000D01*
X73772000Y-75850000D01*
X73772000Y-74010000D01*
%TO.C,C9*%
X123275000Y-61880000D02*
X130715000Y-61880000D01*
X123275000Y-65120000D02*
X123275000Y-61880000D01*
X130715000Y-61880000D02*
X130715000Y-65120000D01*
X130715000Y-65120000D02*
X123275000Y-65120000D01*
%TO.C,R10*%
X115570000Y-99060000D02*
X115570000Y-99680000D01*
X115570000Y-104140000D02*
X115570000Y-103520000D01*
X114650000Y-99680000D02*
X116490000Y-99680000D01*
X116490000Y-103520000D01*
X114650000Y-103520000D01*
X114650000Y-99680000D01*
%TO.C,R16*%
X73152000Y-70612000D02*
X73772000Y-70612000D01*
X78232000Y-70612000D02*
X77612000Y-70612000D01*
X73772000Y-69692000D02*
X77612000Y-69692000D01*
X77612000Y-71532000D01*
X73772000Y-71532000D01*
X73772000Y-69692000D01*
%TO.C,R14*%
X111760000Y-119400000D02*
X112380000Y-119400000D01*
X116840000Y-119400000D02*
X116220000Y-119400000D01*
X112380000Y-118480000D02*
X116220000Y-118480000D01*
X116220000Y-120320000D01*
X112380000Y-120320000D01*
X112380000Y-118480000D01*
%TO.C,C5*%
X103790000Y-74940000D02*
X107030000Y-74940000D01*
X103790000Y-82380000D02*
X103790000Y-74940000D01*
X107030000Y-74940000D02*
X107030000Y-82380000D01*
X107030000Y-82380000D02*
X103790000Y-82380000D01*
%TO.C,R9*%
X119380000Y-99060000D02*
X119380000Y-99680000D01*
X119380000Y-104140000D02*
X119380000Y-103520000D01*
X118460000Y-99680000D02*
X120300000Y-99680000D01*
X120300000Y-103520000D01*
X118460000Y-103520000D01*
X118460000Y-99680000D01*
%TO.C,D3*%
X124530000Y-107950000D02*
X125550000Y-107950000D01*
X129970000Y-109420000D02*
X129970000Y-106480000D01*
X130090000Y-109420000D02*
X130090000Y-106480000D01*
X130210000Y-109420000D02*
X130210000Y-106480000D01*
X132010000Y-107950000D02*
X130990000Y-107950000D01*
X125550000Y-106480000D02*
X130990000Y-106480000D01*
X130990000Y-109420000D01*
X125550000Y-109420000D01*
X125550000Y-106480000D01*
%TO.C,R4*%
X137155000Y-72390000D02*
X137775000Y-72390000D01*
X142235000Y-72390000D02*
X141615000Y-72390000D01*
X137775000Y-71470000D02*
X141615000Y-71470000D01*
X141615000Y-73310000D01*
X137775000Y-73310000D01*
X137775000Y-71470000D01*
%TO.C,C13*%
X110580000Y-112700000D02*
X118020000Y-112700000D01*
X110580000Y-115940000D02*
X110580000Y-112700000D01*
X118020000Y-112700000D02*
X118020000Y-115940000D01*
X118020000Y-115940000D02*
X110580000Y-115940000D01*
%TO.C,C8*%
X135980000Y-130480000D02*
X143420000Y-130480000D01*
X135980000Y-133720000D02*
X135980000Y-130480000D01*
X143420000Y-130480000D02*
X143420000Y-133720000D01*
X143420000Y-133720000D02*
X135980000Y-133720000D01*
%TO.C,C12*%
X123280000Y-130480000D02*
X130720000Y-130480000D01*
X123280000Y-133720000D02*
X123280000Y-130480000D01*
X130720000Y-130480000D02*
X130720000Y-133720000D01*
X130720000Y-133720000D02*
X123280000Y-133720000D01*
%TO.C,J2*%
X142480000Y-97070000D02*
X142480000Y-103970000D01*
X142480000Y-99420000D02*
X142980000Y-99420000D01*
X142480000Y-99520000D02*
X142980000Y-99520000D01*
X142480000Y-101420000D02*
X142980000Y-101420000D01*
X142480000Y-101520000D02*
X142980000Y-101520000D01*
X142480000Y-103970000D02*
X145980000Y-103970000D01*
X142980000Y-99420000D02*
X142980000Y-99620000D01*
X142980000Y-99620000D02*
X142480000Y-99620000D01*
X142980000Y-101420000D02*
X142980000Y-101620000D01*
X142980000Y-101620000D02*
X142480000Y-101620000D01*
X143980000Y-96460000D02*
X143980000Y-97070000D01*
X143980000Y-104580000D02*
X143980000Y-103970000D01*
X145280000Y-96460000D02*
X145280000Y-97070000D01*
X145280000Y-104580000D02*
X145280000Y-103970000D01*
X145980000Y-97070000D02*
X142480000Y-97070000D01*
X145980000Y-99020000D02*
X145980000Y-97070000D01*
X145980000Y-102020000D02*
X146590000Y-102020000D01*
X145980000Y-103970000D02*
X145980000Y-102020000D01*
X146590000Y-98220000D02*
X146790000Y-98220000D01*
X146590000Y-99020000D02*
X145980000Y-99020000D01*
X146690000Y-98220000D02*
X146690000Y-97920000D01*
X146790000Y-97920000D02*
X146590000Y-97920000D01*
X146790000Y-98220000D02*
X146790000Y-97920000D01*
X146890000Y-96160000D02*
X145640000Y-96160000D01*
X146890000Y-97410000D02*
X146890000Y-96160000D01*
X141870000Y-96460000D02*
X146590000Y-96460000D01*
X146590000Y-104580000D01*
X141870000Y-104580000D01*
X141870000Y-96460000D01*
%TO.C,J1*%
D10*
X138480000Y-85140000D02*
X151180000Y-85140000D01*
X151180000Y-92760000D01*
X138480000Y-92760000D01*
X138480000Y-85140000D01*
%TD*%
M02*
